<svg width="19" height="11" viewBox="0 0 19 11" fill="none" xmlns="http://www.w3.org/2000/svg">
<path id="Vector" d="M16.457 9.71906C16.8549 10.102 17.4879 10.0899 17.8709 9.69197C18.2539 9.29403 18.2418 8.66099 17.8438 8.27801L16.457 9.71906ZM8.99862 1.15324L9.69205 0.43272C9.29412 0.0497476 8.66107 0.0618758 8.2781 0.459809L8.99862 1.15324ZM0.432804 8.61158C0.0498323 9.00951 0.0619604 9.64256 0.459893 10.0255C0.857827 10.4085 1.49088 10.3964 1.87385 9.99844L0.432804 8.61158ZM17.8438 8.27801L9.69205 0.43272L8.30519 1.87376L16.457 9.71906L17.8438 8.27801ZM8.2781 0.459809L0.432804 8.61158L1.87385 9.99844L9.71914 1.84667L8.2781 0.459809Z" fill="black"/>
</svg>
