<svg width="12" height="12" viewBox="0 0 12 12" fill="none" xmlns="http://www.w3.org/2000/svg">
<path id="Vector" d="M0.227666 10.7127C-0.0652277 11.0056 -0.0652277 11.4805 0.227665 11.7733C0.520559 12.0662 0.995432 12.0662 1.28833 11.7733L0.227666 10.7127ZM6.001 6.00002L6.53133 5.46969C6.39067 5.32904 6.19991 5.25002 6.001 5.25002C5.80208 5.25002 5.61132 5.32904 5.47067 5.46969L6.001 6.00002ZM11.7743 1.2874C12.0672 0.994534 12.0672 0.519661 11.7744 0.22674C11.4815 -0.0661816 11.0066 -0.0662269 10.7137 0.226638L11.7743 1.2874ZM6 6.00002L5.46962 6.5303C5.61025 6.67096 5.80101 6.75 5.99992 6.75002C6.19884 6.75004 6.38961 6.67104 6.53028 6.5304L6 6.00002ZM1.28838 0.22674C0.995511 -0.0661816 0.520637 -0.0662269 0.227716 0.226638C-0.0652051 0.519504 -0.0652503 0.994377 0.227615 1.2873L1.28838 0.22674ZM10.7137 11.7733C11.0066 12.0662 11.4814 12.0662 11.7743 11.7733C12.0672 11.4805 12.0672 11.0056 11.7743 10.7127L10.7137 11.7733ZM1.28833 11.7733L6.53133 6.53035L5.47067 5.46969L0.227666 10.7127L1.28833 11.7733ZM10.7137 0.226638L5.46972 5.46964L6.53028 6.5304L11.7743 1.2874L10.7137 0.226638ZM6.53038 5.46974L1.28838 0.22674L0.227615 1.2873L5.46962 6.5303L6.53038 5.46974ZM5.47067 6.53035L10.7137 11.7733L11.7743 10.7127L6.53133 5.46969L5.47067 6.53035Z" fill="#222222"/>
</svg>
