<svg overflow="visible" class="hidden" height="0" width="0" version="1.1" xmlns="http://www.w3.org/2000/svg"  xmlns:xlink="http://www.w3.org/1999/xlink">
<defs>
            <symbol id="search-icon" viewBox="0 0 25 26">
                    <path d="M24.6582 21.6162L19.79 16.748C19.5703 16.5283 19.2725 16.4062 18.96 16.4062H18.1641C19.5117 14.6826 20.3125 12.5146 20.3125 10.1562C20.3125 4.5459 15.7666 0 10.1562 0C4.5459 0 0 4.5459 0 10.1562C0 15.7666 4.5459 20.3125 10.1562 20.3125C12.5146 20.3125 14.6826 19.5117 16.4062 18.1641V18.96C16.4062 19.2725 16.5283 19.5703 16.748 19.79L21.6162 24.6582C22.0752 25.1172 22.8174 25.1172 23.2715 24.6582L24.6533 23.2764C25.1123 22.8174 25.1123 22.0752 24.6582 21.6162ZM10.1562 16.4062C6.7041 16.4062 3.90625 13.6133 3.90625 10.1562C3.90625 6.7041 6.69922 3.90625 10.1562 3.90625C13.6084 3.90625 16.4062 6.69922 16.4062 10.1562C16.4062 13.6084 13.6133 16.4062 10.1562 16.4062Z" fill="black"></path>
            </symbol>
            <symbol id="wind-icon" viewBox="0 0 27 20">
                    <path d="M27 8C27 5.79086 25.2046 4 23 4C20.7909 4 19 5.78941 19 8H21C21 6.89543 21.8877 6 23 6C24.1046 6 25 6.88773 25 8C25 9.10457 24.1102 10 22.9964 10H0V12H23.0015C25.2098 12 27 10.2046 27 8ZM18 4C18 1.79086 16.2046 0 14 0C11.7909 0 10 1.78941 10 3.9971V4H12C12 2.89543 12.8877 2 14 2C15.1046 2 16 2.88773 16 4C16 5.10457 15.1029 6 13.9941 6H2V8H14.0038C16.2108 8 18 6.20464 18 4ZM23 17C23 18.6569 21.6535 20 20 20C18.3431 20 17 18.6579 17 17.0086V17H19C19 17.5523 19.4439 18 20 18C20.5523 18 21 17.5561 21 17C21 16.4477 20.5511 16 19.9925 16H6V14H19.9999C21.6568 14 23 15.3465 23 17Z" fill="black"></path>
            </symbol>
            <symbol id="pressure-icon" viewBox="0 0 28 28">
               <g id="mdi:car-brake-low-pressure">
                <path id="Vector" d="M15.1667 14C15.1667 14.6417 14.6417 15.1667 14 15.1667C13.3583 15.1667 12.8333 14.6417 12.8333 14C12.8333 13.3583 13.3583 12.8333 14 12.8333C14.6417 12.8333 15.1667 13.3583 15.1667 14ZM11.6667 14L8.16667 10.5V12.8333H3.5V15.1667H8.16667V17.5L11.6667 14ZM16.3333 14L19.8333 17.5V15.1667H24.5V12.8333H19.8333V10.5L16.3333 14ZM23.9167 4.08333L22.6567 5.34333C24.8733 7.58333 26.25 10.6283 26.25 14C26.25 17.3833 24.8733 20.4167 22.6567 22.6567L23.9167 23.9167C26.4367 21.3617 28 17.8617 28 14C28 10.1383 26.4367 6.63833 23.9167 4.08333ZM6.63833 10.5C7.945 7.74667 10.7567 5.83333 14 5.83333C17.2433 5.83333 20.055 7.74667 21.3733 10.5H23.9167C22.4467 6.41667 18.5733 3.5 14 3.5C9.42667 3.5 5.55333 6.41667 4.08333 10.5H6.63833V10.5ZM5.34333 5.34333L4.08333 4.08333C1.56333 6.63833 0 10.1383 0 14C0 17.8617 1.56333 21.3617 4.08333 23.9167L5.34333 22.6567C3.12667 20.4167 1.75 17.3833 1.75 14C1.75 10.6283 3.12667 7.58333 5.34333 5.34333ZM21.3733 17.5C20.055 20.2533 17.255 22.1667 14 22.1667C10.745 22.1667 7.945 20.2533 6.63833 17.5H4.08333C5.55333 21.5833 9.42667 24.5 14 24.5C18.5733 24.5 22.4467 21.5833 23.9167 17.5H21.3733Z" fill="#222222"></path>
                </g>
            </symbol>
            <symbol id="humidity-icon" viewBox="0 0 32 32">
                   <g id="carbon:humidity">
                <path id="Vector" d="M23.476 13.993L16.847 3.43701C16.7508 3.30202 16.6238 3.19197 16.4764 3.11604C16.3291 3.04011 16.1657 3.00049 16 3.00049C15.8343 3.00049 15.6709 3.04011 15.5236 3.11604C15.3762 3.19197 15.2492 3.30202 15.153 3.43701L8.494 14.043C7.56889 15.5353 7.05357 17.2451 7 19C7 21.387 7.94821 23.6761 9.63604 25.364C11.3239 27.0518 13.6131 28 16 28C18.3869 28 20.6761 27.0518 22.364 25.364C24.0518 23.6761 25 21.387 25 19C24.9425 17.2258 24.4167 15.4984 23.476 13.993V13.993ZM16 26C14.1442 25.9976 12.3651 25.2594 11.0529 23.9471C9.74064 22.6349 9.00238 20.8558 9 19C9.05315 17.6016 9.47321 16.2418 10.218 15.057L11.153 13.567L21.227 23.641C20.5727 24.3823 19.7683 24.976 18.8672 25.3829C17.9661 25.7898 16.9887 26.0005 16 26.001V26Z" fill="#222222"></path>
                </g>
            </symbol>
            <symbol id="sunDown-icon" viewBox="0 0 30 25">
            <g id="vaadin:sun-down">
                <path id="Vector" d="M18.75 4.6875H16.875V1.5625H13.125V4.6875H11.25L15 9.375L18.75 4.6875Z" fill="#222222"></path>
                <path id="Vector_2" d="M26.25 20.3125L23.2875 18.4687L24.75 15.625L21 15.2656L20.625 12.1875L17.2125 13.4062L15 10.9375L12.7875 13.4062L9.375 12.1875L8.94375 15.3125L5.25 15.625L6.7125 18.4687L3.75 20.3125H0V21.875H30V20.3125H26.25ZM7.5 20.3125C7.56664 18.6744 8.37643 17.1184 9.76596 15.9584C11.1555 14.7985 13.0213 14.1209 14.9869 14.0625C16.9549 14.1153 18.8254 14.7889 20.2201 15.9472C21.6148 17.1054 22.4297 18.6618 22.5 20.3016L7.5 20.3125Z" fill="#222222"></path>
                </g>
            </symbol>
            <symbol id="sunRise-icon" viewBox="0 0 30 25">
            <g id="vaadin:sun-rise">
                <path id="Vector" d="M11.25 6.25H13.125V9.375H16.875V6.25H18.75L15 1.5625L11.25 6.25Z" fill="#222222"></path>
                <path id="Vector_2" d="M23.2875 18.4687L24.75 15.625L21 15.2656L20.625 12.1875L17.2125 13.4062L15 10.9375L12.7875 13.4062L9.375 12.1875L8.94375 15.3125L5.25 15.625L6.7125 18.4687L3.75 20.3125H0V21.875H30V20.3125H26.25L23.2875 18.4687ZM7.5 20.3125C7.56664 18.6744 8.37643 17.1184 9.76596 15.9584C11.1555 14.7985 13.0213 14.1209 14.9869 14.0625C16.9549 14.1153 18.8254 14.7889 20.2201 15.9472C21.6148 17.1054 22.4297 18.6618 22.5 20.3016L7.5 20.3125Z" fill="#222222"></path>
                </g>
            </symbol>
            <symbol id="tempMin-icon" viewBox="0 0 32 32">
            <g id="carbon:temperature-min">
                <path id="Vector" d="M20 4H27V6H20V4Z" fill="#222222"></path>
                <path id="Vector_2" d="M20 10H30V12H20V10Z" fill="#222222"></path>
                <path id="Vector_3" d="M20 16H27V18H20V16Z" fill="#222222"></path>
                <path id="Vector_4" d="M12 23C12 23.7956 11.6839 24.5587 11.1213 25.1213C10.5587 25.6839 9.79565 26 9 26C8.20435 26 7.44129 25.6839 6.87868 25.1213C6.31607 24.5587 6 23.7956 6 23H12Z" fill="#222222"></path>
                <path id="Vector_5" d="M30 22H15.92C15.7074 20.5329 15.0352 19.171 14 18.11V7C14 5.67392 13.4732 4.40215 12.5355 3.46447C11.5978 2.52678 10.3261 2 9 2C7.67391 2 6.40214 2.52678 5.46446 3.46447C4.52678 4.40215 4 5.67392 4 7V18.11C3.22647 18.8993 2.65097 19.8607 2.32068 20.9154C1.99039 21.9701 1.9147 23.088 2.09981 24.1775C2.28492 25.2671 2.72557 26.2973 3.38564 27.1837C4.04571 28.0701 4.90642 28.7875 5.89723 29.2771C6.88804 29.7667 7.98077 30.0145 9.08585 30.0003C10.1909 29.9861 11.2769 29.7103 12.2548 29.1954C13.2327 28.6805 14.0747 27.9413 14.7118 27.0382C15.3489 26.1351 15.7629 25.094 15.92 24H30V22ZM9 28C7.98774 28.0015 6.99894 27.6952 6.16472 27.1218C5.33049 26.5485 4.69024 25.7351 4.32885 24.7896C3.96746 23.844 3.90201 22.8109 4.14117 21.8273C4.38033 20.8437 4.9128 19.9561 5.668 19.282L6 18.983V7C6 6.20435 6.31607 5.44129 6.87868 4.87868C7.44129 4.31607 8.20435 4 9 4C9.79565 4 10.5587 4.31607 11.1213 4.87868C11.6839 5.44129 12 6.20435 12 7V18.983L12.332 19.282C13.0872 19.9561 13.6197 20.8437 13.8588 21.8273C14.098 22.8109 14.0325 23.844 13.6711 24.7896C13.3098 25.7351 12.6695 26.5485 11.8353 27.1218C11.0011 27.6952 10.0123 28.0015 9 28V28Z" fill="#222222"></path>
                </g>
            </symbol>
            <symbol id="tempMax-icon" viewBox="0 0 32 32">
            <g id="carbon:temperature-max">
                <path id="Vector" d="M20 10H27V12H20V10Z" fill="#222222"></path>
                <path id="Vector_2" d="M20 16H30V18H20V16Z" fill="#222222"></path>
                <path id="Vector_3" d="M20 22H27V24H20V22Z" fill="#222222"></path>
                <path id="Vector_4" d="M10 20.184V7H8.00001V20.184C7.33279 20.4199 6.77045 20.8841 6.41237 21.4945C6.0543 22.1049 5.92354 22.8222 6.04321 23.5197C6.16288 24.2172 6.52528 24.85 7.06635 25.3061C7.60741 25.7622 8.29232 26.0124 9.00001 26.0124C9.70769 26.0124 10.3926 25.7622 10.9337 25.3061C11.4747 24.85 11.8371 24.2172 11.9568 23.5197C12.0765 22.8222 11.9457 22.1049 11.5876 21.4945C11.2296 20.8841 10.6672 20.4199 10 20.184V20.184Z" fill="#222222"></path>
                <path id="Vector_5" d="M30 3.99999H12.974C12.3466 3.16069 11.4705 2.54057 10.4704 2.22778C9.47023 1.91498 8.39695 1.92545 7.40311 2.25769C6.40927 2.58993 5.54546 3.22703 4.93451 4.07841C4.32356 4.92978 3.99656 5.95209 4 6.99999V18.11C3.03533 19.0946 2.38281 20.342 2.12426 21.6959C1.8657 23.0498 2.01262 24.45 2.5466 25.7207C3.08058 26.9915 3.97784 28.0763 5.12587 28.8392C6.27391 29.602 7.62162 30.009 9 30.009C10.3784 30.009 11.7261 29.602 12.8741 28.8392C14.0222 28.0763 14.9194 26.9915 15.4534 25.7207C15.9874 24.45 16.1343 23.0498 15.8758 21.6959C15.6172 20.342 14.9647 19.0946 14 18.11V6.99999C14 6.66411 13.9662 6.32909 13.899 5.99999H30V3.99999ZM9 28C7.98774 28.0014 6.99895 27.6952 6.16472 27.1218C5.3305 26.5485 4.69024 25.7351 4.32885 24.7896C3.96747 23.844 3.90201 22.8109 4.14117 21.8273C4.38033 20.8437 4.91281 19.956 5.668 19.282L6 18.983V6.99999C6 6.20434 6.31607 5.44128 6.87868 4.87867C7.44129 4.31606 8.20435 3.99999 9 3.99999C9.79565 3.99999 10.5587 4.31606 11.1213 4.87867C11.6839 5.44128 12 6.20434 12 6.99999V18.983L12.332 19.282C13.0872 19.956 13.6197 20.8437 13.8588 21.8273C14.098 22.8109 14.0325 23.844 13.6712 24.7896C13.3098 25.7351 12.6695 26.5485 11.8353 27.1218C11.0011 27.6952 10.0123 28.0014 9 28V28Z" fill="#222222"></path>
                </g>
            </symbol>
            <symbol id="icon-loader" viewBox="0 0 24 24">
                <path d="M11 2v4c0 0.552 0.448 1 1 1s1-0.448 1-1v-4c0-0.552-0.448-1-1-1s-1 0.448-1 1zM11 18v4c0 0.552 0.448 1 1 1s1-0.448 1-1v-4c0-0.552-0.448-1-1-1s-1 0.448-1 1zM4.223 5.637l2.83 2.83c0.391 0.391 1.024 0.391 1.414 0s0.391-1.024 0-1.414l-2.83-2.83c-0.391-0.391-1.024-0.391-1.414 0s-0.391 1.024 0 1.414zM15.533 16.947l2.83 2.83c0.391 0.391 1.024 0.391 1.414 0s0.391-1.024 0-1.414l-2.83-2.83c-0.391-0.391-1.024-0.391-1.414 0s-0.391 1.024 0 1.414zM2 13h4c0.552 0 1-0.448 1-1s-0.448-1-1-1h-4c-0.552 0-1 0.448-1 1s0.448 1 1 1zM18 13h4c0.552 0 1-0.448 1-1s-0.448-1-1-1h-4c-0.552 0-1 0.448-1 1s0.448 1 1 1zM5.637 19.777l2.83-2.83c0.391-0.391 0.391-1.024 0-1.414s-1.024-0.391-1.414 0l-2.83 2.83c-0.391 0.391-0.391 1.024 0 1.414s1.024 0.391 1.414 0zM16.947 8.467l2.83-2.83c0.391-0.391 0.391-1.024 0-1.414s-1.024-0.391-1.414 0l-2.83 2.83c-0.391 0.391-0.391 1.024 0 1.414s1.024 0.391 1.414 0z"></path>
                </symbol>
                <symbol id="open-icon" viewBox="0 0 18 10">
                <path  d="M1.70711 0.292893C1.31658 -0.0976311 0.683418 -0.0976311 0.292893 0.292893C-0.0976311 0.683418 -0.0976311 1.31658 0.292893 1.70711L1.70711 0.292893ZM9 9L8.29289 9.70711C8.68342 10.0976 9.31658 10.0976 9.70711 9.70711L9 9ZM17.7071 1.70711C18.0976 1.31658 18.0976 0.683418 17.7071 0.292893C17.3166 -0.0976311 16.6834 -0.0976311 16.2929 0.292893L17.7071 1.70711ZM0.292893 1.70711L8.29289 9.70711L9.70711 8.29289L1.70711 0.292893L0.292893 1.70711ZM9.70711 9.70711L17.7071 1.70711L16.2929 0.292893L8.29289 8.29289L9.70711 9.70711Z" fill="black"/>
                </symbol>
                <symbol id="close-icon" viewBox="0 0 19 11">
                <path  d="M16.457 9.71906C16.8549 10.102 17.4879 10.0899 17.8709 9.69197C18.2539 9.29403 18.2418 8.66099 17.8438 8.27801L16.457 9.71906ZM8.99862 1.15324L9.69205 0.43272C9.29412 0.0497476 8.66107 0.0618758 8.2781 0.459809L8.99862 1.15324ZM0.432804 8.61158C0.0498323 9.00951 0.0619604 9.64256 0.459893 10.0255C0.857827 10.4085 1.49088 10.3964 1.87385 9.99844L0.432804 8.61158ZM17.8438 8.27801L9.69205 0.43272L8.30519 1.87376L16.457 9.71906L17.8438 8.27801ZM8.2781 0.459809L0.432804 8.61158L1.87385 9.99844L9.71914 1.84667L8.2781 0.459809Z" fill="black"/>
                </symbol>
                <symbol id="canel-icon" viewBox="0 0 12 12">
                <path  d="M0.227666 10.7127C-0.0652277 11.0056 -0.0652277 11.4805 0.227665 11.7733C0.520559 12.0662 0.995432 12.0662 1.28833 11.7733L0.227666 10.7127ZM6.001 6.00002L6.53133 5.46969C6.39067 5.32904 6.19991 5.25002 6.001 5.25002C5.80208 5.25002 5.61132 5.32904 5.47067 5.46969L6.001 6.00002ZM11.7743 1.2874C12.0672 0.994534 12.0672 0.519661 11.7744 0.22674C11.4815 -0.0661816 11.0066 -0.0662269 10.7137 0.226638L11.7743 1.2874ZM6 6.00002L5.46962 6.5303C5.61025 6.67096 5.80101 6.75 5.99992 6.75002C6.19884 6.75004 6.38961 6.67104 6.53028 6.5304L6 6.00002ZM1.28838 0.22674C0.995511 -0.0661816 0.520637 -0.0662269 0.227716 0.226638C-0.0652051 0.519504 -0.0652503 0.994377 0.227615 1.2873L1.28838 0.22674ZM10.7137 11.7733C11.0066 12.0662 11.4814 12.0662 11.7743 11.7733C12.0672 11.4805 12.0672 11.0056 11.7743 10.7127L10.7137 11.7733ZM1.28833 11.7733L6.53133 6.53035L5.47067 5.46969L0.227666 10.7127L1.28833 11.7733ZM10.7137 0.226638L5.46972 5.46964L6.53028 6.5304L11.7743 1.2874L10.7137 0.226638ZM6.53038 5.46974L1.28838 0.22674L0.227615 1.2873L5.46962 6.5303L6.53038 5.46974ZM5.47067 6.53035L10.7137 11.7733L11.7743 10.7127L6.53133 5.46969L5.47067 6.53035Z" fill="#222222"/>
                </symbol>
                <symbol id="menu-icon" viewBox="0 0 18 12">
                <path  d="M18 12H0V10H18V12ZM18 7H0V5H18V7ZM18 2H0V0H18V2Z" fill="#222222"/>
                </symbol>
            </defs>
  </svg>

            


    