<svg overflow="visible" class="hidden" height="0" width="0" xmlns="http://www.w3.org/2000/svg" preserveAspectRatio="xMidYMid meet" xmlns:xlink="http://www.w3.org/1999/xlink" xmlns:sketch="http://www.bohemiancoding.com/sketch/ns">
        
            <symbol id="search-icon" viewBox="0 0 25 26">
                    <path d="M24.6582 21.6162L19.79 16.748C19.5703 16.5283 19.2725 16.4062 18.96 16.4062H18.1641C19.5117 14.6826 20.3125 12.5146 20.3125 10.1562C20.3125 4.5459 15.7666 0 10.1562 0C4.5459 0 0 4.5459 0 10.1562C0 15.7666 4.5459 20.3125 10.1562 20.3125C12.5146 20.3125 14.6826 19.5117 16.4062 18.1641V18.96C16.4062 19.2725 16.5283 19.5703 16.748 19.79L21.6162 24.6582C22.0752 25.1172 22.8174 25.1172 23.2715 24.6582L24.6533 23.2764C25.1123 22.8174 25.1123 22.0752 24.6582 21.6162ZM10.1562 16.4062C6.7041 16.4062 3.90625 13.6133 3.90625 10.1562C3.90625 6.7041 6.69922 3.90625 10.1562 3.90625C13.6084 3.90625 16.4062 6.69922 16.4062 10.1562C16.4062 13.6084 13.6133 16.4062 10.1562 16.4062Z" fill="black"></path>
            </symbol>
            <symbol id="wind-icon" viewBox="0 0 27 20">
                    <path d="M27 8C27 5.79086 25.2046 4 23 4C20.7909 4 19 5.78941 19 8H21C21 6.89543 21.8877 6 23 6C24.1046 6 25 6.88773 25 8C25 9.10457 24.1102 10 22.9964 10H0V12H23.0015C25.2098 12 27 10.2046 27 8ZM18 4C18 1.79086 16.2046 0 14 0C11.7909 0 10 1.78941 10 3.9971V4H12C12 2.89543 12.8877 2 14 2C15.1046 2 16 2.88773 16 4C16 5.10457 15.1029 6 13.9941 6H2V8H14.0038C16.2108 8 18 6.20464 18 4ZM23 17C23 18.6569 21.6535 20 20 20C18.3431 20 17 18.6579 17 17.0086V17H19C19 17.5523 19.4439 18 20 18C20.5523 18 21 17.5561 21 17C21 16.4477 20.5511 16 19.9925 16H6V14H19.9999C21.6568 14 23 15.3465 23 17Z" fill="black"></path>
            </symbol>
            <symbol id="humidity-icon" viewBox="0 0 23 25">
                <path d="M6.27539 15.625C4.39072 15.625 2.85742 17.1583 2.85742 19.043C2.85742 20.9276 4.39072 22.4609 6.27539 22.4609C8.16006 22.4609 9.69336 20.9276 9.69336 19.043C9.69336 17.1583 8.16006 15.625 6.27539 15.625ZM6.27539 21.4844C4.9292 21.4844 3.83398 20.3892 3.83398 19.043C3.83398 17.6968 4.9292 16.6016 6.27539 16.6016C7.62158 16.6016 8.7168 17.6968 8.7168 19.043C8.7168 20.3892 7.62158 21.4844 6.27539 21.4844Z" fill="black"/>
                <path d="M11.2848 15.8183C10.7381 14.9709 9.98955 14.2785 9.10742 13.8012V2.83203C9.10742 1.27046 7.83696 0 6.27539 0C4.71382 0 3.44336 1.27046 3.44336 2.83203V13.8012C2.56123 14.2784 1.81265 14.9708 1.26597 15.8183C0.646045 16.7794 0.318359 17.8945 0.318359 19.043C0.318359 22.3277 2.99067 25 6.27539 25C9.56011 25 12.2324 22.3277 12.2324 19.043C12.2324 17.8945 11.9047 16.7794 11.2848 15.8183ZM6.27539 24.0234C3.52915 24.0234 1.29492 21.7892 1.29492 19.043C1.29492 17.1301 2.41216 15.3633 4.14116 14.5418C4.31143 14.4609 4.41992 14.2893 4.41992 14.1008V2.83203C4.41992 1.80894 5.2523 0.976562 6.27539 0.976562C7.29849 0.976562 8.13086 1.80894 8.13086 2.83203V14.1008C8.13086 14.2893 8.23936 14.4609 8.40962 14.5418C10.1386 15.3633 11.2559 17.1301 11.2559 19.043C11.2559 21.7892 9.02163 24.0234 6.27539 24.0234Z" fill="black"></path>
                <path d="M6.62056 2.24268C6.52979 2.15186 6.40381 2.09961 6.27539 2.09961C6.14697 2.09961 6.021 2.15186 5.93018 2.24268C5.83935 2.3335 5.78711 2.45947 5.78711 2.58789C5.78711 2.71631 5.83931 2.84229 5.93018 2.93311C6.02104 3.02393 6.14697 3.07617 6.27539 3.07617C6.40381 3.07617 6.52979 3.02393 6.62056 2.93311C6.71143 2.84229 6.76367 2.71631 6.76367 2.58789C6.76367 2.45947 6.71143 2.3335 6.62056 2.24268Z" fill="black"></path>
                <path d="M6.27539 4.21548C6.00576 4.21548 5.78711 4.43408 5.78711 4.70376V13.8553C5.78711 14.1249 6.00576 14.3436 6.27539 14.3436C6.54502 14.3436 6.76367 14.1249 6.76367 13.8553V4.70376C6.76367 4.43408 6.54502 4.21548 6.27539 4.21548Z" fill="black"></path>
                <path d="M11.3861 1.95312H10.5072C10.2375 1.95312 10.0189 2.17173 10.0189 2.44141C10.0189 2.71108 10.2375 2.92969 10.5072 2.92969H11.3861C11.6557 2.92969 11.8744 2.71108 11.8744 2.44141C11.8744 2.17173 11.6557 1.95312 11.3861 1.95312Z" fill="black"></path>
                <path d="M11.3861 5.07588H10.5072C10.2375 5.07588 10.0189 5.29448 10.0189 5.56416C10.0189 5.83384 10.2375 6.05244 10.5072 6.05244H11.3861C11.6557 6.05244 11.8744 5.83384 11.8744 5.56416C11.8744 5.29448 11.6557 5.07588 11.3861 5.07588Z" fill="black"></path>
                <path d="M11.3861 8.19858H10.5072C10.2375 8.19858 10.0189 8.41719 10.0189 8.68686C10.0189 8.95654 10.2375 9.17515 10.5072 9.17515H11.3861C11.6557 9.17515 11.8744 8.95654 11.8744 8.68686C11.8744 8.41719 11.6557 8.19858 11.3861 8.19858Z" fill="black"></path>
                <path d="M11.3861 11.3213H10.5072C10.2375 11.3213 10.0189 11.5399 10.0189 11.8096C10.0189 12.0793 10.2375 12.2979 10.5072 12.2979H11.3861C11.6557 12.2979 11.8744 12.0793 11.8744 11.8096C11.8744 11.5399 11.6557 11.3213 11.3861 11.3213Z" fill="black"/>
                <path d="M2.0436 1.95312H1.1647C0.895068 1.95312 0.676416 2.17173 0.676416 2.44141C0.676416 2.71108 0.895068 2.92969 1.1647 2.92969H2.0436C2.31323 2.92969 2.53188 2.71108 2.53188 2.44141C2.53188 2.17173 2.31323 1.95312 2.0436 1.95312Z" fill="black"/>
                <path d="M2.0436 5.07588H1.1647C0.895068 5.07588 0.676416 5.29448 0.676416 5.56416C0.676416 5.83384 0.895068 6.05244 1.1647 6.05244H2.0436C2.31323 6.05244 2.53188 5.83384 2.53188 5.56416C2.53188 5.29448 2.31323 5.07588 2.0436 5.07588Z" fill="black"/>
                <path d="M2.0436 8.19858H1.1647C0.895068 8.19858 0.676416 8.41719 0.676416 8.68686C0.676416 8.95654 0.895068 9.17515 1.1647 9.17515H2.0436C2.31323 9.17515 2.53188 8.95654 2.53188 8.68686C2.53188 8.41719 2.31323 8.19858 2.0436 8.19858Z" fill="black"/>
                <path d="M2.0436 11.3213H1.1647C0.895068 11.3213 0.676416 11.5399 0.676416 11.8096C0.676416 12.0793 0.895068 12.2979 1.1647 12.2979H2.0436C2.31323 12.2979 2.53188 12.0793 2.53188 11.8096C2.53188 11.5399 2.31323 11.3213 2.0436 11.3213Z" fill="black"/>
                <path d="M19.8828 14.9868C19.7919 14.896 19.666 14.8438 19.5376 14.8438C19.4092 14.8438 19.2832 14.8959 19.1924 14.9868C19.1011 15.0776 19.0493 15.2036 19.0493 15.332C19.0493 15.4604 19.1011 15.5864 19.1924 15.6772C19.2832 15.768 19.4092 15.8203 19.5376 15.8203C19.666 15.8203 19.792 15.7681 19.8828 15.6772C19.9736 15.5864 20.0259 15.4604 20.0259 15.332C20.0259 15.2036 19.9737 15.0776 19.8828 14.9868Z" fill="black"/>
                <path d="M20.6309 5.7617H20.0258V1.48396C20.0258 0.676245 19.3687 0.0191162 18.5609 0.0191162C17.7532 0.0191162 17.0961 0.676245 17.0961 1.48396V5.7617H16.5293C15.3985 5.7617 14.4785 6.68167 14.4785 7.81248C14.4785 8.94329 15.3985 9.86326 16.5293 9.86326H17.0961V23.5351C17.0961 24.3429 17.7532 25 18.5609 25C19.3687 25 20.0258 24.3429 20.0258 23.5351V17.4316C20.0258 17.162 19.8071 16.9433 19.5375 16.9433C19.2679 16.9433 19.0492 17.162 19.0492 17.4316V23.5351C19.0492 23.8044 18.8302 24.0234 18.5609 24.0234C18.2917 24.0234 18.0727 23.8044 18.0727 23.5351V9.86326H19.0492V13.4277C19.0492 13.6973 19.2679 13.916 19.5375 13.916C19.8071 13.916 20.0258 13.6973 20.0258 13.4277V9.86326H20.6309C21.7617 9.86326 22.6816 8.94329 22.6816 7.81248C22.6816 6.68167 21.7617 5.7617 20.6309 5.7617ZM18.0727 1.48396C18.0727 1.21472 18.2917 0.995679 18.5609 0.995679C18.8302 0.995679 19.0492 1.21472 19.0492 1.48396V5.7617H18.0727V1.48396ZM20.6309 8.8867H16.5293C15.937 8.8867 15.4551 8.40481 15.4551 7.81248C15.4551 7.22014 15.937 6.73826 16.5293 6.73826H20.6309C21.2232 6.73826 21.7051 7.22014 21.7051 7.81248C21.7051 8.40481 21.2232 8.8867 20.6309 8.8867Z" fill="black"/>
            </symbol>
            <symbol id="clouds-icon" viewBox="0 0 32 32">
                    <g  sketch:type="MSArtboardGroup" fill="#000000">
                        <path d="M8.26756436,24 L7.50643854,24 C6.67445551,24 6,24.6657972 6,25.5 C6,26.3284271 6.67154063,27 7.50643854,27 L15.4935615,27 C16.3255445,27 17,26.3342028 17,25.5 C17,24.6715729 16.3284594,24 15.4935615,24 L15,24 C15,22.8954304 14.1045696,22 13,22 C12.5883412,22 12.2057309,22.1243714 11.8876948,22.3375886 C11.6143423,21.5585717 10.8724019,21 10,21 C8.89543045,21 8,21.8954304 8,23 C8,23.3642872 8.09739427,23.7058266 8.26756436,24 L8.26756436,24 Z M15.8374098,23.0232669 C16.5163497,23.1159187 17.1077243,23.4790354 17.4996415,24 L24.9971835,24 C27.207878,24 29,22.2046438 29,20 C29,18.1225574 27.70144,16.5472159 25.9581226,16.1164746 L25.9581226,16.1164746 C25.9857342,15.9149284 26,15.7091302 26,15.5 C26,13.0147185 23.9852815,11 21.5,11 C20.2744589,11 19.1633432,11.489913 18.3518132,12.2845787 C17.3608691,10.3354059 15.336385,9 13,9 C9.68629134,9 7,11.6862913 7,15 C7,15.3764904 7.03467626,15.7448817 7.10100919,16.1021544 L7.10100919,16.1021544 C5.32460991,16.5117359 4,18.1046097 4,20 C4,21.4903318 4.81826628,22.7902996 6.02772155,23.4784802 L6.02772155,23.4784802 C6.3123039,23.2715905 6.64245106,23.1232597 7.00041797,23.0505909 C7.00013969,23.0337606 7,23.0168966 7,23 C7,21.3431457 8.34314567,20 10,20 C10.9268437,20 11.7555192,20.4203078 12.3058217,21.0807187 C12.5286313,21.0279355 12.7610533,21 13,21 C14.3148969,21 15.4322146,21.8459367 15.8374098,23.0232669 L15.8374098,23.0232669 L15.8374098,23.0232669 Z M5.34060548,24.2366682 C3.93316155,23.3520966 3,21.785321 3,20 C3,17.9491311 4.23965876,16.1816085 6.01189661,15.4115388 C6.00400207,15.275367 6,15.1381509 6,15 C6,11.1340066 9.13400656,8 13,8 C14.2883861,8 15.4954754,8.3480725 16.5323619,8.95531146 C16.8919502,8.49823548 17.4080996,8.17083407 18.000418,8.05059087 L18.000418,8.05059087 C18.0001397,8.0337606 18,8.01689661 18,8 C18,6.34314567 19.3431457,5 21,5 C21.9268437,5 22.7555192,5.42030784 23.3058217,6.08071872 C23.5286313,6.02793551 23.7610533,6 24,6 C25.3148969,6 26.4322146,6.84593672 26.8374098,8.02326686 L26.8374098,8.02326686 C28.0608812,8.19022851 29,9.2354757 29,10.5 C29,11.8903379 27.877788,13 26.4934692,13 L26.4002905,13 L26.4002905,13 C26.7715647,13.726287 26.9861178,14.545997 26.9993494,15.4145295 C28.7676457,16.1852931 30,17.9483386 30,20 C30,22.7558048 27.7616745,25 25.0005601,25 L17.9499649,25 C17.9827797,25.161555 18,25.3287671 18,25.5 C18,26.8903379 16.877788,28 15.4934692,28 L7.50653076,28 C6.11962422,28 5,26.8807119 5,25.5 C5,25.0376982 5.12407529,24.6064289 5.34060548,24.2366682 L5.34060548,24.2366682 L5.34060548,24.2366682 Z M25.742838,12 L26.4935615,12 C27.3255445,12 28,11.3342028 28,10.5 C28,9.67157288 27.3284594,9 26.4935615,9 L26,9 C26,7.89543045 25.1045696,7 24,7 C23.5883412,7 23.2057309,7.12437139 22.8876948,7.33758857 C22.6143423,6.55857166 21.8724019,6 21,6 C19.8954304,6 19,6.89543045 19,8 C19,8.36428715 19.0973943,8.70582664 19.2675644,9 L19.2675644,9 L18.5064385,9 C18.047734,9 17.6369137,9.20238541 17.3606114,9.52379686 L17.3606114,9.52379686 C17.8315673,9.89930719 18.2530004,10.3342981 18.6135384,10.8173973 C19.4525719,10.299097 20.441357,10 21.5,10 C23.2079371,10 24.7340464,10.7784966 25.742838,12 L25.742838,12 L25.742838,12 Z"></path>
                    </g>
            </symbol>
  </svg>

            


    