<svg xmlns="http://www.w3.org/2000/svg" viewBox="0 0 750 500"><g id="freepik--background-complete--inject-90"><path d="M436.65,310.81c0,.72-29.17,1.3-65.15,1.3s-65.15-.58-65.15-1.3,29.16-1.3,65.15-1.3S436.65,310.09,436.65,310.81Z" style="fill:#ebebeb"></path><path d="M524.12,300.35c0,.72-64.16,1.3-143.29,1.3s-143.31-.58-143.31-1.3,64.15-1.3,143.31-1.3S524.12,299.63,524.12,300.35Z" style="fill:#ebebeb"></path><path d="M439.25,214.25c-.61-3.15,1.81-6.24,4.73-7.58s6.23-1.36,9.44-1.54,6.58-.58,9.16-2.48,4.14-5.25,7-6.85c3.84-2.15,8.61-.52,13-.8,5-.32,9.52-3.19,14-5.46a30.66,30.66,0,0,1,5.9-2.32,161.13,161.13,0,0,0-244.36-23.28,5.82,5.82,0,0,1,.67.22c3.92,1.65,5.52,6.83,9.53,8.23,1.86.65,3.89.35,5.84.51,4.11.33,9.56,3.51,9,7.38l-40.05.39A160.6,160.6,0,0,0,216,233.52a12.83,12.83,0,0,0,1.53-.94c3.22-2.38,5.05-6.41,8.55-8.36,4.69-2.62,10.52-.63,15.88-1,6.17-.4,11.63-3.9,17.15-6.67s12.07-4.92,17.77-2.52c7.62,3.21,10.73,13.3,18.54,16,3.6,1.25,7.55.67,11.36,1,8,.64,18.58,6.83,17.55,14.35l-111.62,1.1a161.79,161.79,0,0,0-3.39,33H531.59a160.52,160.52,0,0,0-14.12-66Z" style="fill:#ebebeb"></path><path d="M572.12,116.66c.55-4.28-5.14-7.8-9.41-8.17-2-.17-4.16.16-6.09-.55-4.19-1.55-5.86-7.29-9.94-9.11-3.06-1.37-6.57-.15-9.53,1.43s-5.89,3.56-9.19,3.79c-2.88.19-6-.94-8.52.55-1.88,1.11-2.86,3.41-4.59,4.76s-3.89,1.6-6,1.72-4.27.15-6.18,1.08-3.49,3.07-3.1,5.26Z" style="fill:#f5f5f5"></path><path d="M367.74,96.88c.91-7-8.44-12.82-15.47-13.42-3.35-.28-6.83.26-10-.91-6.88-2.55-9.63-12-16.34-15-5-2.25-10.8-.25-15.66,2.35s-9.68,5.87-15.11,6.24c-4.73.32-9.87-1.54-14,.91-3.09,1.82-4.7,5.59-7.54,7.82s-6.41,2.63-9.86,2.83-7,.24-10.16,1.76-5.74,5-5.08,8.65Z" style="fill:#ebebeb"></path><path d="M400.49,59.38c0,.06-.67-.17-1.87-.41a15.12,15.12,0,0,0-5.14-.14,13.85,13.85,0,0,0-6.87,3,14.36,14.36,0,0,0-4.84,7.71l0,.09-.3,1.14L381,69.7a15.44,15.44,0,0,0-5.8-7,15.06,15.06,0,0,0-7.1-2.41,19.49,19.49,0,0,0-7,.89,5.62,5.62,0,0,1,1.77-.77,14.93,14.93,0,0,1,5.22-.66,15.14,15.14,0,0,1,7.45,2.36,15.76,15.76,0,0,1,6.14,7.34l-.73.06,0-.09a14.75,14.75,0,0,1,5.14-8.09,14.3,14.3,0,0,1,12.53-2.62A6,6,0,0,1,400.49,59.38Z" style="fill:#e0e0e0"></path><path d="M481,69.23A19.13,19.13,0,0,1,479.48,71a37.22,37.22,0,0,0-3.65,5,36.25,36.25,0,0,0-5.44,19.29v.24l-.67.06a32.44,32.44,0,0,0-8.88-17.7,45.2,45.2,0,0,0-6.48-5.26,2.18,2.18,0,0,1,.53.25c.33.19.85.43,1.45.83a29.45,29.45,0,0,1,4.84,3.84,32,32,0,0,1,9.21,17.94l-.67,0v-.24a35.48,35.48,0,0,1,5.7-19.55,32.61,32.61,0,0,1,3.87-4.89c.5-.54.94-.91,1.22-1.17S481,69.21,481,69.23Z" style="fill:#e0e0e0"></path><path d="M56.22,349.51s-7.11,2.88,1.09,18S71.11,390,71.11,390s1.48,3.51-1.49,4.14-9.59-.25-10.83,3.45,1.57,7.33,7.24,10.33,17.85,10,19,10.65,2.18,2.25.22,3-16.72,2.68-15.39,9.63,18.5,12.7,20.37,13.37,2.32,1.43,2.2,2.45-5.15,1.2-9.33,1.92-8.89,2.29-7.79,6.23,11.4,12,35.92,13.8l11.42.07,6-9.79c11.48-21.75,10-34.76,7.29-37.78s-6.59.15-9.41,3.31-5.63,7.33-6.56,6.9-1.34-1.23-.92-3.16,4.62-19.55-.57-24.36-14.64,6.71-16.32,8-2.47-.54-2.43-1.78.52-15.32,1-21.72-1-10.67-4.94-11.6-6.54,5.17-8.65,7.36-4.31-.92-4.31-.92-3.34-8.69-11.82-23.63-14.81-10.29-14.81-10.29" style="fill:#ebebeb"></path><path d="M123.26,471.74c-6.18-11-16.84-30.74-26.08-47.63S79.57,391.93,73.45,380.9c-3.07-5.5-5.55-10-7.27-13.06l-2-3.55c-.22-.4-.39-.7-.51-.93l-.16-.32s.07.1.19.31l.54.91,2,3.52c1.76,3.05,4.28,7.5,7.37,13,6.18,11,14.59,26.27,23.82,43.16s19.86,36.65,26,47.68" style="fill:#e0e0e0"></path><path d="M68,399.21a3.28,3.28,0,0,1,.8.2c.51.15,1.24.39,2.14.69,1.8.6,4.26,1.51,7,2.55l6.89,2.7,2.1.8a3.16,3.16,0,0,1,.75.33,4.2,4.2,0,0,1-.8-.2c-.51-.15-1.24-.39-2.14-.7C82.9,405,80.45,404,77.76,403l-6.91-2.65-2.1-.79A3.72,3.72,0,0,1,68,399.21Z" style="fill:#e0e0e0"></path><path d="M88.39,405.73c-.09,0,1.55-5.19,3.66-11.52s3.89-11.43,4-11.4-1.55,5.19-3.66,11.52S88.49,405.76,88.39,405.73Z" style="fill:#e0e0e0"></path><path d="M101.41,432.31a4.19,4.19,0,0,1,.44-.72l1.31-1.88c1.09-1.59,2.6-3.8,4.18-6.29s2.93-4.79,3.89-6.47l1.15-2a4,4,0,0,1,.45-.71,4.42,4.42,0,0,1-.33.77c-.24.49-.59,1.19-1,2-.91,1.71-2.23,4-3.82,6.54s-3.12,4.69-4.27,6.25c-.58.77-1,1.4-1.4,1.82A3.7,3.7,0,0,1,101.41,432.31Z" style="fill:#e0e0e0"></path><path d="M81.65,430.48a2.82,2.82,0,0,1,.78,0l2.12.11c1.78.11,4.25.29,7,.51s5.18.43,7,.61l2.1.22a3.59,3.59,0,0,1,.77.13,2.78,2.78,0,0,1-.78,0L98.46,432c-1.79-.11-4.25-.29-7-.51s-5.18-.43-7-.61l-2.11-.22A3.77,3.77,0,0,1,81.65,430.48Z" style="fill:#e0e0e0"></path><path d="M90.16,455.4a6.43,6.43,0,0,1,1,0l2.71.14c2.29.13,5.45.33,8.94.58s6.64.48,8.93.68l2.7.24a6.4,6.4,0,0,1,1,.14,4.33,4.33,0,0,1-1,0l-2.71-.13c-2.29-.13-5.45-.33-8.94-.58s-6.64-.49-8.93-.68l-2.7-.25A4.31,4.31,0,0,1,90.16,455.4Z" style="fill:#e0e0e0"></path><path d="M114.83,457a7,7,0,0,1,.55-.92l1.56-2.45c1.32-2.07,3.13-4.93,5-8.15s3.57-6.17,4.76-8.32l1.4-2.54a7.69,7.69,0,0,1,.55-.92,5.41,5.41,0,0,1-.42,1c-.3.62-.75,1.51-1.31,2.6-1.13,2.18-2.76,5.16-4.68,8.38s-3.76,6.07-5.14,8.11c-.69,1-1.26,1.83-1.66,2.39A6.27,6.27,0,0,1,114.83,457Z" style="fill:#e0e0e0"></path><path d="M621.1,467.78c-13.32-11.62-14.58-30.66-12.2-47.39.4-2.79.41-5.78,2-8.1s4.89-3.66,7.28-2.21c2,1.21,2.62,3.73,3.57,5.85a16.43,16.43,0,0,0,5.89,7c1.69,1.12,3.84,1.93,5.7,1.14,2.57-1.07,3.21-4.38,3.5-7.17q.78-7.8,1.58-15.6a26.1,26.1,0,0,1,1.73-8.19c1.15-2.55,3.34-4.8,6.07-5.26s5.85,1.42,6.11,4.21a27.22,27.22,0,0,1-.29,3.48,3,3,0,0,0,1.41,3c1.08.45,2.28-.22,3.2-1,3.19-2.51,5.53-5.92,7.74-9.33s4.39-6.91,7.33-9.7,6.82-4.84,10.83-4.63,8,3.13,8.6,7.15-2.14,7.79-5,10.7a62.56,62.56,0,0,1-14.29,10.95,5.24,5.24,0,0,0-2.42,2.1c-.8,1.8.76,3.83,2.53,4.64,2,.92,4.28.94,6.43,1.43s4.4,1.71,5,3.85c.83,3-1.87,5.7-4.43,7.41a53.68,53.68,0,0,1-16.76,7.41c-2.13.52-4.36.95-6.17,2.21s-3.08,3.66-2.29,5.74,3.28,3,5.48,2.81,4.24-1.13,6.37-1.68c4-1,8.9-.24,11,3.34a8.85,8.85,0,0,1,.1,7.9,20.48,20.48,0,0,1-5,6.44,53.89,53.89,0,0,1-24.63,13.62c-9.22,2.12-17.54,2.07-26-2.11" style="fill:#ebebeb"></path><path d="M626.57,457.72a250.94,250.94,0,0,1,12.82-25.83l3.71-6.6c1.22-2.16,2.43-4.31,3.74-6.33a126.76,126.76,0,0,1,8.22-11.2c2.79-3.44,5.56-6.6,8.17-9.54s5.11-5.61,7.49-8a100,100,0,0,1,12-10.25c1.51-1.1,2.71-1.91,3.53-2.45l.93-.6a1.23,1.23,0,0,1,.33-.19l-.3.23-.91.65c-.8.57-2,1.4-3.47,2.52A105.62,105.62,0,0,0,671,390.52c-2.36,2.36-4.83,5.05-7.43,8s-5.35,6.11-8.12,9.55a126.3,126.3,0,0,0-8.16,11.17c-1.31,2-2.51,4.15-3.73,6.32s-2.45,4.36-3.7,6.59A257.64,257.64,0,0,0,627,457.9" style="fill:#e0e0e0"></path><path d="M647,419a6.43,6.43,0,0,1-.14-1.22c-.07-.78-.12-1.92-.17-3.33-.09-2.82-.09-6.72-.07-11s0-8.19-.17-11c-.07-1.4-.13-2.54-.19-3.32a5,5,0,0,1,0-1.23,6,6,0,0,1,.22,1.2c.12.78.24,1.92.35,3.33.23,2.81.34,6.71.32,11s0,8.08-.07,11v3.34A4.93,4.93,0,0,1,647,419Z" style="fill:#e0e0e0"></path><path d="M683.56,416.12a8.13,8.13,0,0,1-1.45,0c-.92,0-2.27-.05-3.93,0-3.32,0-7.91.16-13,.56s-9.62,1-12.9,1.48c-1.65.24-3,.47-3.89.62A6.86,6.86,0,0,1,647,419a8.89,8.89,0,0,1,1.4-.39c.91-.21,2.23-.5,3.87-.79,3.28-.6,7.85-1.22,12.92-1.63a125.72,125.72,0,0,1,13-.41c1.66,0,3,.12,3.94.2A7.5,7.5,0,0,1,683.56,416.12Z" style="fill:#e0e0e0"></path><path d="M627.08,457.1a2.08,2.08,0,0,1-.19-.46l-.48-1.36c-.4-1.19-.95-2.92-1.59-5.06-1.28-4.3-2.88-10.28-4.54-16.91s-3.2-12.63-4.4-16.94l-1.43-5.11c-.15-.55-.28-1-.38-1.39a1.85,1.85,0,0,1-.1-.49,1.77,1.77,0,0,1,.2.46l.47,1.36c.41,1.19,1,2.92,1.59,5.06,1.29,4.3,2.88,10.28,4.55,16.92s3.2,12.62,4.39,16.93l1.43,5.11c.16.55.28,1,.38,1.39A1.44,1.44,0,0,1,627.08,457.1Z" style="fill:#e0e0e0"></path><path d="M676.37,446.89a2.46,2.46,0,0,1-.49.14l-1.43.31-5.28,1.11c-4.46.93-10.6,2.29-17.39,3.8s-12.94,2.81-17.42,3.66c-2.24.42-4.05.74-5.31.94l-1.45.21a1.58,1.58,0,0,1-.52,0,3.19,3.19,0,0,1,.5-.14l1.43-.31,5.28-1.11c4.46-.93,10.6-2.29,17.39-3.8s12.94-2.81,17.42-3.65c2.24-.43,4-.75,5.31-.94l1.45-.22A1.52,1.52,0,0,1,676.37,446.89Z" style="fill:#e0e0e0"></path></g><g id="freepik--Birds--inject-90"><path d="M417.16,195.72c0,.08-1.33-.46-3.8-1a30.16,30.16,0,0,0-10.59-.41,28.49,28.49,0,0,0-14.28,6.16,29.58,29.58,0,0,0-10.08,16l0,.17-.3,1.15-.44-1.09a31.82,31.82,0,0,0-12.06-14.57,31,31,0,0,0-14.74-4.91,32.39,32.39,0,0,0-10.52,1c-2.43.64-3.72,1.2-3.75,1.13a4.44,4.44,0,0,1,.92-.44,21.45,21.45,0,0,1,2.75-1A31.44,31.44,0,0,1,366,201.54a32.24,32.24,0,0,1,12.4,14.87l-.73.06,0-.18A30.18,30.18,0,0,1,388,199.91a28.79,28.79,0,0,1,14.66-6.14,29.2,29.2,0,0,1,10.73.65,22.93,22.93,0,0,1,2.79.89A5.88,5.88,0,0,1,417.16,195.72Z" style="fill:#263238"></path><path d="M509.37,133.58c0,.06-.75-.21-2.1-.49a16.77,16.77,0,0,0-5.8-.17,15.64,15.64,0,0,0-7.77,3.39,16.18,16.18,0,0,0-5.47,8.71l0,.1-.29,1.14-.44-1.08a17.41,17.41,0,0,0-6.56-8,16.94,16.94,0,0,0-8-2.71,18.36,18.36,0,0,0-5.76.47c-1.34.34-2.05.62-2.08.56a1.61,1.61,0,0,1,.49-.27,10.74,10.74,0,0,1,1.51-.57,16.67,16.67,0,0,1,5.88-.73,16.88,16.88,0,0,1,8.37,2.66,17.83,17.83,0,0,1,6.9,8.25l-.74.06,0-.1a16.66,16.66,0,0,1,5.78-9.09,16.07,16.07,0,0,1,14.08-3,10.72,10.72,0,0,1,1.53.51C509.21,133.46,509.38,133.55,509.37,133.58Z" style="fill:#263238"></path><path d="M441.94,119.28a30.77,30.77,0,0,1-2,2.31,50.43,50.43,0,0,0-5,6.72,49,49,0,0,0-7.38,26.12v.33l-.77.06A43,43,0,0,0,422,140.67a44.74,44.74,0,0,0-13.57-15.17c-1.61-1.11-2.54-1.67-2.51-1.73a3.76,3.76,0,0,1,.72.34c.44.26,1.14.59,1.95,1.15a38.81,38.81,0,0,1,6.53,5.21,43.21,43.21,0,0,1,12.42,24.24l-.76.06v-.33A48.16,48.16,0,0,1,434.47,128a43.78,43.78,0,0,1,5.21-6.62c.67-.73,1.27-1.23,1.64-1.6A3.25,3.25,0,0,1,441.94,119.28Z" style="fill:#263238"></path></g><g id="freepik--Plant--inject-90"><path d="M165.53,455.37c-9-6.82-18.48-18.18-21.06-29.8a59.12,59.12,0,0,1,21.06,29.8" style="fill:#FF725E"></path><path d="M167.45,438.84c-9-6.82-18.48-18.17-21.06-29.79a59.09,59.09,0,0,1,21.06,29.79" style="fill:#FF725E"></path><path d="M168.49,422.56c-9-6.82-18.49-18.17-21.07-29.79a59,59,0,0,1,21.07,29.79" style="fill:#FF725E"></path><path d="M169,405.36c-8.06-8-16.11-20.66-17.28-32.58A61,61,0,0,1,169,405.36" style="fill:#FF725E"></path><path d="M168.23,391.92c-4.61-10.8-7.64-25.89-4.6-37.53a65.48,65.48,0,0,1,4.6,37.53" style="fill:#FF725E"></path><path d="M168.66,398.33c4.51-11.87,13.17-26,23.57-33.16a77,77,0,0,1-23.57,33.16" style="fill:#FF725E"></path><path d="M168.52,412.53c5.66-12,15.84-26,27.26-32.51a80,80,0,0,1-27.26,32.51" style="fill:#FF725E"></path><path d="M168.11,429.79c5.67-12,15.85-26,27.26-32.51a80,80,0,0,1-27.26,32.51" style="fill:#FF725E"></path><path d="M166,450.58c5.66-12,15.84-26,27.25-32.51A80.09,80.09,0,0,1,166,450.58" style="fill:#FF725E"></path><path d="M168.37,389.41a.58.58,0,0,1,0,.21c0,.16,0,.36,0,.61,0,.57.08,1.36.15,2.36.12,2,.24,5,.32,8.68s.12,8,.05,12.89-.28,10.18-.62,15.77-.85,10.9-1.37,15.73-1.1,9.15-1.65,12.78-1,6.55-1.42,8.57c-.18,1-.33,1.76-.43,2.32,0,.25-.09.45-.13.6s0,.21,0,.21a.84.84,0,0,1,0-.21c0-.16.05-.36.09-.61q.12-.85.36-2.34c.33-2,.77-5,1.28-8.58s1.05-8,1.57-12.78,1-10.13,1.33-15.72.55-10.9.65-15.75.1-9.21,0-12.88-.13-6.63-.2-8.68c0-1-.05-1.79-.07-2.36v-.61A1.66,1.66,0,0,1,168.37,389.41Z" style="fill:#263238"></path><g style="opacity:0.5"><path d="M165.53,455.37c-9-6.82-18.48-18.18-21.06-29.8a59.12,59.12,0,0,1,21.06,29.8"></path><path d="M167.45,438.84c-9-6.82-18.48-18.17-21.06-29.79a59.09,59.09,0,0,1,21.06,29.79"></path><path d="M168.49,422.56c-9-6.82-18.49-18.17-21.07-29.79a59,59,0,0,1,21.07,29.79"></path><path d="M169,405.36c-8.06-8-16.11-20.66-17.28-32.58A61,61,0,0,1,169,405.36"></path><path d="M168.23,391.92c-4.61-10.8-7.64-25.89-4.6-37.53a65.48,65.48,0,0,1,4.6,37.53"></path><path d="M168.66,398.33c4.51-11.87,13.17-26,23.57-33.16a77,77,0,0,1-23.57,33.16"></path><path d="M168.52,412.53c5.66-12,15.84-26,27.26-32.51a80,80,0,0,1-27.26,32.51"></path><path d="M168.11,429.79c5.67-12,15.85-26,27.26-32.51a80,80,0,0,1-27.26,32.51"></path><path d="M166,450.58c5.66-12,15.84-26,27.25-32.51A80.09,80.09,0,0,1,166,450.58"></path></g><path d="M167.45,460.65c-1.79-10.56-1.3-24.55,3.79-34.13a60.11,60.11,0,0,1-3.79,34.13" style="fill:#FF725E"></path><path d="M178.26,450.72c-1.79-10.56-1.29-24.55,3.79-34.14a60,60,0,0,1-3.79,34.14" style="fill:#FF725E"></path><path d="M188.37,440.36c-1.79-10.56-1.29-24.55,3.79-34.13a59.92,59.92,0,0,1-3.79,34.13" style="fill:#FF725E"></path><path d="M198.66,429c-.5-10.78,1.67-24.66,7.83-33.51A60.42,60.42,0,0,1,198.66,429" style="fill:#FF725E"></path><path d="M206,419.42c3.31-10.37,10.13-22.61,18.83-28.48A59,59,0,0,1,206,419.42" style="fill:#FF725E"></path><path d="M202.54,424.05c9.77-5.07,23.54-8.94,34.33-6.89a60.28,60.28,0,0,1-34.33,6.89" style="fill:#FF725E"></path><path d="M194.21,433.59c10.58-4.38,25.23-7.15,36.32-4a62.77,62.77,0,0,1-36.32,4" style="fill:#FF725E"></path><path d="M183.94,445c10.57-4.38,25.22-7.15,36.31-4a62.82,62.82,0,0,1-36.31,4" style="fill:#FF725E"></path><path d="M170.54,457.73c10.58-4.38,25.23-7.15,36.32-4a62.85,62.85,0,0,1-36.32,4" style="fill:#FF725E"></path><path d="M207.53,417.81s0,.06-.1.16l-.32.44-1.25,1.68c-1.1,1.45-2.73,3.52-4.78,6.05-4.1,5.05-10,11.86-16.92,19-3.47,3.56-6.87,6.86-10,9.8s-6.05,5.5-8.53,7.61-4.51,3.8-5.94,4.92l-1.64,1.3-.44.33-.15.1.13-.13.41-.36,1.59-1.36c1.4-1.16,3.4-2.87,5.85-5s5.32-4.74,8.46-7.68,6.51-6.25,10-9.8c6.92-7.11,12.83-13.88,17-18.88,2.08-2.5,3.74-4.54,4.87-6l1.32-1.63c.14-.17.26-.3.35-.42Z" style="fill:#263238"></path></g><g id="freepik--Sea--inject-90"><path d="M559.24,280.09c0,.14-85.16.26-190.19.26s-190.2-.12-190.2-.26,85.14-.26,190.2-.26S559.24,280,559.24,280.09Z" style="fill:#263238"></path><path d="M420.87,304.7c0,.15-19.54.26-43.65.26s-43.66-.11-43.66-.26,19.55-.26,43.66-.26S420.87,304.56,420.87,304.7Z" style="fill:#263238"></path><path d="M392.84,314.32c0,.14-6.1.26-13.62.26s-13.62-.12-13.62-.26,6.1-.26,13.62-.26S392.84,314.17,392.84,314.32Z" style="fill:#263238"></path><path d="M384.83,327.13a89.31,89.31,0,0,1-13.62,0,89.31,89.31,0,0,1,13.62,0Z" style="fill:#263238"></path></g><g id="freepik--Drink--inject-90"><rect x="527.39" y="433.2" width="13.24" height="35.88" style="fill:#f5f5f5"></rect><polygon points="531.44 449.56 529.45 431.41 522.48 425.01 523.75 423.51 531.44 430.2 533.81 449.56 531.44 449.56" style="fill:#FF725E"></polygon><polygon points="531.44 449.56 529.45 431.41 522.48 425.01 523.75 423.51 531.44 430.2 533.81 449.56 531.44 449.56" style="fill:#fff;opacity:0.30000000000000004"></polygon><path d="M540.64,469.08a3.78,3.78,0,0,1,0-.72c0-.5,0-1.17,0-2,0-1.8,0-4.34-.07-7.51,0-6.39-.07-15.32-.12-25.63l.26.25H527.4l.25-.25h0v10.33c0,3.34,0,6.55,0,9.6,0,6.07,0,11.48-.06,15.93l-.18-.17,9.67.09,2.63.05.7,0h.25s-.07,0-.22,0l-.66,0-2.6,0-9.77.1h-.17v-.18c0-4.45,0-9.86-.06-15.93,0-3,0-6.26,0-9.6v-5.09c0-.87,0-1.74,0-2.61v-2.63h0l.27-.27h13.49v.25c0,10.38-.09,19.36-.12,25.8,0,3.15,0,5.67-.07,7.45,0,.83,0,1.48,0,2A5.08,5.08,0,0,1,540.64,469.08Z" style="fill:#263238"></path><path d="M528.52,450.44a4.8,4.8,0,0,1,4.51-1.7c2.7.61,2.82,2.46,5.21,2.4h1.39V466a1.4,1.4,0,0,1-1.39,1.4h-8.33a1.4,1.4,0,0,1-1.39-1.4Z" style="fill:#FF725E"></path></g><g id="freepik--Floor--inject-90"><path d="M713.17,469.79c0,.14-151.42.26-338.15.26s-338.19-.12-338.19-.26,151.38-.26,338.19-.26S713.17,469.64,713.17,469.79Z" style="fill:#263238"></path></g><g id="freepik--Character--inject-90"><path d="M512.65,307.53a46.85,46.85,0,0,0-5.17,2.09l5.75-7.16c1.29-1.6,3.15-4.11,2.52-5s-3.2,2.18-4.53,3.25-3.19,2.62-3.19,2.62,5-6.44,5.81-8.56c.63-1.54-1.41-2.08-2.46-.49,0,0,.35-2-1.14-1.34s-6.28,7.13-6.66,6.73,3.2-5.85,2.8-6.81c-.23-.55-1.1-.36-2.08,1S496,305.35,495.37,307a5.65,5.65,0,0,0-.35,1.13h0s-25.47,18.59-29.48,25.77c-3.47,6.21-8.77,51.76-8.77,51.76l17.26,7.8,4.7-53.33L502.59,316a4.37,4.37,0,0,0,1.44-.26c1.89-.75,11.55-7.44,11.55-7.44S515,306.89,512.65,307.53Z" style="fill:#ffbe9d"></path><path d="M500.74,305.66a3.07,3.07,0,0,1,.64,1.24,8.47,8.47,0,0,1,.46,3.38l-.28-.21.13-.05a9.91,9.91,0,0,1,3.46-.53,3.39,3.39,0,0,1,1.43.23,17.22,17.22,0,0,0-4.75.7l-.13.05-.31.1,0-.32A13.52,13.52,0,0,0,500.74,305.66Z" style="fill:#eb996e"></path><path d="M511.56,294.06a34.84,34.84,0,0,1-2.79,4.32,19.35,19.35,0,0,1-3.3,3.93c-.08-.07,1.34-1.86,3-4.18A29,29,0,0,1,511.56,294.06Z" style="fill:#eb996e"></path><path d="M495.94,309.67c.12,0,.43,1,1.09,2.22s1.39,2,1.3,2.1a5.85,5.85,0,0,1-2.39-4.32Z" style="fill:#eb996e"></path><path d="M380.1,406.24l25.55.79,27-8.11c1.06-5.48,4.72-12.89,14.05-13.67,10.22-.86,17.22,1.49,22,0l7.12-3s17.23,12.8,18,16-14.29,19.7-19.59,24.07c-8.21,6.78-27.4,8.19-33.89,9-9.53,9-17,16.37-21.8,18.73-8,3.92-26.16,4.18-35.72-1.09C367,440.28,380.1,406.24,380.1,406.24Z" style="fill:#FF725E"></path><path d="M490.88,394.56a8,8,0,0,0-6.65-2.35,36.56,36.56,0,0,0-7.12,1.64,46.39,46.39,0,0,1-14.6,1.62c-3.36-.16-6.82-.73-9.66-2.55s-5-4.44-4.57-7.78a138.27,138.27,0,0,1,16.7.46l3.69-1.13c1.7-.66,6.79-2.85,6.79-2.85l11.76,8Z" style="fill:#ffbe9d"></path><path d="M438.92,413.31a2.51,2.51,0,0,1-.38-.66,12.66,12.66,0,0,1-.73-1.95,16.69,16.69,0,0,1,1.86-13.27,12.08,12.08,0,0,1,1.23-1.68c.33-.36.53-.55.55-.53s-.62.89-1.46,2.39a18.24,18.24,0,0,0-1.82,13C438.56,412.28,439,413.27,438.92,413.31Z" style="fill:#263238"></path><path d="M425.92,425c-.07.05-.94-1.19-2.55-3a44.38,44.38,0,0,0-7-6.47,44.82,44.82,0,0,0-8.21-4.83c-2.23-1-3.67-1.48-3.64-1.57a4.76,4.76,0,0,1,1,.25c.66.19,1.61.52,2.75,1a39,39,0,0,1,15.32,11.4,28.76,28.76,0,0,1,1.73,2.35A4.21,4.21,0,0,1,425.92,425Z" style="fill:#263238"></path><path d="M415.22,430.69c-.16,0,0-2.48-.64-5.43s-1.76-5.15-1.62-5.22a12.19,12.19,0,0,1,2.13,5.11A12,12,0,0,1,415.22,430.69Z" style="fill:#263238"></path><g style="opacity:0.30000000000000004"><path d="M441,395.63a7.82,7.82,0,0,0-5,4.17,13.75,13.75,0,0,0-1.31,6.52c0,2.33.55,4.88,2.39,6.33.32.26.8.46,1.11.19s.19-.72.07-1.09a18.19,18.19,0,0,1,2.87-16.3"></path></g><g style="opacity:0.30000000000000004"><path d="M421,431c.09-3-.87-5.18-2.36-7.76a33.35,33.35,0,0,0-5.62-6.92,18,18,0,0,0-3.87-2.64,7.5,7.5,0,0,0-4.19-1.21c3.49,1.89,6.93,4.23,8.7,9a22.27,22.27,0,0,1,1.59,8.93Z"></path></g><path d="M439,431.88a16.26,16.26,0,0,0,1.59-2.1,10.34,10.34,0,0,0,1.3-6.86,9.84,9.84,0,0,0-6.57-7.54,12.56,12.56,0,0,0-6.15-.23c-2.14.29-4.56.67-6.85-.22a6.2,6.2,0,0,1-2.87-2.09,4.9,4.9,0,0,1-.94-3.33,3.74,3.74,0,0,1,1.67-2.9,3.62,3.62,0,0,1,3.2-.23,2.72,2.72,0,0,1,1.77,2.47,3.49,3.49,0,0,1-1.15,2.64,4.4,4.4,0,0,1-2.48,1,5.65,5.65,0,0,1-4.35-1.49,6.32,6.32,0,0,1-1.25-1.53,6.63,6.63,0,0,1-1-3,6.06,6.06,0,0,1,.21-2,3.75,3.75,0,0,1,.27-.63,7,7,0,0,0-.28,2.59,6.67,6.67,0,0,0,1,2.85,6,6,0,0,0,1.23,1.43,5.27,5.27,0,0,0,1.81,1.07,4.56,4.56,0,0,0,4.5-.69,3.07,3.07,0,0,0,1-2.31,2.27,2.27,0,0,0-1.5-2,3.2,3.2,0,0,0-2.76.21,3.25,3.25,0,0,0-1.42,2.52,4.45,4.45,0,0,0,.84,3,5.79,5.79,0,0,0,2.64,1.91c2.14.83,4.44.49,6.6.2a22.47,22.47,0,0,1,3.26-.25,9.82,9.82,0,0,1,3.12.53,10,10,0,0,1,5.28,15A6.92,6.92,0,0,1,439,431.88Z" style="fill:#fafafa"></path><path d="M440.8,396c0,.05-.47-.23-1-.88a6.52,6.52,0,0,1-1.27-2.95,6.33,6.33,0,0,1,.31-3.2c.29-.78.62-1.18.67-1.15A8.18,8.18,0,0,0,440.8,396Z" style="fill:#fafafa"></path><path d="M462.13,419.38c-.05,0,.27-.78.46-2.24A14.79,14.79,0,0,0,462,411a11.78,11.78,0,0,0-5.57-6.95,9.56,9.56,0,0,0-5.16-1.16,8.83,8.83,0,0,0-5.24,2.07,5.24,5.24,0,0,0-1.59,2.32,2.5,2.5,0,0,0,.44,2.48,2.7,2.7,0,0,0,2.32.81,3,3,0,0,0,2-1.32,4,4,0,0,0-.11-4.43,6.53,6.53,0,0,0-3.3-2.48,9.31,9.31,0,0,0-6.06,0,16.25,16.25,0,0,0-2.07,1,2.89,2.89,0,0,1,.47-.37,9.09,9.09,0,0,1,1.53-.78A9.28,9.28,0,0,1,446,402a6.85,6.85,0,0,1,3.54,2.6,5,5,0,0,1,.82,2.36,4,4,0,0,1-.68,2.57,3.5,3.5,0,0,1-2.35,1.55,3.24,3.24,0,0,1-2.77-1,3,3,0,0,1-.55-3,5.62,5.62,0,0,1,1.74-2.55,9.28,9.28,0,0,1,5.55-2.19,10,10,0,0,1,5.42,1.25,12,12,0,0,1,5.69,7.26,14.32,14.32,0,0,1,.41,6.28,10.83,10.83,0,0,1-.42,1.66A2.75,2.75,0,0,1,462.13,419.38Z" style="fill:#fafafa"></path><g style="opacity:0.30000000000000004"><path d="M476.48,399c-2.48-2-6-2-9.22-1.77-2.59.15-5.37.36-7.41,2a9.4,9.4,0,0,0-2.85,4.47,17,17,0,0,0-.91,5.4,11.79,11.79,0,0,1-.2,3c-.41,1.51-1.58,2.68-2.49,3.95-2.36,3.33-3.68,9.77.14,13.6,0,0,4.22-.72,5.7-1.12"></path></g><path d="M448,386.83c0,.13-.65,0-1.08-.53s-.39-1.18-.25-1.18.32.43.66.86S448,386.69,448,386.83Z" style="fill:#fafafa"></path><path d="M472.07,405c0,.05-.58-.22-1.32-.86a9.93,9.93,0,0,1-3.22-6.74,3.41,3.41,0,0,1,.15-1.57,17.73,17.73,0,0,0,1.27,5A17.34,17.34,0,0,0,472.07,405Z" style="fill:#fafafa"></path><path d="M415,426.34a1.44,1.44,0,0,1,.34.39A4.61,4.61,0,0,1,416,428a8.6,8.6,0,0,1,.42,2.29c.07.91,0,1.94.06,3.06a7.94,7.94,0,0,0,.75,3.49,4,4,0,0,0,1.24,1.48,4.19,4.19,0,0,0,1.93.7,7.81,7.81,0,0,0,2.21,0,2.83,2.83,0,0,0,1.89-1,2.33,2.33,0,0,0,.16-2.14,4.71,4.71,0,0,0-1.4-1.95,4.13,4.13,0,0,0-4.4-.85,8.14,8.14,0,0,0-3.16,3.19,9.42,9.42,0,0,0-1.49,3.82,7.39,7.39,0,0,0,.52,3.53,15.26,15.26,0,0,0,2.93,4.38,17.08,17.08,0,0,1,1.29,1.48,2.05,2.05,0,0,1-.39-.32c-.25-.23-.61-.57-1.05-1a14.46,14.46,0,0,1-3.12-4.38,7.67,7.67,0,0,1-.61-3.71,9.59,9.59,0,0,1,1.52-4,8.45,8.45,0,0,1,3.35-3.39,4.07,4.07,0,0,1,2.58-.28,5.29,5.29,0,0,1,2.37,1.2,5.18,5.18,0,0,1,1.54,2.16,2.78,2.78,0,0,1-.23,2.61,3.27,3.27,0,0,1-2.21,1.21,8.13,8.13,0,0,1-2.36,0,4.66,4.66,0,0,1-2.13-.79,4.46,4.46,0,0,1-1.36-1.66,8.28,8.28,0,0,1-.74-3.69c0-1.14.06-2.15,0-3a9.55,9.55,0,0,0-.32-2.25A7.73,7.73,0,0,0,415,426.34Z" style="fill:#fafafa"></path><path d="M411.11,412.26c.05,0,.31.13.59.55a3.74,3.74,0,0,1,.18,3.7c-.24.43-.48.63-.53.59a5.8,5.8,0,0,0-.24-4.84Z" style="fill:#fafafa"></path><path d="M398.69,413.39c-.05,0-.38-.23-.72-.82a4.71,4.71,0,0,1,.25-5.05c.4-.55.75-.78.8-.74a6.1,6.1,0,0,0-.33,6.61Z" style="fill:#fafafa"></path><path d="M256.65,375.3s61.16-12.87,66-14.57,12.39.31,14.86,2.4c0,0,60.48,45.4,56,45.1-6.25-.42-19.62,25.67-19.62,25.67s-47.37-47.65-53.65-48.16-63.58-7-63.58-7Z" style="fill:#eb996e"></path><path d="M231.66,370.7c4.41-4.54,21,6.33,28.9,3.76,3.16,3.15,3.3,5.13,3.3,5.13s-13.14,8.05-15.64,5.58-4.09-7.71-9.28-9.62A20.68,20.68,0,0,1,231.66,370.7Z" style="fill:#eb996e"></path><path d="M250.59,375.78l4.12-.33L320,370.3s9.28-2,15.34,3.08c1.95,1.64,58.18,34.85,58.18,34.85s21.24,15.68,13.09,32.84c-7.06,14.86-21.42,10.23-31.13,5.28-8.31-4.23-33.34-29.28-44.67-44.14-.22-.29-.43-.58-.63-.88-1.21-1.75-6.36-8.72-11.68-8.2-6.08.61-25.6.29-35.73-1.83s-34.3-9.52-34.3-9.52Z" style="fill:#ffbe9d"></path><path d="M224.81,367.11c5.11-3.75,19.63,9.72,27.87,8.5,0,6.37-4.23,6.17-4.23,6.17s-7.65,5.2-9.7,2.35-2.76-8.28-7.56-11A20.78,20.78,0,0,1,224.81,367.11Z" style="fill:#ffbe9d"></path><path d="M528.2,366.75c-3.39-2.15-7.77-.72-11.77-.39a20.52,20.52,0,0,1-13.51-3.71c-8.58-6.14-11.87-18.46-21.48-22.82a17.72,17.72,0,0,0-17.91,2.45,20.39,20.39,0,0,0-7.34,16.77,24.09,24.09,0,0,0,8.26,16.57l37.44,17.32c9.61,1,20.87-3.65,25.74-12,1.3-2.24,4-4.93,3.93-7.53A8,8,0,0,0,528.2,366.75Z" style="fill:#FF725E"></path><g style="opacity:0.30000000000000004"><path d="M492.25,354a16,16,0,0,0-10.59-13.19,17.48,17.48,0,0,0-16.74,3.36,19.16,19.16,0,0,0-6.33,16,24.34,24.34,0,0,0,4.59,11.75,43.33,43.33,0,0,0,9,9"></path></g><path d="M478.73,360.64c-1.45,3-3.23,6.37-6.45,7.37-2.32.71-5.31.21-6.75,2.16s0,5.24-1.37,7.39c-.89,1.39-2.72,1.85-4.37,1.91s-3.37-.14-4.93.41-2.93,2.22-2.39,3.79,2.56,2.05,4.24,2.26c2.69.32,5.51.64,8.06-.3a17.31,17.31,0,0,0,4.7-3l8.8-7.07" style="fill:#263238"></path><path d="M501.89,349.57a9.12,9.12,0,0,0-9.49,2.12c-.85,1-1.54,2.24-2.74,2.81a9.65,9.65,0,0,1-3.36.45,9,9,0,0,0-3.83,16.73" style="fill:#263238"></path><g style="opacity:0.30000000000000004"><path d="M502.72,392.27a26.49,26.49,0,0,0,20-10.11,14.05,14.05,0,0,0,2.92-5.93,2.42,2.42,0,0,0-.13-1.62c-.52-.93-1.86-.94-2.88-.63s-2.07.83-3.09.53a16.61,16.61,0,0,1-5.86,9.16,49.33,49.33,0,0,1-9.42,5.79"></path></g><path d="M487.21,358c9.29-16.55,27.34-6.62,31.05,3.3,3.48,9.33,2,15.45-2.18,20.51a31.63,31.63,0,0,1-16.29,10.69c-3.16.79-7,.8-9.16-1.59" style="fill:#263238"></path><path d="M463.73,386.52c6.57-5,10.52-7.91,10.48-7.89s-3.24-6.42,3.35-13.08c3.28-3.31,9.5-7.59,14.71-10.93,4.68-3,12.35-4.06,15.16.75l6.69,16.51a3.24,3.24,0,0,1-.93,4.3h0L483.7,396.42" style="fill:#ffbe9d"></path><path d="M489.19,360.91a1.18,1.18,0,0,0-.3,1.62,1.12,1.12,0,0,0,1.57.37,1.18,1.18,0,0,0,.31-1.62A1.15,1.15,0,0,0,489.19,360.91Z" style="fill:#263238"></path><path d="M496.66,371.05a1.17,1.17,0,0,0-.3,1.61,1.12,1.12,0,0,0,1.57.37,1.17,1.17,0,0,0,.31-1.61A1.13,1.13,0,0,0,496.66,371.05Z" style="fill:#263238"></path><path d="M490.52,358.15c0,.21,1,.58,1.73,1.64s.72,2.19.93,2.21.24-.26.25-.77a3.25,3.25,0,0,0-.58-1.88,3.14,3.14,0,0,0-1.54-1.19C490.84,358,490.54,358.05,490.52,358.15Z" style="fill:#263238"></path><path d="M497.45,368.11c0,.21,1,.54,1.79,1.57s.8,2.16,1,2.18.23-.28.22-.78a3.22,3.22,0,0,0-.65-1.86,3.11,3.11,0,0,0-1.58-1.13C497.76,368,497.46,368,497.45,368.11Z" style="fill:#263238"></path><path d="M486.92,370.4a7.68,7.68,0,0,0-.92-1.89c-.17-.29-.3-.58-.15-.75a1.68,1.68,0,0,1,.91-.4l2.57-.69a41.55,41.55,0,0,0,6.52-2.1,44.17,44.17,0,0,0-6.67,1.57l-2.56.73a1.88,1.88,0,0,0-1.14.63.82.82,0,0,0-.06.71,2.2,2.2,0,0,0,.26.49A8.29,8.29,0,0,0,486.92,370.4Z" style="fill:#263238"></path><path d="M474.21,378.63a23.54,23.54,0,0,0,10,8s-7,1.28-11.83-6.7Z" style="fill:#eb996e"></path><path d="M484.76,372.66a2.3,2.3,0,0,1,1.91,1.15,2.1,2.1,0,0,1,.23,1.64,1.34,1.34,0,0,1-1.17,1,1.55,1.55,0,0,1-1.33-1.1,4.85,4.85,0,0,1-.18-1.9,1.48,1.48,0,0,1,.09-.51.43.43,0,0,1,.39-.28" style="fill:#eb996e"></path><path d="M488.44,374c-.12-.17-1.24.65-2.73.27s-2.25-1.65-2.41-1.55,0,.43.33.94a3.44,3.44,0,0,0,1.95,1.34,3,3,0,0,0,2.23-.3C488.31,374.35,488.5,374,488.44,374Z" style="fill:#263238"></path><path d="M498.77,366.75c-.21.3.68,1.24,1.42,2.55s1.13,2.54,1.5,2.51c.17,0,.31-.38.29-1a4.81,4.81,0,0,0-.66-2.19,5,5,0,0,0-1.56-1.67C499.25,366.67,498.87,366.61,498.77,366.75Z" style="fill:#263238"></path><path d="M493.33,356.46c-.1.35.66.88,1.3,1.73s1,1.69,1.37,1.68c.17,0,.32-.3.31-.78a3.15,3.15,0,0,0-2.15-2.75C493.7,356.22,493.39,356.3,493.33,356.46Z" style="fill:#263238"></path><path d="M502.47,382.08c.13.07,4.7,2.7.26,6s-6.86-1.82-6.73-1.92S502.47,382.08,502.47,382.08Z" style="fill:#ffbe9d"></path><path d="M498.69,386.28s0,.11,0,.29a1,1,0,0,0,.42.59,2.41,2.41,0,0,0,2.38-.4,3.23,3.23,0,0,0,1-1.05,1.11,1.11,0,0,0,.15-1,.48.48,0,0,0-.55-.29c-.17,0-.23.13-.26.11s0-.15.21-.25a.61.61,0,0,1,.41,0,.72.72,0,0,1,.43.34,1.36,1.36,0,0,1-.08,1.33,3.3,3.3,0,0,1-1,1.19,2.52,2.52,0,0,1-2.76.31,1,1,0,0,1-.42-.8C498.59,386.37,498.67,386.27,498.69,386.28Z" style="fill:#eb996e"></path><path d="M508.58,352.23c-3.11-1.55-8.94,1.16-10.79,4.1s-1.09,6.64.32,9.82a20.53,20.53,0,0,0,6,8.05c-1.68,1.51-2.74,4-1.93,6.08,1.08,2.79,4.93,3.57,7.67,2.36s4.6-3.77,6.32-6.21" style="fill:#263238"></path><path d="M506.83,383.84a2.48,2.48,0,0,1-.58-.1c-.36-.1-.89-.23-1.53-.47a7.64,7.64,0,0,1-2.11-1.12,4.65,4.65,0,0,1-1.71-2.39,4.55,4.55,0,0,1,.24-2.94,6.2,6.2,0,0,1,1.35-2,8.4,8.4,0,0,1,1.24-1,1.65,1.65,0,0,1,.51-.28s-.68.49-1.59,1.46a6.36,6.36,0,0,0-1.24,1.93,4.31,4.31,0,0,0-.2,2.74,4.41,4.41,0,0,0,1.58,2.25,7.87,7.87,0,0,0,2,1.14C506,383.56,506.85,383.79,506.83,383.84Z" style="fill:#263238"></path><path d="M518.12,376.26s.2-.25.47-.75a5.78,5.78,0,0,0,.64-2.28,8.5,8.5,0,0,0-.51-3.48,23.27,23.27,0,0,0-2-3.88,35.77,35.77,0,0,1-3.41-7.19c-.32-1-.55-1.76-.68-2.31-.08-.28-.12-.5-.15-.64s0-.23,0-.23a1.8,1.8,0,0,1,.07.22l.19.63c.16.54.4,1.33.74,2.28a38.38,38.38,0,0,0,3.45,7.14,22.83,22.83,0,0,1,2,3.92,8.44,8.44,0,0,1,.48,3.55,5.51,5.51,0,0,1-.72,2.31,4,4,0,0,1-.37.54A1.46,1.46,0,0,1,518.12,376.26Z" style="fill:#455a64"></path><path d="M494.66,383.14a3.68,3.68,0,0,0-5.77-.23c-.61.72-1.06,1.75-2,1.91s-1.52-.46-2.22-.88a5.39,5.39,0,0,0-7.92,3.11c-.33,1.11-.38,2.45-1.31,3.15s-2.3.35-3.5.28a6.13,6.13,0,0,0-6.45,6,3.19,3.19,0,0,1-.23,1.57,3,3,0,0,1-1.43,1,8.93,8.93,0,0,0-5.11,7.48,3.45,3.45,0,0,0,1.28,3.26,3.72,3.72,0,0,0,3.36-.2c3.82-1.69,6.8-5.05,10.79-6.3a16.47,16.47,0,0,0,3.41-1.14,10.33,10.33,0,0,0,2.87-3,71.53,71.53,0,0,1,15.47-15.26" style="fill:#263238"></path><path d="M463.27,342.49A19.64,19.64,0,0,1,492.48,347a4.77,4.77,0,0,0,1.71,1.9c1.25.62,2.72-.11,4-.65a16,16,0,0,1,22.14,16.29l6.27,1.52c.08,0,0,.67,0,.67l.64,8.15c-3.58,1-14.3-.78-16.24-1.62-4.38-1.87-7.62-3.17-11.26-6.23-5.93-5-7.55-19.05-13.67-23.81-6-4.63-16.39-4.63-22.82-.68" style="fill:#FF725E"></path><path d="M518.74,372a4.93,4.93,0,0,1-1.25.08,20.78,20.78,0,0,1-3.39-.31A22.81,22.81,0,0,1,497,358.4a19.6,19.6,0,0,1-1.12-3.22,5,5,0,0,1-.22-1.22c.1,0,.45,1.72,1.67,4.29a23.66,23.66,0,0,0,16.81,13.15C517,372,518.74,371.89,518.74,372Z" style="fill:#263238"></path><path d="M520.34,365.43a5,5,0,0,1-1.24.23,19.81,19.81,0,0,1-3.45.09,21.49,21.49,0,0,1-18.1-12.16,19.26,19.26,0,0,1-1.22-3.22,5.08,5.08,0,0,1-.25-1.24,44.92,44.92,0,0,0,1.8,4.29,22.15,22.15,0,0,0,17.8,12C518.55,365.64,520.33,365.32,520.34,365.43Z" style="fill:#fafafa"></path><path d="M519.91,361.06a3.06,3.06,0,0,1-1,.21,11.11,11.11,0,0,1-2.73,0,16.14,16.14,0,0,1-8.18-3.61,25.83,25.83,0,0,1-5.74-6.89c-.58-1-1-1.81-1.29-2.38a3.49,3.49,0,0,1-.38-.93c.07,0,.75,1.21,2,3.12a28.91,28.91,0,0,0,5.76,6.68,16.9,16.9,0,0,0,7.9,3.65A25.54,25.54,0,0,0,519.91,361.06Z" style="fill:#fafafa"></path><path d="M519.19,357.61a7.61,7.61,0,0,1-2.36-.66,19.4,19.4,0,0,1-5.09-3.05,19.19,19.19,0,0,1-3.9-4.46,7.76,7.76,0,0,1-1.08-2.21,29.88,29.88,0,0,0,5.32,6.27A29.5,29.5,0,0,0,519.19,357.61Z" style="fill:#fafafa"></path><path d="M482,393.43s-29,21.89-27.08,32.36c0,0,1.3,4,9.67,3s17.92-10,22.62-13.92c6.88-5.68,16.57-24.95,16.57-24.95Z" style="fill:#ffbe9d"></path><path d="M500.9,364.86l-3.78,13-27.57,28.47,20.09.79,18.64-22.6,7.17-12s2.08-4.82-1.91-4.18c0,0-.85-2.82-2.45-2.75a8.88,8.88,0,0,0-2.33.33s-.6-1.8-2.06-1.4a2.12,2.12,0,0,0-1.67,1.47s-.2-2.2-2.13-2S500.9,364.86,500.9,364.86Z" style="fill:#ffbe9d"></path></g><g id="freepik--Hammock--inject-90"><path d="M118,289.58s133.3,93.37,184.2,109.6c30.67,9.77,68.45,22.48,98.18,28.63,19.62,4.07,26.21,3.43,31.31,3.49,6.7.08,43.93-5.49,61.61-28.44S605.05,287.15,605.05,287.15l.63,3.13s-102.8,147.13-153,158.63-89.26,5.3-99.59-4.14-112.27-49.25-154.9-89.45C189.28,346.89,118,289.58,118,289.58Z" style="fill:#FF725E"></path><path d="M118,289.58s133.3,93.37,184.2,109.6c30.67,9.77,68.45,22.48,98.18,28.63,19.62,4.07,26.21,3.43,31.31,3.49,6.7.08,43.93-5.49,61.61-28.44S605.05,287.15,605.05,287.15l.63,3.13s-102.8,147.13-153,158.63-89.26,5.3-99.59-4.14-112.27-49.25-154.9-89.45C189.28,346.89,118,289.58,118,289.58Z" style="opacity:0.5"></path><path d="M489.32,414.32a42.49,42.49,0,0,1-4.91,4.45,67.13,67.13,0,0,1-15.58,9.11,97.89,97.89,0,0,1-25.92,6.65,213.32,213.32,0,0,1-32.78,1.28,240.37,240.37,0,0,1-58.77-9.31c-7.34-2.09-13.14-4.23-17.14-5.69l-4.57-1.8-1.18-.49a2.49,2.49,0,0,1-.4-.18l.42.13,1.2.44,4.6,1.71c4,1.4,9.83,3.48,17.18,5.52a244.67,244.67,0,0,0,58.68,9.15,217.7,217.7,0,0,0,32.7-1.23,98.85,98.85,0,0,0,25.84-6.52,68.9,68.9,0,0,0,15.59-8.93c1.68-1.31,2.93-2.4,3.76-3.15l.95-.86A3.12,3.12,0,0,1,489.32,414.32Z" style="fill:#263238"></path><path d="M463,430.2a4.72,4.72,0,0,1-.62.26l-1.83.66c-1.59.58-3.91,1.34-6.79,2.22a210.06,210.06,0,0,1-46.29,8.56c-3,.21-5.45.32-7.13.36l-2,0a3.44,3.44,0,0,1-.67,0,2.75,2.75,0,0,1,.67-.08l1.94-.14c1.68-.09,4.11-.26,7.11-.52,6-.5,14.28-1.45,23.32-3.12s17.11-3.74,22.89-5.42c2.9-.84,5.23-1.55,6.84-2.06l1.85-.57A3.34,3.34,0,0,1,463,430.2Z" style="fill:#263238"></path><path d="M581,315.92c.11.09-15.7,18.53-35.3,41.17S510.07,398,510,397.92s15.7-18.53,35.31-41.18S580.86,315.82,581,315.92Z" style="fill:#263238"></path><path d="M325.78,418.92l-.27-.1-.76-.34-2.93-1.35c-2.53-1.18-6.18-2.93-10.67-5.13-9-4.4-21.3-10.65-34.72-17.89S251,380,242.42,374.87c-4.3-2.55-7.76-4.64-10.14-6.11l-2.73-1.7-.71-.46a1.29,1.29,0,0,1-.23-.17,1,1,0,0,1,.26.13l.73.41,2.79,1.61,10.22,6c8.64,5,20.65,11.85,34.06,19.1s25.71,13.54,34.65,18l10.59,5.27,2.88,1.45.74.38A1.16,1.16,0,0,1,325.78,418.92Z" style="fill:#263238"></path><path d="M431.17,435c-.14-.06.18-.92-.2-1.91s-1.14-1.44-1.08-1.57.28,0,.62.17a2.51,2.51,0,0,1,.95,1.22,2.54,2.54,0,0,1,.07,1.55C431.4,434.83,431.22,435,431.17,435Z" style="fill:#fafafa"></path><path d="M419.81,439.76c-.07.12-.93-.53-1.07-1.75s.5-2.07.6-2-.23.88-.09,1.9S419.92,439.65,419.81,439.76Z" style="fill:#fafafa"></path><path d="M436.61,452.51c-.09,0,0-.86,0-2.23a16.9,16.9,0,0,0-.87-5.23,17.26,17.26,0,0,0-2.47-4.7c-.82-1.09-1.44-1.69-1.38-1.75a5.86,5.86,0,0,1,1.67,1.53A14.66,14.66,0,0,1,437,450.29,6.26,6.26,0,0,1,436.61,452.51Z" style="fill:#fafafa"></path><path d="M460.73,430.51a26,26,0,0,0-.86-2.62c-.65-1.37-1.63-2.18-1.53-2.3s1.28.57,2,2.07A3.58,3.58,0,0,1,460.73,430.51Z" style="fill:#fafafa"></path><path d="M466.1,443.16c-.08,0-.21-.72-.74-1.77a25.38,25.38,0,0,0-2.59-3.85,12.57,12.57,0,0,1-2.27-4.16,3.52,3.52,0,0,1-.12-2c.09,0,.08.75.47,1.86a15.61,15.61,0,0,0,2.33,4,18.16,18.16,0,0,1,2.51,4A3.66,3.66,0,0,1,466.1,443.16Z" style="fill:#fafafa"></path><path d="M482.9,419.38a11.62,11.62,0,0,0-1.11-2.32c-.85-1.14-2-1.55-1.93-1.69s.33-.05.8.15a3.79,3.79,0,0,1,1.54,1.23,3.93,3.93,0,0,1,.77,1.81C483,419.07,483,419.38,482.9,419.38Z" style="fill:#fafafa"></path><path d="M490.94,426.31a16.69,16.69,0,0,0-.81-5.32,17.25,17.25,0,0,0-2.87-4.55c0-.05.57.28,1.28,1a10.09,10.09,0,0,1,2.71,7.26A3.48,3.48,0,0,1,490.94,426.31Z" style="fill:#fafafa"></path><path d="M510.57,406.59c-.08.05-.57-.74-1.53-1.86a19.26,19.26,0,0,0-9.61-6.05c-1.42-.38-2.34-.49-2.34-.58a7,7,0,0,1,2.43.22,16.93,16.93,0,0,1,5.45,2.22,16.64,16.64,0,0,1,4.35,4A7.18,7.18,0,0,1,510.57,406.59Z" style="fill:#fafafa"></path><path d="M520.62,385.44A21.12,21.12,0,0,0,518,382a21.84,21.84,0,0,0-3.56-2.49,8.2,8.2,0,0,1,6.16,6Z" style="fill:#fafafa"></path><path d="M529.46,387.78c0,.06-.49,0-1.22-.25a7.51,7.51,0,0,1-4.19-4.16c-.27-.73-.31-1.21-.25-1.23a15.58,15.58,0,0,0,2.29,3.37A16,16,0,0,0,529.46,387.78Z" style="fill:#fafafa"></path><path d="M540.91,360.34a6.87,6.87,0,0,0-5.72-2.56c0-.06.34-.24,1-.3a4.93,4.93,0,0,1,4.33,1.93C540.86,359.93,541,360.31,540.91,360.34Z" style="fill:#fafafa"></path><path d="M547.26,366a6.07,6.07,0,0,1-3.83-.77,6.19,6.19,0,0,1-2.94-2.57,34.47,34.47,0,0,0,3.17,2.11A29,29,0,0,0,547.26,366Z" style="fill:#fafafa"></path><path d="M561.28,338.31c-.14.07-.65-1-1.76-1.72a18.53,18.53,0,0,0-2.23-1,2.86,2.86,0,0,1,2.52.62C561.07,337,561.42,338.29,561.28,338.31Z" style="fill:#fafafa"></path><path d="M568.93,339.4a5,5,0,0,1-4.93-3.6,17.58,17.58,0,0,0,2.16,2.21A18.66,18.66,0,0,0,568.93,339.4Z" style="fill:#fafafa"></path><path d="M577.8,319.13c-.15,0-.31-.72-.86-1.4s-1.21-1-1.17-1.16.92,0,1.58.84S577.94,319.15,577.8,319.13Z" style="fill:#fafafa"></path><path d="M584,319.73c0,.14-1.11.13-2.13-.68s-1.28-1.9-1.15-1.92.57.81,1.47,1.51S584,319.58,584,319.73Z" style="fill:#fafafa"></path><path d="M592.1,309.71a8.07,8.07,0,0,0-1.43-3.33,8,8,0,0,0-3.08-1.91c0-.07.45-.11,1.14.08a4.83,4.83,0,0,1,3.46,4C592.28,309.28,592.17,309.71,592.1,309.71Z" style="fill:#fafafa"></path><path d="M400.93,434.77a6.43,6.43,0,0,1,.23-6.74,33.63,33.63,0,0,0-.55,3.35A32.41,32.41,0,0,0,400.93,434.77Z" style="fill:#fafafa"></path><path d="M395,442s-.43-.18-.93-.72a6.1,6.1,0,0,1-1.34-2.51,6.19,6.19,0,0,1-.08-2.85c.17-.72.41-1.11.46-1.08a12.06,12.06,0,0,0,.12,3.79A11.85,11.85,0,0,0,395,442Z" style="fill:#fafafa"></path><path d="M399.65,455.27a8,8,0,0,1,.55-1.91,26.35,26.35,0,0,0,1.18-4.58,11.36,11.36,0,0,0-.26-4.65c-.34-1.15-.76-1.79-.68-1.84a4,4,0,0,1,1,1.73,10,10,0,0,1,.42,4.83,19,19,0,0,1-1.35,4.63A7.52,7.52,0,0,1,399.65,455.27Z" style="fill:#fafafa"></path><path d="M370.81,431c.08,0-.45,1.09-1.07,2.87a27.12,27.12,0,0,0-.93,14.47c.39,1.85.78,2.95.69,3a2.48,2.48,0,0,1-.36-.74,16.74,16.74,0,0,1-.69-2.15,24,24,0,0,1,.95-14.69,15.64,15.64,0,0,1,1-2C370.62,431.27,370.78,431,370.81,431Z" style="fill:#fafafa"></path><path d="M380.36,423.6c0,.07-.43.36-1,1a7.17,7.17,0,0,0-1.4,3,17.12,17.12,0,0,0-.3,3.38,4.15,4.15,0,0,1-.12,1.44,3.77,3.77,0,0,1-.25-1.42,12.1,12.1,0,0,1,.16-3.51,6.35,6.35,0,0,1,1.64-3.14C379.78,423.73,380.33,423.54,380.36,423.6Z" style="fill:#fafafa"></path><path d="M346.44,425.28a18.91,18.91,0,0,0-3.07,12.15,4.76,4.76,0,0,1-.39-1.87,13.87,13.87,0,0,1,.38-4.6,14.06,14.06,0,0,1,1.85-4.22A4.89,4.89,0,0,1,346.44,425.28Z" style="fill:#fafafa"></path><path d="M347.24,414.27c.13.1-1.21,1.88-2.26,4.38s-1.43,4.69-1.59,4.67a14.1,14.1,0,0,1,3.85-9.05Z" style="fill:#fafafa"></path><path d="M318,415.34c.12.12-.84,1.7-1.43,4s-.59,4.26-.75,4.27a8.88,8.88,0,0,1,.26-4.48C316.68,416.69,317.88,415.21,318,415.34Z" style="fill:#fafafa"></path><path d="M315.06,404s.42.35.76,1.12a6.37,6.37,0,0,1-.81,6.28c-.53.66-1,.93-1,.88s.3-.42.72-1.09a7.23,7.23,0,0,0,.77-5.94C315.24,404.5,315,404.06,315.06,404Z" style="fill:#fafafa"></path><path d="M297.33,404.81c.22.13-1.5,1.95-1.8,4.66s.88,4.76.63,4.85-.56-.41-1-1.29a6.81,6.81,0,0,1-.56-3.64,7.24,7.24,0,0,1,1.43-3.47C296.69,405.13,297.24,404.76,297.33,404.81Z" style="fill:#fafafa"></path><path d="M290.44,394.32a5,5,0,0,1-2.78,5c-.09-.13,1-.92,1.71-2.3S290.28,394.31,290.44,394.32Z" style="fill:#fafafa"></path><path d="M272.36,392.3c.15.08-.07,2.34-.09,5.14s.17,5.06,0,5.14a15.81,15.81,0,0,1-.54-5.16A15.48,15.48,0,0,1,272.36,392.3Z" style="fill:#fafafa"></path><path d="M268.66,384.14c.12.09-.49.94-.78,2.15s-.17,2.23-.32,2.27a2.9,2.9,0,0,1-.19-2.4C267.7,384.81,268.57,384,268.66,384.14Z" style="fill:#fafafa"></path><path d="M246.82,377.23c.16.13-.74,2.59-.68,5.94a35.61,35.61,0,0,0,.83,5.9c-.06.06-.39-.45-.73-1.49a14.69,14.69,0,0,1-.68-4.39,15.23,15.23,0,0,1,.57-4.43C246.45,377.7,246.76,377.17,246.82,377.23Z" style="fill:#fafafa"></path><path d="M244.75,371.37c.07.13-.67.63-1.06,1.6s-.25,1.84-.39,1.88-.2-.18-.28-.57a2.83,2.83,0,0,1,.19-1.51,2.68,2.68,0,0,1,.94-1.19C244.47,371.36,244.72,371.31,244.75,371.37Z" style="fill:#fafafa"></path><path d="M227.91,377.22a5.33,5.33,0,0,1-1.27-2.07,14.26,14.26,0,0,1-1.09-6.1,13.84,13.84,0,0,1,1.61-5.94c.74-1.34,1.4-1.95,1.45-1.89s-.47.8-1.1,2.15a15.7,15.7,0,0,0-1.38,5.71,15.93,15.93,0,0,0,.88,5.86C227.51,376.36,228,377.15,227.91,377.22Z" style="fill:#fafafa"></path><path d="M214,367.11a5.79,5.79,0,0,1-1.39-1.95,12.92,12.92,0,0,1-.36-11,5.26,5.26,0,0,1,1.26-2c.22.06-1.78,3.23-1.59,7.53S214.2,367,214,367.11Z" style="fill:#fafafa"></path><path d="M199.27,353.51a2.46,2.46,0,0,1-.34-1.25,7.65,7.65,0,0,1,.32-3.12,7.82,7.82,0,0,1,1.51-2.75c.54-.6,1-.87,1-.83a11.2,11.2,0,0,0-2.49,7.95Z" style="fill:#fafafa"></path><path d="M187.13,335a19,19,0,0,0-1.35,4.55,19.87,19.87,0,0,0,.31,4.73,3.16,3.16,0,0,1-.57-1.32,9.45,9.45,0,0,1-.26-3.47,9.58,9.58,0,0,1,1-3.33C186.7,335.34,187.08,334.93,187.13,335Z" style="fill:#fafafa"></path><path d="M165.61,321.74c.09.12-.66.74-1.08,1.81s-.35,2-.5,2.05a2.38,2.38,0,0,1,0-2.25C164.54,322.12,165.56,321.61,165.61,321.74Z" style="fill:#fafafa"></path><path d="M149,311.48c0,.15-.4.34-.77.72s-.56.79-.71.77-.16-.63.34-1.14S149,311.34,149,311.48Z" style="fill:#fafafa"></path><path d="M125.34,131.92s-35.91,188,1.57,337.87h37.48S131.72,316.16,135.58,223l3.85-93.2Z" style="fill:#263238"></path><path d="M139.36,301.53a6.48,6.48,0,0,1-1.35-.29c-.87-.21-2.11-.58-3.61-1.09a61.52,61.52,0,0,1-11.28-5.26,60.5,60.5,0,0,1-10-7.44c-1.17-1.08-2.09-2-2.68-2.65a6.2,6.2,0,0,1-.9-1.06,6.83,6.83,0,0,1,1,.91c.64.62,1.59,1.49,2.78,2.53a71.07,71.07,0,0,0,10,7.26,70.31,70.31,0,0,0,11.14,5.36c1.48.56,2.7,1,3.54,1.25A7.76,7.76,0,0,1,139.36,301.53Z" style="fill:#FF725E"></path><path d="M136.53,281.85a6.89,6.89,0,0,1-.64,1.19,14.6,14.6,0,0,1-.85,1.35c-.35.51-.73,1.11-1.22,1.72a41,41,0,0,1-3.58,4.15,42.2,42.2,0,0,1-10.82,7.92,40,40,0,0,1-5,2.16c-.73.28-1.41.47-2,.65s-1.11.31-1.54.4a7.72,7.72,0,0,1-1.33.25c0-.1,1.86-.54,4.75-1.64a48.61,48.61,0,0,0,5-2.25,49.42,49.42,0,0,0,5.64-3.52,50.07,50.07,0,0,0,5.06-4.31,44.89,44.89,0,0,0,3.63-4C135.46,283.45,136.45,281.79,136.53,281.85Z" style="fill:#FF725E"></path><path d="M138.52,303a4.48,4.48,0,0,1-1.09.33c-.7.18-1.74.4-3,.63a76,76,0,0,1-20.35.87c-1.3-.12-2.34-.25-3.06-.37a4.32,4.32,0,0,1-1.12-.23,5.52,5.52,0,0,1,1.14,0l3.07.21c2.6.15,6.19.26,10.15.09s7.53-.59,10.11-1l3-.47A5.85,5.85,0,0,1,138.52,303Z" style="fill:#FF725E"></path><path d="M111.15,278.17a4.74,4.74,0,0,1,1-.06c.65,0,1.6,0,2.77.07,2.33.09,5.55.31,9.09.73s6.73.94,9,1.39c1.14.22,2.07.42,2.7.58a3.57,3.57,0,0,1,1,.29,35,35,0,0,1-3.75-.51c-2.3-.36-5.48-.82-9-1.24s-6.73-.69-9.06-.88A29.41,29.41,0,0,1,111.15,278.17Z" style="fill:#FF725E"></path><path d="M136.58,281.37a4.35,4.35,0,0,1,.36-1.05,14,14,0,0,1,1.46-2.64,17.2,17.2,0,0,1,5.16-4.89c.4-.24.81-.47,1.24-.68a2.46,2.46,0,0,1,.72-.28,1,1,0,0,1,.9.14.9.9,0,0,1,.3.9,2.59,2.59,0,0,1-.28.73c-.22.43-.46.84-.7,1.23a15.47,15.47,0,0,1-1.65,2.1,14.84,14.84,0,0,1-3.55,2.75,12.4,12.4,0,0,1-2.8,1.14,4.11,4.11,0,0,1-1.09.21,26.9,26.9,0,0,0,3.7-1.67,15.29,15.29,0,0,0,3.39-2.76,16.63,16.63,0,0,0,1.57-2c.23-.38.46-.78.66-1.19s.35-.85.13-1-.7,0-1.07.19-.82.43-1.2.66a17.15,17.15,0,0,0-2.11,1.49,17.93,17.93,0,0,0-3,3.17A36.83,36.83,0,0,0,136.58,281.37Z" style="fill:#FF725E"></path><path d="M135.89,280.81a2.48,2.48,0,0,1,.89,0,15,15,0,0,1,2.42.38,17.5,17.5,0,0,1,7.19,3.63l.26.22-.28.19-.12.07a3.66,3.66,0,0,1-2.38.49,8.47,8.47,0,0,1-2.15-.54,10.41,10.41,0,0,1-3.17-1.9,9.67,9.67,0,0,1-1.66-1.84,2.85,2.85,0,0,1-.44-.8,21.77,21.77,0,0,0,2.33,2.36,11,11,0,0,0,3.11,1.73,7.85,7.85,0,0,0,2,.48,3.2,3.2,0,0,0,2.06-.41l.09-.06v.4a18.82,18.82,0,0,0-7-3.67C137.15,281,135.88,280.9,135.89,280.81Z" style="fill:#FF725E"></path><path d="M240.07,156.61c-7.8-20.9-26.07-38.22-48-42.38s-46.51,6.39-56.52,26.32l2.18.57a110.88,110.88,0,0,0,55.88,17.44q-1.94-4.29-3.85-8.58A90.74,90.74,0,0,0,240.07,156.61Z" style="fill:#455a64"></path><path d="M129.63,145.2c-.6-14.88-9.56-28.84-22.11-36.87s-28.26-10.4-43-8-28.38,9.47-40,18.76c-.4.32-.83.72-.78,1.23s.63.87,1.14,1.09l14.88,6.38c4,1.71,8.08,3.45,12.41,3.79s9-.94,11.75-4.34l-4.3,7.52a101.51,101.51,0,0,0,65.79,5.48" style="fill:#455a64"></path><path d="M128.45,138.66c-16.58-8.89-36.21-3.69-53.06,4.68a60.25,60.25,0,0,0-32.14,43.8c-.3,1.92-.46,4.06.66,5.65a6.63,6.63,0,0,0,3.92,2.29,17.31,17.31,0,0,0,21.5-18.61,42,42,0,0,1,3.75,13.45l51.18-35.64c4.85-3.38,6.63-4.84,11.31-6.31Z" style="fill:#455a64"></path><path d="M189.05,180.27c-4-8.12-10.74-14.48-17.6-20.36-5.43-4.65-11.08-9.18-17.58-12.15s-14-4.28-20.87-2.25l1.39.59c-5.64,22,9.8,47.56,26.31,63.21A12.54,12.54,0,0,0,168,203.9q-3,4.77-6.08,9.52a200.12,200.12,0,0,0,22.91,20.94c3.45-8.66,6.6-17.53,7.86-26.76S193.14,188.65,189.05,180.27Z" style="fill:#455a64"></path><path d="M147.26,143.26l-10.49-1.19c-20,3.94-36.28,20.5-42.06,40s-1.68,41.22,8.9,58.59c7.6-8.6,15.25-17.25,21.31-27,1.78-2.86,3.45-5.9,3.88-9.25a10.19,10.19,0,0,0-1.91-7.54c2.36,2.06,5.29,3.67,7.87,2.23a8.28,8.28,0,0,0,2.64-2.9c5.14-7.94,10-16.23,12.42-25.38S152,151.47,147.26,143.26Z" style="fill:#455a64"></path><path d="M146.79,87.73a78.32,78.32,0,0,0-30.6-46.24c-1.28-.91-2.85-1.82-4.33-1.31a5,5,0,0,0-2.48,2.8,83,83,0,0,0-6.91,53c3.62,17.77,16.77,42.16,30.53,54l7.79-4.69C150.08,128.74,150.88,106.19,146.79,87.73Z" style="fill:#455a64"></path><path d="M135.31,145.17a1.47,1.47,0,0,1-.28.05l-.82.09c-.36,0-.81.1-1.33.19a16.08,16.08,0,0,0-1.8.37,28.28,28.28,0,0,0-10.41,5.07,34.57,34.57,0,0,0-5.77,5.58,41.75,41.75,0,0,0-5,7.77,77,77,0,0,0-6.34,20.18,141.48,141.48,0,0,0-2.09,38.45c.41,4.92,1,8.89,1.42,11.62.21,1.37.43,2.42.54,3.14l.13.82a1.9,1.9,0,0,1,0,.28.91.91,0,0,1-.08-.27c0-.21-.11-.48-.19-.81-.14-.71-.39-1.76-.63-3.13-.5-2.72-1.12-6.68-1.58-11.62a137.34,137.34,0,0,1,1.94-38.58,76.83,76.83,0,0,1,6.42-20.3,41.65,41.65,0,0,1,5.08-7.82,34,34,0,0,1,5.88-5.6,27.65,27.65,0,0,1,10.59-5A18.26,18.26,0,0,1,135.31,145.17Z" style="fill:#263238"></path><path d="M137.75,141.12a4.8,4.8,0,0,1-.84.2c-.54.13-1.37.24-2.39.5a47.31,47.31,0,0,0-8.5,2.88,48.45,48.45,0,0,0-5.48,2.91,51.09,51.09,0,0,0-5.74,4.19A57.15,57.15,0,0,0,104,164a78.68,78.68,0,0,0-7.64,14.39,61.2,61.2,0,0,0-2.23,6.76A50.87,50.87,0,0,0,93,191.21a41,41,0,0,0-.14,9c.07,1.06.25,1.87.3,2.43s.1.85.09.85a4.14,4.14,0,0,1-.19-.84c-.09-.55-.3-1.36-.4-2.42a39,39,0,0,1,0-9,49.26,49.26,0,0,1,1.1-6.15,57.09,57.09,0,0,1,2.19-6.83,77.23,77.23,0,0,1,7.66-14.51,56.54,56.54,0,0,1,10.89-12.25,51.82,51.82,0,0,1,5.83-4.19,46.16,46.16,0,0,1,5.55-2.87,42.61,42.61,0,0,1,8.6-2.74c1-.24,1.87-.32,2.42-.41A7.42,7.42,0,0,1,137.75,141.12Z" style="fill:#263238"></path><path d="M148.3,150.05a8.48,8.48,0,0,1,.46,1.54,17.23,17.23,0,0,1,.41,1.83c.13.72.31,1.54.4,2.46s.24,1.92.28,3,.07,2.25.07,3.47a48.82,48.82,0,0,1-.88,7.89,48.23,48.23,0,0,1-2.28,7.62c-.48,1.13-.91,2.2-1.42,3.17s-1,1.86-1.43,2.66-.93,1.49-1.33,2.1a16.54,16.54,0,0,1-1.09,1.53,9.42,9.42,0,0,1-1,1.24,9.28,9.28,0,0,1,.85-1.35c.3-.42.65-.94,1-1.57s.83-1.32,1.25-2.14.92-1.68,1.36-2.66.9-2,1.37-3.15a46.66,46.66,0,0,0,3.12-15.36c0-1.2.05-2.36,0-3.43s-.12-2.08-.22-3-.22-1.73-.32-2.45-.21-1.34-.32-1.84A10.21,10.21,0,0,1,148.3,150.05Z" style="fill:#263238"></path><path d="M183.14,232.58a.74.74,0,0,1,0-.24l.16-.67c.13-.59.39-1.44.62-2.57a73,73,0,0,0,1.54-9.58,72.1,72.1,0,0,0-28.74-64.42c-.9-.71-1.66-1.19-2.14-1.56l-.55-.41q-.19-.13-.18-.15l.21.11.58.37c.5.33,1.27.79,2.2,1.47a67.17,67.17,0,0,1,7.51,6.21,69.47,69.47,0,0,1,9.39,11,69.37,69.37,0,0,1,12.12,33,70.61,70.61,0,0,1,0,14.45,65.66,65.66,0,0,1-1.7,9.6c-.26,1.12-.55,2-.72,2.55-.08.27-.15.48-.2.66A.73.73,0,0,1,183.14,232.58Z" style="fill:#263238"></path><path d="M238.17,155.24s-.08-.06-.2-.21-.32-.39-.55-.66c-.48-.57-1.14-1.46-2.08-2.54a109.89,109.89,0,0,0-8.19-8.84c-1.81-1.79-3.91-3.63-6.21-5.54a87.47,87.47,0,0,0-7.74-5.58,69.16,69.16,0,0,0-19.9-8.79,58.52,58.52,0,0,0-11.17-1.6,56.22,56.22,0,0,0-10.5.56,50,50,0,0,0-16.84,5.6,44.7,44.7,0,0,0-5.72,3.75c-.78.64-1.52,1.22-2.17,1.79l-1.71,1.64a13.51,13.51,0,0,0-1.31,1.36l-.92,1-.57.63c-.13.14-.2.21-.21.2a1.3,1.3,0,0,1,.17-.23l.53-.67.89-1.07a14,14,0,0,1,1.28-1.41c.5-.5,1.07-1.06,1.68-1.68s1.39-1.17,2.16-1.83a43.74,43.74,0,0,1,5.73-3.85,49.78,49.78,0,0,1,16.94-5.75,57.09,57.09,0,0,1,10.59-.59,58.19,58.19,0,0,1,11.28,1.61,68.56,68.56,0,0,1,20,8.89,86.08,86.08,0,0,1,7.76,5.65c2.29,1.93,4.38,3.8,6.19,5.6a101.32,101.32,0,0,1,8.09,9c.91,1.1,1.55,2,2,2.61l.51.69Z" style="fill:#263238"></path><path d="M112.16,39.33l.15.22.39.67,1.48,2.62c.65,1.13,1.42,2.53,2.25,4.18s1.84,3.51,2.81,5.63L120.81,56c.54,1.15,1,2.38,1.6,3.63,1.12,2.5,2.18,5.24,3.32,8.1,2.19,5.77,4.37,12.19,6.3,19s3.32,13.5,4.42,19.57c.49,3,1,5.93,1.32,8.66.17,1.36.37,2.67.5,3.93s.24,2.49.36,3.65c.26,2.32.36,4.42.49,6.27s.2,3.44.23,4.75.06,2.27.08,3c0,.32,0,.57,0,.78a1.33,1.33,0,0,1,0,.26,1.11,1.11,0,0,1,0-.26c0-.21,0-.46-.06-.78,0-.72-.1-1.73-.17-3s-.15-2.9-.32-4.74-.28-3.94-.57-6.26c-.12-1.15-.25-2.37-.39-3.63s-.35-2.57-.53-3.92c-.34-2.72-.86-5.6-1.37-8.63-1.12-6.06-2.57-12.67-4.45-19.52s-4.08-13.26-6.24-19c-1.12-2.86-2.16-5.6-3.27-8.1-.55-1.25-1-2.48-1.57-3.63l-1.53-3.32c-1-2.13-1.93-4-2.74-5.66s-1.55-3.07-2.17-4.22l-1.39-2.66-.35-.69A.75.75,0,0,1,112.16,39.33Z" style="fill:#263238"></path><path d="M138.34,139.67a1.3,1.3,0,0,1-.23-.23l-.65-.7c-.59-.61-1.36-1.58-2.49-2.71a90.72,90.72,0,0,0-10-9c-2.24-1.77-4.82-3.55-7.64-5.35a98.92,98.92,0,0,0-9.4-5.11,90.09,90.09,0,0,0-23.31-7.3,89.78,89.78,0,0,0-24.43-.55,93.67,93.67,0,0,0-10.54,1.83c-3.26.8-6.26,1.66-9,2.61a90.59,90.59,0,0,0-12.39,5.36c-1.43.71-2.48,1.38-3.22,1.77l-.84.46a1.21,1.21,0,0,1-.3.14l.27-.19.81-.5c.73-.42,1.77-1.12,3.19-1.85a83.94,83.94,0,0,1,12.36-5.53,91.3,91.3,0,0,1,9-2.69,93.67,93.67,0,0,1,10.58-1.89,86.87,86.87,0,0,1,48,7.9,94,94,0,0,1,9.42,5.18,90.3,90.3,0,0,1,7.63,5.42,83.13,83.13,0,0,1,9.94,9.19c1.11,1.15,1.87,2.15,2.43,2.78.25.3.45.55.61.73A1.25,1.25,0,0,1,138.34,139.67Z" style="fill:#263238"></path><path d="M98.14,104.09a1.87,1.87,0,0,1,.53.18l1.49.6c1.28.55,3.13,1.36,5.37,2.45a143.36,143.36,0,0,1,16.87,9.73,74.58,74.58,0,0,1,8.57,6.48,28.1,28.1,0,0,1,5.65,6.71,16.22,16.22,0,0,1,2.08,5.54,10,10,0,0,1,.17,1.6,2,2,0,0,1,0,.56,2.15,2.15,0,0,1-.1-.55,12.58,12.58,0,0,0-.27-1.57,17.16,17.16,0,0,0-2.19-5.39,29,29,0,0,0-5.66-6.54,77.83,77.83,0,0,0-8.54-6.41,163.35,163.35,0,0,0-16.75-9.83c-2.21-1.13-4-2-5.29-2.59l-1.44-.7A2.41,2.41,0,0,1,98.14,104.09Z" style="fill:#263238"></path><path d="M43.91,192.79a1.19,1.19,0,0,1,.08-.29c.08-.21.19-.48.31-.82.3-.71.67-1.79,1.28-3.12a80,80,0,0,1,5.83-10.93,82.51,82.51,0,0,1,11.53-14.31,92.5,92.5,0,0,1,8.19-7.14,95.81,95.81,0,0,1,9.72-6.45,86.36,86.36,0,0,1,20.81-8.54,90,90,0,0,1,9.62-2c3.06-.42,5.91-.72,8.53-.83a83,83,0,0,1,12.39.3c1.46.11,2.58.32,3.34.41l.87.14.29.06a1.69,1.69,0,0,1-.3,0l-.87-.08c-.77-.06-1.89-.24-3.35-.32a88.49,88.49,0,0,0-12.35-.13c-2.61.13-5.45.45-8.48.89a91.64,91.64,0,0,0-9.57,2,86.9,86.9,0,0,0-20.67,8.53,95.9,95.9,0,0,0-9.67,6.41,91.61,91.61,0,0,0-8.16,7.08,83.72,83.72,0,0,0-11.56,14.16,86.78,86.78,0,0,0-6,10.82c-.64,1.31-1,2.37-1.36,3.07-.15.33-.26.59-.36.8S43.91,192.79,43.91,192.79Z" style="fill:#263238"></path><path d="M136.69,139.1a1.48,1.48,0,0,1-.3-.08l-.86-.3c-.76-.24-1.84-.71-3.3-1.13a69.59,69.59,0,0,0-12.49-2.75,69.63,69.63,0,0,0-18.92.07,70,70,0,0,0-22.09,6.83A77.92,77.92,0,0,0,68.49,148,72.24,72.24,0,0,0,60,155.33a69.05,69.05,0,0,0-6.51,7.76,62.55,62.55,0,0,0-4.57,7.55,60.09,60.09,0,0,0-4.58,11.93c-.42,1.45-.6,2.62-.8,3.39-.09.37-.16.66-.21.88a1.31,1.31,0,0,1-.09.3,1.88,1.88,0,0,1,0-.31c0-.22.09-.52.16-.89.16-.78.31-2,.71-3.42a57.68,57.68,0,0,1,4.44-12.05,61.14,61.14,0,0,1,4.55-7.63A65.85,65.85,0,0,1,59.67,155a72.13,72.13,0,0,1,8.51-7.39,79.19,79.19,0,0,1,10.32-6.34,69.37,69.37,0,0,1,22.26-6.83,74.33,74.33,0,0,1,10.17-.64,73.55,73.55,0,0,1,8.86.67,67.1,67.1,0,0,1,12.51,2.93c1.45.45,2.52.95,3.27,1.22l.84.35Z" style="fill:#263238"></path><path d="M169.48,158.57a6.38,6.38,0,0,1-1.1-.82c-.67-.55-1.66-1.34-2.9-2.3a113.47,113.47,0,0,0-20.71-12.9c-1.4-.69-2.55-1.22-3.35-1.59a7.66,7.66,0,0,1-1.21-.62,7.13,7.13,0,0,1,1.29.43c.82.31,2,.8,3.43,1.44A94.37,94.37,0,0,1,155.75,148a92.27,92.27,0,0,1,10,7.16c1.21,1,2.17,1.84,2.81,2.44A7.05,7.05,0,0,1,169.48,158.57Z" style="fill:#263238"></path><path d="M606.85,165s-35,189.27-1.17,304.76h35s-28-135.51-24.44-221.13L619.8,163Z" style="fill:#263238"></path><path d="M616.84,290.65a3.74,3.74,0,0,1-.85.53c-.57.32-1.41.75-2.46,1.24a58.41,58.41,0,0,1-8.51,3.13,57.75,57.75,0,0,1-8.89,1.78c-1.15.14-2.09.21-2.74.24a3.47,3.47,0,0,1-1,0c0-.08,1.42-.23,3.7-.59a78.83,78.83,0,0,0,8.8-1.92,76.59,76.59,0,0,0,8.5-3C615.51,291.19,616.81,290.58,616.84,290.65Z" style="fill:#FF725E"></path><path d="M617.79,304.87a4.18,4.18,0,0,1-.9.51c-.6.31-1.48.72-2.57,1.2a82.62,82.62,0,0,1-8.79,3.19,80.54,80.54,0,0,1-9.1,2.15c-1.18.2-2.14.34-2.81.41a4.28,4.28,0,0,1-1,.07,36.74,36.74,0,0,1,3.78-.84c2.33-.5,5.53-1.25,9-2.29s6.58-2.17,8.8-3A35.15,35.15,0,0,1,617.79,304.87Z" style="fill:#FF725E"></path><path d="M617.28,277a10.68,10.68,0,0,1-.57,1.6c-.39,1-1,2.47-1.84,4.23a92.91,92.91,0,0,1-17.25,25c-1.35,1.4-2.49,2.5-3.3,3.22a12.69,12.69,0,0,1-1.29,1.1,8.8,8.8,0,0,1,1.15-1.24c.77-.77,1.86-1.9,3.18-3.33a106.11,106.11,0,0,0,17.18-24.87c.86-1.74,1.54-3.16,2-4.15A10.41,10.41,0,0,1,617.28,277Z" style="fill:#FF725E"></path><path d="M619.73,305.22a5.67,5.67,0,0,1-1.15-.54c-.73-.37-1.76-.94-3-1.67-2.52-1.46-5.94-3.61-9.56-6.2s-6.75-5.13-9-7.05c-1.1-1-2-1.75-2.56-2.32a6.52,6.52,0,0,1-.88-.91,5.62,5.62,0,0,1,1,.76l2.67,2.19c2.25,1.84,5.4,4.32,9,6.91s7,4.76,9.45,6.3l2.93,1.82A6.84,6.84,0,0,1,619.73,305.22Z" style="fill:#FF725E"></path><path d="M593.8,285.57s-.09.44-.75.77a2.36,2.36,0,0,1-1.27.21,5.76,5.76,0,0,1-1.63-.46,30.36,30.36,0,0,1-3.86-1.91c-.7-.41-1.42-.87-2.15-1.38a9.83,9.83,0,0,1-1.09-.85,1.51,1.51,0,0,1-.47-1.51,1.62,1.62,0,0,1,1.22-1,2.79,2.79,0,0,1,1.45.16,15.59,15.59,0,0,1,2.32,1.11,17.43,17.43,0,0,1,3.45,2.62,16.31,16.31,0,0,1,1.89,2.21,3.83,3.83,0,0,1,.54.93c-.08,0-.9-1.24-2.68-2.87a18.66,18.66,0,0,0-3.43-2.47,16.75,16.75,0,0,0-2.26-1.05,2.3,2.3,0,0,0-1.18-.13,1.08,1.08,0,0,0-.82.66,1,1,0,0,0,.34,1,8.13,8.13,0,0,0,1,.79c.71.51,1.41,1,2.09,1.39a35.16,35.16,0,0,0,3.77,2,3.34,3.34,0,0,0,2.67.4A2.44,2.44,0,0,0,593.8,285.57Z" style="fill:#FF725E"></path><path d="M592.64,286.4a3.38,3.38,0,0,1-.72-.78,14.64,14.64,0,0,1-1.58-2.43,17.63,17.63,0,0,1-1.51-4,16.36,16.36,0,0,1-.42-2.52,12,12,0,0,1-.06-1.37,2.29,2.29,0,0,1,.52-1.43,1,1,0,0,1,.85-.31,1.11,1.11,0,0,1,.72.47,5.87,5.87,0,0,1,.58,1.27q.47,1.25.81,2.4a41.55,41.55,0,0,1,1,4.16c.23,1.2.37,2.18.44,2.85a4.26,4.26,0,0,1,0,1.06c-.08,0-.3-1.48-.85-3.83-.28-1.18-.65-2.57-1.14-4.09q-.37-1.14-.84-2.37a5.45,5.45,0,0,0-.51-1.14.48.48,0,0,0-.78-.11,1.9,1.9,0,0,0-.39,1.1c0,.41,0,.87.06,1.29a18.39,18.39,0,0,0,.37,2.46,18.67,18.67,0,0,0,1.38,4C591.72,285.2,592.72,286.34,592.64,286.4Z" style="fill:#FF725E"></path><path d="M507.66,171.26c7.79-20.9,26.06-38.22,48-42.38s46.5,6.39,56.52,26.32l-2.18.58a111,111,0,0,1-55.89,17.43l3.86-8.58A90.77,90.77,0,0,1,507.66,171.26Z" style="fill:#455a64"></path><path d="M618.09,159.85C618.69,145,627.65,131,640.2,123s28.26-10.4,43-8,28.39,9.47,40,18.76c.4.32.84.73.79,1.23s-.64.87-1.15,1.09L708,142.49c-4,1.72-8.08,3.45-12.41,3.8s-9-.95-11.74-4.35l4.29,7.52A101.51,101.51,0,0,1,622.3,155" style="fill:#455a64"></path><path d="M619.27,153.31c16.58-8.89,36.21-3.69,53.06,4.68a60.24,60.24,0,0,1,32.14,43.8c.3,1.92.46,4.06-.65,5.65a6.72,6.72,0,0,1-3.93,2.3,17.31,17.31,0,0,1-21.49-18.61,41.7,41.7,0,0,0-3.75,13.44l-51.19-35.64c-4.85-3.38-6.63-4.84-11.3-6.31Z" style="fill:#455a64"></path><path d="M558.67,194.92c4-8.12,10.74-14.47,17.6-20.35,5.43-4.66,11.08-9.19,17.58-12.16s14-4.27,20.87-2.24l-1.39.58c5.64,22-9.8,47.56-26.31,63.21a12.63,12.63,0,0,1-7.25-5.4q3,4.75,6.08,9.51A200.12,200.12,0,0,1,562.94,249c-3.44-8.66-6.6-17.52-7.86-26.76S554.59,203.3,558.67,194.92Z" style="fill:#455a64"></path><path d="M600.46,157.92l10.49-1.2c19.95,3.94,36.28,20.51,42.06,40s1.68,41.21-8.89,58.58c-7.61-8.6-15.26-17.25-21.32-27-1.78-2.87-3.45-5.91-3.88-9.25a10.25,10.25,0,0,1,1.91-7.55c-2.36,2.06-5.29,3.67-7.87,2.23a8.08,8.08,0,0,1-2.63-2.9c-5.15-7.93-10-16.23-12.43-25.38S595.75,166.12,600.46,157.92Z" style="fill:#455a64"></path><path d="M600.94,102.39a78.17,78.17,0,0,1,30.6-46.24c1.27-.91,2.84-1.83,4.32-1.31a5,5,0,0,1,2.48,2.79,82.91,82.91,0,0,1,6.91,53c-3.62,17.77-16.76,42.17-30.53,54l-7.79-4.69C597.64,143.39,596.84,120.84,600.94,102.39Z" style="fill:#455a64"></path><path d="M612.41,159.82a18.26,18.26,0,0,1,4.27.5,27.8,27.8,0,0,1,10.59,5,34.43,34.43,0,0,1,5.89,5.6,41.63,41.63,0,0,1,5.07,7.82,76.46,76.46,0,0,1,6.42,20.3,137.41,137.41,0,0,1,2,38.58c-.46,4.94-1.08,8.9-1.59,11.63-.24,1.36-.49,2.41-.63,3.12q-.12.5-.18.81c-.05.18-.08.28-.08.27a1.19,1.19,0,0,1,0-.28l.13-.82c.12-.72.33-1.77.54-3.14.44-2.73,1-6.69,1.42-11.62a141.52,141.52,0,0,0-2.09-38.45,77,77,0,0,0-6.34-20.18,41.75,41.75,0,0,0-5-7.77,34.57,34.57,0,0,0-5.77-5.58,28.21,28.21,0,0,0-10.41-5.07c-.67-.17-1.27-.29-1.8-.37s-1-.16-1.33-.19l-.82-.09A1.47,1.47,0,0,1,612.41,159.82Z" style="fill:#263238"></path><path d="M610,155.78a4.54,4.54,0,0,1,.85.09c.55.1,1.38.17,2.42.41a42.86,42.86,0,0,1,8.61,2.74,47.7,47.7,0,0,1,5.55,2.87,51.74,51.74,0,0,1,5.82,4.19,56.83,56.83,0,0,1,10.9,12.25,77.16,77.16,0,0,1,7.65,14.51,59.7,59.7,0,0,1,2.2,6.83,49.13,49.13,0,0,1,1.09,6.15,39,39,0,0,1,0,9c-.1,1.07-.31,1.87-.4,2.43a5.88,5.88,0,0,1-.18.83,4.87,4.87,0,0,1,.08-.85c.05-.56.23-1.37.3-2.43a40.88,40.88,0,0,0-.14-9,50.65,50.65,0,0,0-1.14-6.1,61.75,61.75,0,0,0-2.22-6.76,79.08,79.08,0,0,0-7.65-14.39,56.88,56.88,0,0,0-10.77-12.17,51.09,51.09,0,0,0-5.74-4.19,49.22,49.22,0,0,0-5.47-2.91,46.6,46.6,0,0,0-8.5-2.87c-1-.27-1.85-.38-2.4-.51A6.6,6.6,0,0,1,610,155.78Z" style="fill:#263238"></path><path d="M599.42,164.7a10,10,0,0,1-.26,1.58c-.11.51-.23,1.12-.32,1.84s-.26,1.54-.32,2.46-.19,1.9-.21,3,0,2.23,0,3.44a47,47,0,0,0,3.13,15.35c.46,1.12.87,2.19,1.36,3.15s.92,1.86,1.36,2.67.88,1.5,1.25,2.13.72,1.15,1,1.57a10,10,0,0,1,.85,1.35,9.66,9.66,0,0,1-1-1.23,18,18,0,0,1-1.09-1.53c-.4-.62-.89-1.3-1.33-2.11s-1-1.68-1.43-2.66-.94-2-1.42-3.17a47.39,47.39,0,0,1-2.27-7.61,49,49,0,0,1-.89-7.9c0-1.22,0-2.38.07-3.47s.17-2.09.28-3,.28-1.73.4-2.46.28-1.33.41-1.83A8.48,8.48,0,0,1,599.42,164.7Z" style="fill:#263238"></path><path d="M564.58,247.23s0-.07-.08-.22l-.21-.66c-.16-.58-.46-1.43-.72-2.55a66.79,66.79,0,0,1-1.7-9.6,70.92,70.92,0,0,1,3.9-31.71,71.58,71.58,0,0,1,8.18-15.7,70.34,70.34,0,0,1,9.39-11,65,65,0,0,1,7.51-6.21c.93-.69,1.7-1.14,2.2-1.48l.59-.37.2-.11s-.05.06-.18.16l-.55.41c-.48.36-1.23.84-2.14,1.55a75,75,0,0,0-7.38,6.31,72.06,72.06,0,0,0-19.82,67.7c.23,1.12.49,2,.62,2.57.06.26.12.48.16.67A.67.67,0,0,1,564.58,247.23Z" style="fill:#263238"></path><path d="M509.56,169.9s0-.09.15-.25l.51-.69c.46-.59,1.09-1.5,2-2.6a101.18,101.18,0,0,1,8.09-9c1.81-1.8,3.9-3.67,6.2-5.6a84.49,84.49,0,0,1,7.75-5.65,68.68,68.68,0,0,1,20-8.89,58.19,58.19,0,0,1,11.28-1.61,57.2,57.2,0,0,1,10.6.59A49.93,49.93,0,0,1,593.11,142a42.31,42.31,0,0,1,5.72,3.85c.78.65,1.52,1.24,2.16,1.83l1.69,1.68a12.77,12.77,0,0,1,1.27,1.4l.89,1.07.53.67c.12.15.18.23.17.24l-.21-.21-.57-.63c-.26-.29-.57-.63-.92-1a14.66,14.66,0,0,0-1.31-1.36c-.51-.5-1.08-1-1.71-1.64s-1.39-1.14-2.17-1.78a43,43,0,0,0-5.72-3.76,50,50,0,0,0-16.84-5.6,56.17,56.17,0,0,0-10.5-.56,58.63,58.63,0,0,0-11.17,1.6,69.16,69.16,0,0,0-19.9,8.79,87.47,87.47,0,0,0-7.74,5.58c-2.3,1.92-4.4,3.76-6.21,5.54a111.63,111.63,0,0,0-8.19,8.84c-.93,1.08-1.59,2-2.08,2.54l-.54.66Z" style="fill:#263238"></path><path d="M635.57,54a1.52,1.52,0,0,1-.11.25l-.35.7-1.39,2.65c-.62,1.15-1.36,2.56-2.17,4.23s-1.79,3.52-2.74,5.65c-.48,1.06-1,2.16-1.53,3.32s-1,2.38-1.57,3.63c-1.11,2.51-2.14,5.24-3.27,8.1-2.16,5.77-4.32,12.18-6.24,19s-3.33,13.47-4.45,19.52c-.51,3-1,5.91-1.37,8.63-.18,1.35-.39,2.66-.53,3.92s-.27,2.48-.39,3.64c-.29,2.31-.41,4.41-.57,6.25s-.25,3.44-.32,4.74-.13,2.27-.17,3q0,.48-.06.78a1.14,1.14,0,0,1,0,.27,1.1,1.1,0,0,1,0-.27v-.78c0-.73.05-1.73.08-3s.09-2.9.23-4.75.23-3.95.49-6.27c.12-1.16.24-2.38.36-3.64s.33-2.58.5-3.94c.33-2.72.83-5.61,1.33-8.66,1.09-6.07,2.53-12.7,4.42-19.57s4.1-13.28,6.29-19c1.14-2.86,2.2-5.6,3.33-8.1.55-1.25,1.06-2.48,1.6-3.63l1.56-3.31c1-2.12,2-4,2.81-5.63s1.61-3.05,2.25-4.18L635,54.87l.4-.67A1,1,0,0,1,635.57,54Z" style="fill:#263238"></path><path d="M609.38,154.32s.06-.1.2-.26l.61-.74c.55-.63,1.31-1.62,2.42-2.78a83.93,83.93,0,0,1,9.94-9.19,90.55,90.55,0,0,1,7.64-5.42,92.66,92.66,0,0,1,9.41-5.18,86.74,86.74,0,0,1,48-7.89,91.54,91.54,0,0,1,10.58,1.88c3.27.83,6.28,1.71,9,2.69A84.64,84.64,0,0,1,719.53,133c1.42.73,2.45,1.43,3.18,1.85l.81.5c.19.12.28.18.27.19l-.29-.14-.84-.46c-.75-.39-1.8-1.06-3.23-1.76A88.82,88.82,0,0,0,707,127.78a92.32,92.32,0,0,0-8.95-2.62,95.79,95.79,0,0,0-10.53-1.83,87.14,87.14,0,0,0-47.75,7.86,96.72,96.72,0,0,0-9.4,5.1c-2.82,1.81-5.39,3.58-7.63,5.35a88.89,88.89,0,0,0-10,9c-1.13,1.13-1.91,2.1-2.49,2.71l-.65.7C609.47,154.25,609.39,154.33,609.38,154.32Z" style="fill:#263238"></path><path d="M649.58,118.74a1.93,1.93,0,0,1-.49.27l-1.44.7c-1.26.6-3.08,1.47-5.29,2.6a161.81,161.81,0,0,0-16.75,9.83,77.5,77.5,0,0,0-8.54,6.4,28.92,28.92,0,0,0-5.65,6.54,17.22,17.22,0,0,0-2.2,5.39A15.24,15.24,0,0,0,609,152a2.33,2.33,0,0,1-.1.56,2,2,0,0,1,0-.56,10,10,0,0,1,.17-1.61,16.32,16.32,0,0,1,2.08-5.53,28.37,28.37,0,0,1,5.65-6.72,75.47,75.47,0,0,1,8.57-6.48A141.69,141.69,0,0,1,642.19,122c2.25-1.09,4.09-1.91,5.37-2.46l1.49-.6A2.42,2.42,0,0,1,649.58,118.74Z" style="fill:#263238"></path><path d="M703.82,207.44a1.16,1.16,0,0,1-.14-.27l-.36-.8c-.32-.7-.72-1.76-1.36-3.07a86.78,86.78,0,0,0-6-10.82,83.62,83.62,0,0,0-11.55-14.16,93.21,93.21,0,0,0-8.17-7.08,94.79,94.79,0,0,0-9.67-6.41,87.32,87.32,0,0,0-20.67-8.53,91.64,91.64,0,0,0-9.57-2c-3-.43-5.87-.76-8.48-.89a88.49,88.49,0,0,0-12.35.13c-1.45.09-2.58.26-3.34.32l-.88.08a1,1,0,0,1-.3,0l.3-.06.86-.13c.77-.1,1.89-.31,3.35-.42a82.77,82.77,0,0,1,12.38-.3c2.62.11,5.48.42,8.53.83a92.74,92.74,0,0,1,9.63,2,86.13,86.13,0,0,1,20.8,8.54,94.22,94.22,0,0,1,9.72,6.46,88,88,0,0,1,8.19,7.14,82,82,0,0,1,11.53,14.3,79.43,79.43,0,0,1,5.83,10.93c.62,1.33,1,2.41,1.28,3.12l.31.82A1.76,1.76,0,0,1,703.82,207.44Z" style="fill:#263238"></path><path d="M611,153.75l.28-.13.84-.35c.75-.27,1.82-.77,3.27-1.22a67.1,67.1,0,0,1,12.51-2.93,77.88,77.88,0,0,1,8.86-.67,74.47,74.47,0,0,1,10.18.64,70,70,0,0,1,22.26,6.83,79.74,79.74,0,0,1,10.31,6.34,71.33,71.33,0,0,1,8.51,7.39,66.66,66.66,0,0,1,6.52,7.84,60.51,60.51,0,0,1,4.55,7.64,56.86,56.86,0,0,1,4.44,12c.4,1.47.55,2.64.72,3.42l.15.9a1,1,0,0,1,0,.3,1.1,1.1,0,0,1-.09-.29c0-.23-.12-.52-.21-.89-.2-.77-.37-1.94-.8-3.39a60.32,60.32,0,0,0-4.58-11.93,61.29,61.29,0,0,0-4.57-7.55,68,68,0,0,0-6.51-7.76,72.94,72.94,0,0,0-8.47-7.31A78.71,78.71,0,0,0,669,156.39a69.91,69.91,0,0,0-22.09-6.83,76.85,76.85,0,0,0-10.11-.68,78,78,0,0,0-8.81.61,70.48,70.48,0,0,0-12.49,2.75c-1.46.42-2.54.89-3.3,1.13l-.86.3Z" style="fill:#263238"></path><path d="M578.24,173.22a6.85,6.85,0,0,1,1-1c.64-.6,1.59-1.44,2.8-2.44a92.54,92.54,0,0,1,20.78-12.94c1.43-.65,2.61-1.14,3.43-1.44a6.82,6.82,0,0,1,1.29-.44,7.09,7.09,0,0,1-1.21.62c-.8.37-1.94.91-3.35,1.59a116.43,116.43,0,0,0-10.7,5.89,118.86,118.86,0,0,0-10,7c-1.23,1-2.22,1.75-2.9,2.31A5.92,5.92,0,0,1,578.24,173.22Z" style="fill:#263238"></path></g></svg>