<svg xmlns="http://www.w3.org/2000/svg" viewBox="0 0 500 500"><g id="freepik--background-complete--inject-51"><path d="M472.63,67.82c.75-5.41-6.89-9.86-12.63-10.33-2.73-.22-5.58.2-8.17-.7-5.61-2-7.86-9.22-13.34-11.53-4.1-1.73-8.81-.19-12.79,1.81s-7.89,4.52-12.33,4.8c-3.86.25-8.05-1.18-11.43.7-2.52,1.41-3.83,4.31-6.15,6s-5.23,2-8.05,2.18-5.73.18-8.29,1.35-4.69,3.89-4.16,6.66Z" style="fill:#f5f5f5"></path><path d="M424.33,412.37c-2.21-11.64-12.3-19.88-22.77-24.09s-21.82-5.49-32.41-9.36c-14.56-5.34-27.26-15.43-41.86-20.61-24.15-8.57-52.51-2-71.09,16.42-15.74-12.27-38.32-6.9-55.24,3.46s-31.61,25.14-50,32.05c-14.37,5.39-29.93,5.55-45.11,7.15S67,425.53,55.42,436.06l429.89-.35C474.63,413.19,445.73,401.34,424.33,412.37Z" style="fill:#f5f5f5"></path><path d="M377,432.67l7-84c8.46-18.34,19.75-57.84,19.75-57.84l50.79-30.33H487l-38.18-2.44-52.49,30.23-5.22-44.52,26.65-27.21L431,186.09l31.61-31.88H461l-31.88,31-12.64,30.23-28,26.66L366.69,213,378,151.46l37.38-41.22,33-6.32,35.45,26.38L450.5,102.82l-34.35,3.57,1.93-9.61L417,55.55l-1.1,1.93L416.43,96,412,108.87l-35.17,37.92-15.67-45.62,7.42-75.29h-1.37l-11,76.94,11,46.17L359,214.66l25.32,35.46,1.29,43.42L366.41,344.1l-27.48,88.49Z" style="fill:#ebebeb"></path><path d="M404.65,163.75a14.25,14.25,0,0,0,2.52,1.78c1.59,1,3.83,2.4,6.31,3.88s4.76,2.79,6.42,3.71a13.48,13.48,0,0,0,2.76,1.36,14.45,14.45,0,0,0-2.52-1.77c-1.6-1-3.83-2.4-6.31-3.88s-4.76-2.79-6.42-3.71A13.93,13.93,0,0,0,404.65,163.75Z" style="fill:#e0e0e0"></path><path d="M330,141.58a12.83,12.83,0,0,0,1.06,2c.73,1.24,1.81,3,3.24,5.18a148.51,148.51,0,0,0,12.25,16c2.6,3,5.22,5.65,7.54,8.13,1.17,1.24,2.31,2.39,3.31,3.51s1.87,2.24,2.65,3.26c1.55,2,2.7,3.78,3.47,5a18.18,18.18,0,0,0,1.24,1.87,2,2,0,0,0-.23-.54c-.17-.34-.43-.84-.78-1.46a54.41,54.41,0,0,0-3.32-5.15c-.76-1-1.62-2.17-2.6-3.33s-2.12-2.31-3.28-3.57c-2.31-2.51-4.91-5.21-7.49-8.16a177.15,177.15,0,0,1-12.37-15.82c-1.47-2.11-2.61-3.86-3.41-5.05A13.9,13.9,0,0,0,330,141.58Z" style="fill:#e0e0e0"></path><path d="M383.56,348.5a1.52,1.52,0,0,0,0-.46c0-.29,0-.73,0-1.29A31.75,31.75,0,0,0,383,342c-.39-2-1-4.29-1.47-6.89a78.16,78.16,0,0,1-1.11-8.52,80.3,80.3,0,0,1,.4-15.61c.25-2,.52-3.59.71-4.69.09-.48.16-.9.23-1.27a1.39,1.39,0,0,0,.05-.45,1.93,1.93,0,0,0-.13.43c-.09.37-.19.78-.3,1.26-.24,1.1-.56,2.69-.84,4.68a73.63,73.63,0,0,0,.62,24.24c.51,2.62,1.14,4.92,1.56,6.88a38.38,38.38,0,0,1,.76,4.67C383.53,347.87,383.53,348.49,383.56,348.5Z" style="fill:#e0e0e0"></path><path d="M369.3,371.2a9,9,0,0,0-.77,1.28,12.09,12.09,0,0,0-1.22,7.19A5.92,5.92,0,0,0,368.9,383a3,3,0,0,0,1.85,1,2.34,2.34,0,0,0,2-.95,5.84,5.84,0,0,0,.93-2.15c.18-.77.37-1.56.54-2.38a68,68,0,0,0,1.37-10.78,19,19,0,0,0-.48-6.06,6.13,6.13,0,0,0-1.56-2.82,3.39,3.39,0,0,0-1.44-.88,2.39,2.39,0,0,0-1.72.2,5.19,5.19,0,0,0-1.32,1.09c-.38.41-.76.83-1.11,1.28a19.19,19.19,0,0,0-1.9,2.86,23.44,23.44,0,0,0-2.42,6.64,31.67,31.67,0,0,0,.76,14.72,52.29,52.29,0,0,0,2.5,7.1,11.07,11.07,0,0,0,1.81,3.25,3.48,3.48,0,0,0,3.49,1,6.79,6.79,0,0,0,3-2,11.13,11.13,0,0,0,2-2.93,28.63,28.63,0,0,0,2.33-6.35,45.65,45.65,0,0,0,1.08-12.43,93.21,93.21,0,0,0-1.14-10.82c-1.07-6.56-2.39-11.78-3.28-15.38-.45-1.76-.81-3.15-1.07-4.14s-.4-1.44-.4-1.44.1.51.33,1.46.57,2.39,1,4.16c.84,3.61,2.12,8.84,3.15,15.39a93.31,93.31,0,0,1,1.08,10.78,45.28,45.28,0,0,1-1.1,12.33,28.26,28.26,0,0,1-2.31,6.27,11.24,11.24,0,0,1-1.9,2.83,6.35,6.35,0,0,1-2.84,1.87,3.06,3.06,0,0,1-3.1-.9,11,11,0,0,1-1.73-3.14,51.89,51.89,0,0,1-2.48-7,31.47,31.47,0,0,1-.76-14.54,23.74,23.74,0,0,1,2.36-6.54,19.88,19.88,0,0,1,1.87-2.81,16.26,16.26,0,0,1,1.09-1.25,4.83,4.83,0,0,1,1.21-1,2.31,2.31,0,0,1,2.74.61,5.8,5.8,0,0,1,1.47,2.65,18.54,18.54,0,0,1,.48,5.95,68.14,68.14,0,0,1-1.31,10.75c-.39,1.59-.55,3.24-1.39,4.42a2.1,2.1,0,0,1-1.78.87,2.79,2.79,0,0,1-1.7-.88,5.72,5.72,0,0,1-1.56-3.19,11.68,11.68,0,0,1-.06-3.05,12.45,12.45,0,0,1,1.16-4.08,10.3,10.3,0,0,1,.52-1A3.11,3.11,0,0,0,369.3,371.2Z" style="fill:#e0e0e0"></path><path d="M356.56,387.08a2.39,2.39,0,0,0-.05.45c0,.38-.05.8-.07,1.3,0,1.12-.08,2.75,0,4.76A37.72,37.72,0,0,0,360,408.84a27.42,27.42,0,0,0,5.12,7,50.86,50.86,0,0,0,5.37,4.61c.81.6,1.53,1.14,2.2,1.6a4.71,4.71,0,0,0,1.92.76,1.51,1.51,0,0,0,1.26-.32.77.77,0,0,0,.26-.37s-.08.13-.31.31a1.49,1.49,0,0,1-1.19.22,4.66,4.66,0,0,1-1.82-.79l-2.14-1.64c-3.1-2.47-7.56-6.06-10.31-11.55a38.8,38.8,0,0,1-3.59-15.08c-.12-2-.12-3.62-.14-4.74v-1.3A2.71,2.71,0,0,0,356.56,387.08Z" style="fill:#e0e0e0"></path><path d="M376.86,239.18a15.94,15.94,0,0,1,3.36,1.51,18.43,18.43,0,0,1,6.66,7.35c2,3.76,3,8.84,3.21,14.46.12,2.81.12,5.77.13,8.84a69.52,69.52,0,0,1-.57,9.45c-.45,3.22-1.17,6.32-1.63,9.37a50.1,50.1,0,0,0-.59,8.85A133.29,133.29,0,0,0,388.82,314a48.74,48.74,0,0,0,2.1,9.89,18.35,18.35,0,0,0,1.5,3.39s-.12-.3-.38-.87-.61-1.43-1-2.57a52.69,52.69,0,0,1-2-9.88A140.53,140.53,0,0,1,387.81,299a50.37,50.37,0,0,1,.6-8.79c.47-3,1.19-6.13,1.65-9.37a68.9,68.9,0,0,0,.55-9.51c0-3.07,0-6-.15-8.86-.23-5.64-1.25-10.77-3.32-14.57a18.41,18.41,0,0,0-6.84-7.36,13.06,13.06,0,0,0-2.51-1.13C377.18,239.25,376.86,239.18,376.86,239.18Z" style="fill:#e0e0e0"></path><path d="M367.51,223.89a5.88,5.88,0,0,0,1.26,1.22,18.61,18.61,0,0,0,3.55,2.25,19.25,19.25,0,0,0,4,1.41A6.07,6.07,0,0,0,378,229a45.13,45.13,0,0,1-5.52-2A43.53,43.53,0,0,1,367.51,223.89Z" style="fill:#e0e0e0"></path><path d="M364,187.15a2.54,2.54,0,0,0-.1.78c0,.5-.06,1.23-.06,2.13a45.91,45.91,0,0,0,.55,7,47.51,47.51,0,0,0,1.61,6.86c.28.86.52,1.54.71,2a2.76,2.76,0,0,0,.33.71c.06,0-.29-1.07-.76-2.8a63.38,63.38,0,0,1-1.49-6.84,61.81,61.81,0,0,1-.67-7C364.09,188.27,364.1,187.15,364,187.15Z" style="fill:#e0e0e0"></path><path d="M368,172.7a1,1,0,0,0,0,.23c0,.2,0,.42.07.67.05.59.12,1.46.14,2.59a30,30,0,0,1-1.3,9.35l.27,0c-.81-1.51-.78-3.44-.65-5.42s.23-4.13.41-6.36a60.7,60.7,0,0,1,2.57-14.15,8.75,8.75,0,0,1,1.87-3.43c.41-.47,1.08-.68,1.38-.19a3,3,0,0,1,.21,1.77c-.17,2.56-.33,5-.48,7.39-.3,4.7-.57,8.94-.8,12.53a68.28,68.28,0,0,1-.79,8.4c-.19,1-.38,1.73-.53,2.24a4.63,4.63,0,0,0-.21.77,15.37,15.37,0,0,0,.89-3,61.11,61.11,0,0,0,.93-8.42c.25-3.59.55-7.83.88-12.52q.24-3.54.5-7.4a3.3,3.3,0,0,0-.27-2,1,1,0,0,0-1.06-.43,1.85,1.85,0,0,0-.94.57,9.25,9.25,0,0,0-2,3.58,60.77,60.77,0,0,0-2.56,14.25c-.17,2.24-.28,4.37-.38,6.37s-.14,4,.74,5.58l.17.32.1-.35a29.08,29.08,0,0,0,1.19-9.45A20.61,20.61,0,0,0,368,172.7Z" style="fill:#e0e0e0"></path><path d="M460,235.06a4.8,4.8,0,0,0-.54.92c-.4.74-.85,1.6-1.36,2.56-1.13,2.18-2.67,5.2-4.34,8.55s-3.15,6.4-4.19,8.62a22.84,22.84,0,0,0-1.57,3.66,23.52,23.52,0,0,0,2-3.45c1.16-2.16,2.71-5.18,4.38-8.53s3.14-6.4,4.16-8.64A16.68,16.68,0,0,0,460,235.06Z" style="fill:#ebebeb"></path><path d="M452.54,249.79c.12.16,3.11-2,7-4.31s7.21-3.94,7.13-4.12-3.54,1.18-7.47,3.54S452.43,249.66,452.54,249.79Z" style="fill:#ebebeb"></path><path d="M471.6,260.13c-.12.15,3.21,2.9,7.09,6.51s6.89,6.71,7,6.58A10.52,10.52,0,0,0,484,271c-1.17-1.3-2.85-3-4.81-4.85s-3.81-3.36-5.2-4.43A10.43,10.43,0,0,0,471.6,260.13Z" style="fill:#ebebeb"></path><path d="M478.22,265.74c-.05.18,2.22,1,5.07,1.72s5.24,1.19,5.28.91a7.19,7.19,0,0,0-1.47-.53c-.92-.29-2.21-.66-3.63-1C480.61,266.05,478.27,265.56,478.22,265.74Z" style="fill:#ebebeb"></path><path d="M409.45,144.28a9.58,9.58,0,0,0,.63,1.73c.51,1.2,1.17,2.75,1.95,4.6,1.68,3.88,4,9.21,6.67,15.08.67,1.47,1.31,2.9,1.94,4.29l.92,2a11.82,11.82,0,0,1,.69,2,8.79,8.79,0,0,0,2.27,3.36l2.33,2.55,3.41,3.65a9.72,9.72,0,0,0,1.32,1.28,9,9,0,0,0-1.12-1.45l-3.25-3.8-2.27-2.6a8.54,8.54,0,0,1-2.1-3.17,12.71,12.71,0,0,0-.68-2.06l-.91-2.05c-.62-1.39-1.27-2.82-1.92-4.29-2.65-5.88-5.08-11.19-6.86-15-.87-1.81-1.59-3.33-2.15-4.51A9.32,9.32,0,0,0,409.45,144.28Z" style="fill:#ebebeb"></path><path d="M403.18,148.48c-.11.15,2.64,2.4,6.15,5s6.45,4.62,6.56,4.47-2.64-2.4-6.15-5S403.29,148.34,403.18,148.48Z" style="fill:#ebebeb"></path><path d="M417.61,162.58a15.76,15.76,0,0,0,.26-3.27c.09-2.26.19-4.94.3-7.89s.23-5.63.32-7.89a15.72,15.72,0,0,0,0-3.28,14.81,14.81,0,0,0-.47,3.25c-.2,2-.41,4.8-.53,7.89s-.14,5.89-.1,7.92A15.26,15.26,0,0,0,417.61,162.58Z" style="fill:#ebebeb"></path><path d="M452.12,163.42c0,.06.34-.1.95-.15a9.57,9.57,0,0,1,2.59.25c2.27.51,5.42,0,8.8-.27s6.5-.68,8.72-1a19.79,19.79,0,0,0,3.59-.59,18.62,18.62,0,0,0-3.63.12c-2.24.16-5.33.43-8.74.77s-6.48.84-8.67.47a7.94,7.94,0,0,0-2.7,0A1.61,1.61,0,0,0,452.12,163.42Z" style="fill:#ebebeb"></path><path d="M464.7,163.05s.05,0,0-.06-.13-.11-.18,0,.2.25.34.38c.32.23.79.55,1.38.92,1.18.76,2.83,1.76,4.68,2.83,3.69,2.14,6.75,3.74,6.84,3.58s-2.82-2-6.51-4.17c-1.84-1.06-3.52-2-4.76-2.64S464.38,162.92,464.7,163.05Z" style="fill:#ebebeb"></path><path d="M448.9,103.9a5.76,5.76,0,0,0,1.28-.82l3.34-2.42c2.82-2,6.72-4.86,11.09-7.88s8.38-5.66,11.3-7.57l3.45-2.27a7.07,7.07,0,0,0,1.22-.9,6.08,6.08,0,0,0-1.36.68c-.86.47-2.07,1.18-3.57,2.09-3,1.8-7,4.39-11.43,7.42s-8.24,5.9-11,8c-1.38,1.08-2.48,2-3.22,2.59A7.49,7.49,0,0,0,448.9,103.9Z" style="fill:#ebebeb"></path><path d="M473,86.45c.14.1,1.48-1.63,2.48-4.12s1.25-4.67,1.08-4.69-.72,2-1.7,4.43S472.82,86.34,473,86.45Z" style="fill:#ebebeb"></path><path d="M460,95.62c0,.18,5.26-.86,11.64-2.32s11.53-2.79,11.49-3-5.25.85-11.64,2.31S460,95.44,460,95.62Z" style="fill:#ebebeb"></path><path d="M416.42,100.85a11.75,11.75,0,0,0,1.49-1.33c.92-.89,2.24-2.2,3.85-3.83,3.22-3.27,7.6-7.86,12.29-13.06s8.82-10,11.74-13.56c1.46-1.77,2.63-3.21,3.42-4.22a10.36,10.36,0,0,0,1.17-1.62A12.16,12.16,0,0,0,449,64.68l-3.58,4.08c-3,3.46-7.19,8.22-11.88,13.42s-9,9.83-12.13,13.18l-3.7,4A11.94,11.94,0,0,0,416.42,100.85Z" style="fill:#ebebeb"></path><path d="M436.66,78.82a17.4,17.4,0,0,0,3.24-1.25c2-.85,4.65-2.07,7.61-3.46s5.62-2.67,7.53-3.64a18.37,18.37,0,0,0,3-1.68A17.1,17.1,0,0,0,454.84,70c-2,.85-4.66,2.07-7.62,3.46s-5.61,2.67-7.52,3.64A17.83,17.83,0,0,0,436.66,78.82Z" style="fill:#ebebeb"></path><path d="M437.36,69c-.18-.06-1.45,3.07-2.64,7s-1.86,7.29-1.68,7.33,1.14-3.17,2.33-7.14S437.53,69.1,437.36,69Z" style="fill:#ebebeb"></path><path d="M362.34,70a12.2,12.2,0,0,0-.8-1.83c-.55-1.16-1.38-2.82-2.43-4.87-2.09-4.08-5.08-9.67-8.54-15.76S343.83,36,341.39,32.13c-1.22-1.94-2.22-3.5-2.93-4.57a11,11,0,0,0-1.17-1.62,11.83,11.83,0,0,0,.94,1.76L341,32.38c2.33,3.95,5.54,9.41,9,15.49s6.5,11.63,8.7,15.66l2.62,4.76A11.23,11.23,0,0,0,362.34,70Z" style="fill:#ebebeb"></path><path d="M347.78,43.86a17,17,0,0,0-.17-3.46c-.19-2.14-.51-5.08-.89-8.32s-.78-6.17-1.09-8.29a18.34,18.34,0,0,0-.65-3.41,17.7,17.7,0,0,0,.18,3.47c.19,2.13.5,5.07.89,8.31s.77,6.17,1.09,8.29A17.93,17.93,0,0,0,347.78,43.86Z" style="fill:#ebebeb"></path><path d="M420,37.2a18.22,18.22,0,0,0-.63,3.25c-.35,2.25-.77,4.91-1.23,7.85s-.92,5.6-1.29,7.85a16.9,16.9,0,0,0-.41,3.27,15.14,15.14,0,0,0,.88-3.18c.45-2,1-4.76,1.48-7.83s.85-5.87,1-7.9A15.08,15.08,0,0,0,420,37.2Z" style="fill:#ebebeb"></path><path d="M418.2,49.43c.13.13,2.1-1.55,4.25-3.9S426.12,41.06,426,41s-1.87,1.78-4,4.12S418.07,49.29,418.2,49.43Z" style="fill:#ebebeb"></path><path d="M467.26,117.24c0,.18,4.92-.54,10.91-1.62s10.81-2.1,10.78-2.28-4.91.54-10.9,1.62S467.23,117.06,467.26,117.24Z" style="fill:#ebebeb"></path><path d="M322,166.43a2.83,2.83,0,0,0,.91.25,14.9,14.9,0,0,0,2.55.29,36.13,36.13,0,0,0,8.42-.81c3.23-.64,6.12-1.33,8.23-1.72a28.79,28.79,0,0,0,3.42-.67,12.6,12.6,0,0,0-3.5.2c-2.14.28-5.07.89-8.28,1.53a45.21,45.21,0,0,1-8.28,1C323.35,166.51,322,166.31,322,166.43Z" style="fill:#ebebeb"></path><path d="M324.27,172c.15.1,1.18-1.15,2.3-2.8s1.9-3.08,1.74-3.18-1.18,1.15-2.3,2.8S324.11,171.9,324.27,172Z" style="fill:#ebebeb"></path><path d="M91.92,429.1s-.47,3.9,1.35,4.85,2.87.88,5.36.32S134,428.36,134,428.36a2.77,2.77,0,0,0-1.8-2.46c-1.76-.63-5.94.2-5.94.2l-.68-4.14-3.4.54.75,4.65-16.85,2.66-.57-3.63-2.81,1.64.48,3.08-8,1.26a2.51,2.51,0,0,1-1.61-2.81Z" style="fill:#e0e0e0"></path><path d="M122.12,394.52l5.13,28.61L91.69,429.7c-.42-3.43,16.72-13.65,16.72-13.65l-4-18.2Z" style="fill:#ebebeb"></path><path d="M107.8,416c0,.18.92.09,1.88.5s1.54,1,1.69.94-.3-1.05-1.46-1.52S107.73,415.82,107.8,416Z" style="fill:#e0e0e0"></path><path d="M104.35,418.2c0,.18.8.34,1.53,1s1,1.37,1.21,1.33.1-1-.82-1.8S104.33,418,104.35,418.2Z" style="fill:#e0e0e0"></path><path d="M103.06,423.06c.16,0,.24-.9-.38-1.77s-1.5-1.1-1.55-.94.55.57,1.05,1.29S102.88,423.08,103.06,423.06Z" style="fill:#e0e0e0"></path><path d="M107.34,411.72c.1.15.85-.24,1.85-.35s1.81.05,1.87-.11-.78-.65-2-.5S107.23,411.6,107.34,411.72Z" style="fill:#e0e0e0"></path><path d="M107.4,407.35a3.44,3.44,0,0,0,1.78-.34,7.68,7.68,0,0,0,1.76-.92,7.54,7.54,0,0,0,.92-.73,2,2,0,0,0,.46-.52.75.75,0,0,0-.09-.93,1,1,0,0,0-.83-.26,2.48,2.48,0,0,0-.65.21,6.12,6.12,0,0,0-1,.59,6.38,6.38,0,0,0-1.44,1.38c-.69.92-.85,1.62-.78,1.64s.39-.57,1.11-1.36a7.68,7.68,0,0,1,1.42-1.19,6.8,6.8,0,0,1,1-.5c.36-.17.68-.23.8-.08s.06.08,0,.2a1.43,1.43,0,0,1-.34.38,7.72,7.72,0,0,1-.84.71,9.09,9.09,0,0,1-1.6,1A13.15,13.15,0,0,0,107.4,407.35Z" style="fill:#e0e0e0"></path><path d="M107.68,407.56a3,3,0,0,0,.15-1.81,6,6,0,0,0-.6-1.91,6.55,6.55,0,0,0-.66-1,1.46,1.46,0,0,0-1.3-.69.84.84,0,0,0-.65.63,2.42,2.42,0,0,0-.06.69,3.87,3.87,0,0,0,.22,1.2,4.11,4.11,0,0,0,1.1,1.7c.86.79,1.62.86,1.63.8s-.63-.32-1.32-1.11a4.13,4.13,0,0,1-.87-1.57,3.47,3.47,0,0,1-.16-1c0-.39.07-.72.22-.71s.53.2.73.47a6.14,6.14,0,0,1,.62.88,6.59,6.59,0,0,1,.67,1.72C107.64,406.86,107.58,407.55,107.68,407.56Z" style="fill:#e0e0e0"></path><path d="M125.79,415.34c0,.09-.67.26-1.68.78a9.51,9.51,0,0,0-5.11,6.72c-.23,1.11-.21,1.82-.3,1.83a4,4,0,0,1-.06-1.89,8.8,8.8,0,0,1,1.72-4.21,8.94,8.94,0,0,1,3.6-2.79A4.2,4.2,0,0,1,125.79,415.34Z" style="fill:#fff"></path><path d="M122.29,408.77a27.44,27.44,0,0,1,1.58,7.31,13.7,13.7,0,0,1-1.05-3.6A13.92,13.92,0,0,1,122.29,408.77Z" style="fill:#fff"></path><path d="M101.55,428.2a6.52,6.52,0,0,0-4.25-5c0-.07.43-.08,1.07.13a5,5,0,0,1,2.13,1.47,4.87,4.87,0,0,1,1.09,2.35C101.7,427.79,101.62,428.2,101.55,428.2Z" style="fill:#fff"></path><path d="M77.92,141a6.07,6.07,0,0,1-1.24-10.5l7-2.55q1.88,13.57,3.94,27.12a10.31,10.31,0,0,1-5.44-1.35A4.57,4.57,0,0,1,80,148.85,4.81,4.81,0,0,1,77.92,141Z" style="fill:#e0e0e0"></path><path d="M112.26,134.77l-.35-3.22-19.79-1.2c-6,.13-11.71,6.93-11.32,13C81.24,150,82,158.15,83.45,163c2.86,9.76,10.66,10,10.66,10l1,9.89c.68,5.76,5.68,6.4,11.44,5.74h0a10.5,10.5,0,0,0,9.26-11.3Z" style="fill:#f5f5f5"></path><path d="M83.9,149.87A1.29,1.29,0,0,0,85.3,151a1.23,1.23,0,0,0,1.17-1.32,1.28,1.28,0,0,0-1.4-1.13A1.24,1.24,0,0,0,83.9,149.87Z" style="fill:#e0e0e0"></path><path d="M96.82,148.58a1.29,1.29,0,0,0,1.4,1.13,1.24,1.24,0,0,0,1.17-1.32,1.29,1.29,0,0,0-1.4-1.13A1.23,1.23,0,0,0,96.82,148.58Z" style="fill:#e0e0e0"></path><path d="M83.45,147.27c.18.14,1.06-.7,2.43-.87s2.47.38,2.6.2-.13-.37-.61-.63a3.61,3.61,0,0,0-2.11-.37,3.45,3.45,0,0,0-1.91.9C83.47,146.88,83.36,147.2,83.45,147.27Z" style="fill:#e0e0e0"></path><path d="M97.22,145.93c.18.14,1-.7,2.43-.87s2.47.38,2.6.2-.14-.37-.62-.63a3.58,3.58,0,0,0-2.11-.37,3.45,3.45,0,0,0-1.9.9C97.24,145.54,97.13,145.86,97.22,145.93Z" style="fill:#e0e0e0"></path><path d="M93.32,156.62a10.16,10.16,0,0,0-2.29-.11c-.35,0-.69,0-.78-.25a1.74,1.74,0,0,1,.1-1.07l.69-2.81a45.89,45.89,0,0,0,1.44-7.29,45.93,45.93,0,0,0-2,7.16c-.23,1-.44,1.92-.65,2.81a2.12,2.12,0,0,0,0,1.41.92.92,0,0,0,.65.44,2.4,2.4,0,0,0,.6,0A8.72,8.72,0,0,0,93.32,156.62Z" style="fill:#e0e0e0"></path><path d="M94.12,173.08a26.6,26.6,0,0,0,13.22-5.33s-2.47,7.4-12.9,7.81Z" style="fill:#e0e0e0"></path><path d="M98,158.85a2.78,2.78,0,0,0-2.05-.78c-1.07,0-2.14.18-2.58,1.21a1.46,1.46,0,0,0,.2,1.27c.14.19,0,.1.25.22a6.52,6.52,0,0,0,2.43.91,2,2,0,0,0,2.14-.84A1.77,1.77,0,0,0,98,158.85Z" style="fill:#ebebeb"></path><path d="M97.49,157.06c-.23,0,0,1.5-1.18,2.73s-2.75,1.26-2.74,1.47.39.25,1.07.18a3.73,3.73,0,0,0,2.29-1.15,3.23,3.23,0,0,0,.89-2.28C97.8,157.38,97.59,157,97.49,157.06Z" style="fill:#e0e0e0"></path><path d="M96.19,141.94c.19.36,1.54,0,3.17,0s3,.27,3.17-.1c.08-.17-.19-.49-.76-.79a5.32,5.32,0,0,0-2.43-.51,5.26,5.26,0,0,0-2.41.6C96.37,141.44,96.11,141.77,96.19,141.94Z" style="fill:#e0e0e0"></path><path d="M82.89,142.54c.28.29,1.19-.16,2.32-.32s2.13-.06,2.31-.42c.08-.17-.11-.46-.57-.7a3.42,3.42,0,0,0-3.74.59C82.85,142.07,82.76,142.41,82.89,142.54Z" style="fill:#e0e0e0"></path><path d="M76.16,134.83a6.24,6.24,0,0,1-3.23-6.08,7.14,7.14,0,0,1,4.16-5.61,7,7,0,0,1,1.41-.46,6.46,6.46,0,0,1,3-1.28,3.37,3.37,0,0,1,2.21-2.94,8.12,8.12,0,0,1,3.86-.35,6.55,6.55,0,0,1,10.52-.88,5.36,5.36,0,0,1,8.29,2.26,5.37,5.37,0,0,1,4,1.3,5.26,5.26,0,0,1,1,1.26,5,5,0,0,1,1.19,1.85,6,6,0,0,1,4.11,10.56,5.51,5.51,0,0,1-.08,8.84,7.09,7.09,0,0,1,.17,5.55,3.49,3.49,0,0,1-1.55,1.86,1.4,1.4,0,0,1-.1.39c-.48,1-2,.79-3,.21a12.11,12.11,0,0,1-4.72-6.43c-.94-2.54-1.43-5.23-2.34-7.79l-.07-.18a7.13,7.13,0,0,0-1.81-2.79,18.31,18.31,0,0,1-2.19,1.83,8,8,0,0,1-9.46-.64,11.77,11.77,0,0,1-7,3.65,11.26,11.26,0,0,1-7.68-1.27,3.71,3.71,0,0,1-1.38-1.52A1.14,1.14,0,0,1,76.16,134.83Z" style="fill:#e0e0e0"></path><path d="M112.34,148.15c.13-.09,5.09-2.74,6,2.69s-4.69,5.27-4.73,5.12S112.34,148.15,112.34,148.15Z" style="fill:#f5f5f5"></path><path d="M115,153.61s.11,0,.28.09a.92.92,0,0,0,.71-.11,2.37,2.37,0,0,0,.71-2.29,3.23,3.23,0,0,0-.5-1.31,1.13,1.13,0,0,0-.84-.6.5.5,0,0,0-.51.36c0,.17,0,.27,0,.28s-.13-.07-.13-.3a.6.6,0,0,1,.15-.38.78.78,0,0,1,.5-.23,1.37,1.37,0,0,1,1.14.67,3.24,3.24,0,0,1,.59,1.46,2.47,2.47,0,0,1-1,2.58,1,1,0,0,1-.89,0C115,153.74,114.93,153.62,115,153.61Z" style="fill:#e0e0e0"></path><path d="M117.77,154.52c0-.06.44,0,1.1.41a7,7,0,0,1,2.33,2.23,6.1,6.1,0,0,1,.81,4.78,5.32,5.32,0,0,1-1.51,2.58,5.05,5.05,0,0,1-2.94,1.3,4.43,4.43,0,0,1-3.12-.88,6.31,6.31,0,0,1-1.85-2.3,7,7,0,0,1-.33-4.84,5.48,5.48,0,0,1,1.92-2.62c.61-.46,1-.6,1-.55s-.27.34-.76.86A5.82,5.82,0,0,0,113,158a6.42,6.42,0,0,0,.48,4.19c.73,1.41,2.19,2.78,4,2.55a4.08,4.08,0,0,0,2.34-1,4.3,4.3,0,0,0,1.25-2.06,5.48,5.48,0,0,0-.5-4.13,7.85,7.85,0,0,0-1.92-2.28C118.08,154.81,117.73,154.59,117.77,154.52Z" style="fill:#e0e0e0"></path><path d="M204.66,399.47s3,2.57,4.77,1.61,2.35-1.89,3.28-4.26,15-32.56,15-32.56a2.79,2.79,0,0,0-3.05.1c-1.51,1.1-3.18,5-3.18,5l-3.8-1.76-1.47,3.11,4.28,2-7.27,15.43-3.33-1.56-.22,3.25,2.82,1.33L209,398.52a2.54,2.54,0,0,1-3.24-.25Z" style="fill:#e0e0e0"></path><path d="M193,355.06l26.55,11.83L205,400c-3.08-1.58-1.9-21.5-1.9-21.5l-17.32-6.88Z" style="fill:#ebebeb"></path><path d="M202.73,379c.16.07.59-.71,1.46-1.27s1.73-.69,1.74-.87-1-.35-2.08.36S202.56,378.92,202.73,379Z" style="fill:#e0e0e0"></path><path d="M202.64,383.06c.14.1.72-.47,1.64-.72s1.72-.09,1.79-.26-.81-.67-1.95-.33S202.48,383,202.64,383.06Z" style="fill:#e0e0e0"></path><path d="M205.93,386.86c.09-.13-.61-.71-1.68-.69s-1.75.63-1.65.76.78-.14,1.66-.14S205.84,387,205.93,386.86Z" style="fill:#e0e0e0"></path><path d="M199,377c.18,0,.28-.84.75-1.73s1.06-1.47,1-1.62-1,.29-1.51,1.34S198.79,377,199,377Z" style="fill:#e0e0e0"></path><path d="M195.37,374.43c.07,0,.45-.56.72-1.66a8.19,8.19,0,0,0,.14-3.14,2.13,2.13,0,0,0-.17-.67.76.76,0,0,0-.82-.46,1,1,0,0,0-.68.55,2.09,2.09,0,0,0-.19.66,7.08,7.08,0,0,0-.1,1.19,6.52,6.52,0,0,0,.33,2c.37,1.08.86,1.6.92,1.56s-.26-.64-.5-1.68a7.11,7.11,0,0,1-.06-2.93c.06-.39.19-.69.39-.71s.1,0,.17.12a1.75,1.75,0,0,1,.12.49c.06.38.1.75.12,1.1a9.81,9.81,0,0,1-.1,1.87A12.31,12.31,0,0,0,195.37,374.43Z" style="fill:#e0e0e0"></path><path d="M195.7,374.32c.05,0-.39-.62-1.41-1.14a6.23,6.23,0,0,0-1.92-.57,6.71,6.71,0,0,0-1.19,0,1.51,1.51,0,0,0-1.3.69.84.84,0,0,0,.16.9,2,2,0,0,0,.53.43,4,4,0,0,0,1.11.5,4.25,4.25,0,0,0,2,0c1.14-.27,1.63-.86,1.58-.9a14.55,14.55,0,0,1-1.66.47,4.07,4.07,0,0,1-1.79-.16,3.68,3.68,0,0,1-.94-.45c-.33-.2-.56-.46-.46-.58a1.05,1.05,0,0,1,.8-.34,5.58,5.58,0,0,1,1.08,0,6.23,6.23,0,0,1,1.79.4C195.1,374,195.63,374.4,195.7,374.32Z" style="fill:#e0e0e0"></path><path d="M212.32,363.72c.08,0-.17.7-.31,1.82a9.62,9.62,0,0,0,2.69,8c.79.81,1.39,1.2,1.34,1.27a4,4,0,0,1-1.59-1,8.79,8.79,0,0,1-2.8-8.34A3.76,3.76,0,0,1,212.32,363.72Z" style="fill:#fff"></path><path d="M204.91,362.92a27.18,27.18,0,0,1,6.93,2.8,14.11,14.11,0,0,1-3.56-1.16A13.85,13.85,0,0,1,204.91,362.92Z" style="fill:#fff"></path><path d="M209.33,391a6.58,6.58,0,0,0-6.54.69s.18-.39.71-.8a4.94,4.94,0,0,1,5-.53C209.07,390.64,209.36,390.94,209.33,391Z" style="fill:#fff"></path><path d="M48.82,257.46c-1.57.35-11.91,6.09-11.91,6.09l-3.5,7.66s-.56,5.06.7,5.9l1.4-.56s-.42,1.82.7,1.82H38s.14,2,1.12,1.82a5.9,5.9,0,0,0,1.91-.7s.33,2.24.75,2.38,2.38,1.32,3.08.73,1.54-2.27,1-2.41-2-.28-1.82-1.82a15.61,15.61,0,0,1,2-5.31c.56-.7,4.89-2.52,5.73-3.64a36.83,36.83,0,0,1,4-3.65Z" style="fill:#f5f5f5"></path><path d="M102,178.93c-.86.16-10,4.75-16.1,29.3l-5.63,17.92-34,28s12.87,16.63,15.44,17c0,0,31.09-23.17,34.65-28.91s13.66-27.52,15.44-35,2.78-6.93,3.57-12.87S116.29,176.16,102,178.93Z" style="fill:#ebebeb"></path><path d="M89.16,189.28s3.47-15.87,6.65-20.87,21.07-12.73,21.07-12.73,14.56,14.4,11.53,17.43-8.08,3.64-8.08,3.64S103.57,169.37,89.16,189.28Z" style="fill:#ebebeb"></path><path d="M112.83,277.53s7.36,61.09,13.16,66.66,69.6,32.83,72.94,33.94,8.93-21.19,8.93-21.19S152,327.07,148.69,323.28s-.39-33.92-.39-33.92,4.24-17.62,2.9-22.76l-12.27-12.49Z" style="fill:#e0e0e0"></path><path d="M92.88,274.63s-4.94,44.63-5.83,54.22,18,81.88,18,81.88l20.71-5.18s-12.51-65.11-13-68.68,10.26-25.43,10.26-25.43l2.9-35.69Z" style="fill:#e0e0e0"></path><path d="M88.62,189.68a6.43,6.43,0,0,1-6.09-4.16,10.24,10.24,0,0,1,.38-7.68,25.86,25.86,0,0,1,4.37-6.52c7.36-8.7,16.16-16.56,26.83-20.56,2.75-1,6.19-1.68,8.36.3a5.55,5.55,0,0,1,1,6.21,10,10,0,0,1-4.71,4.6,59.9,59.9,0,0,1-6.23,2.49,40.41,40.41,0,0,0-23.62,25.2" style="fill:#fafafa"></path><path d="M94.39,180.12S83.9,197.34,83.5,202.69s3.17,15.83,3.17,15.83L94.39,231l-.79,10.89-4.67,42.17s48.82-3,65-16.83c0,0-7.32-24.75-17.62-32.47l-1.18-9.9s2.57-1.39,2.77-8.32-15.45-36.42-17.62-39.79S100.5,169.3,94.39,180.12Z" style="fill:#ebebeb"></path><path d="M113.34,194.79a2.73,2.73,0,0,1,.08.58c0,.43.09,1,.14,1.66a24.93,24.93,0,0,1,.12,2.65c0,1,.07,2.21,0,3.51s-.13,2.73-.34,4.25-.45,3.13-.76,4.83A64.08,64.08,0,0,1,109.32,223a66,66,0,0,1-5.15,9.94c-1,1.44-1.85,2.8-2.8,4s-1.82,2.32-2.66,3.32-1.67,1.83-2.37,2.59-1.34,1.37-1.88,1.87l-1.23,1.13a3.74,3.74,0,0,1-.45.37,2.22,2.22,0,0,1,.38-.45l1.16-1.2c.51-.51,1.14-1.14,1.81-1.92s1.5-1.6,2.3-2.63,1.72-2.09,2.6-3.34,1.8-2.57,2.73-4a69,69,0,0,0,5.08-9.88,65.81,65.81,0,0,0,3.23-10.62c.32-1.68.64-3.27.8-4.79s.31-2.92.4-4.21.09-2.46.12-3.49,0-1.91,0-2.64,0-1.23,0-1.67A2,2,0,0,1,113.34,194.79Z" style="fill:#e0e0e0"></path><path d="M108.56,181.38a13.82,13.82,0,0,0-1.54-.79,8,8,0,0,0-4.58-.32,12.23,12.23,0,0,0-5.9,3.43,23.8,23.8,0,0,0-4.77,7A51.07,51.07,0,0,0,89,198.8c-.69,2.55-1.26,4.87-1.81,6.8s-1.06,3.48-1.46,4.53c-.2.52-.37.93-.49,1.2a1.44,1.44,0,0,1-.21.4,13.82,13.82,0,0,1,.51-1.67c.34-1.06.8-2.61,1.3-4.55s1.06-4.28,1.69-6.83a48.86,48.86,0,0,1,2.81-8.19,23.43,23.43,0,0,1,4.91-7.14,12.34,12.34,0,0,1,6.16-3.44,7.88,7.88,0,0,1,4.73.5,5.71,5.71,0,0,1,1.13.66A1.57,1.57,0,0,1,108.56,181.38Z" style="fill:#e0e0e0"></path><path d="M120.71,176.68a16.4,16.4,0,0,1-4.95.52,17,17,0,0,1-5-.48,42.21,42.21,0,0,1,5,0A42.48,42.48,0,0,1,120.71,176.68Z" style="fill:#e0e0e0"></path><path d="M134.33,224.35a5.08,5.08,0,0,1-1.06.58c-.7.35-1.73.81-3,1.35A85.08,85.08,0,0,1,120,229.81,84.23,84.23,0,0,1,109.28,232c-1.38.19-2.5.31-3.28.37a5.87,5.87,0,0,1-1.21,0,5.17,5.17,0,0,1,1.19-.24l3.25-.53c2.74-.47,6.5-1.22,10.59-2.33s7.7-2.38,10.3-3.37l3.07-1.19A5.61,5.61,0,0,1,134.33,224.35Z" style="fill:#e0e0e0"></path><path d="M134.12,231.52c0,.14-7.42,1.86-16.65,3.83s-16.73,3.47-16.76,3.33,7.43-1.86,16.65-3.84S134.09,231.38,134.12,231.52Z" style="fill:#e0e0e0"></path><path d="M121.29,257.88a28.88,28.88,0,0,1-.57-3.26c-.31-2-.79-4.8-1.45-7.84s-1.38-5.76-1.93-7.73a24.15,24.15,0,0,1-.84-3.2,18.65,18.65,0,0,1,1.19,3.1c.64,1.94,1.42,4.67,2.09,7.72a76.41,76.41,0,0,1,1.31,7.9A17.29,17.29,0,0,1,121.29,257.88Z" style="fill:#e0e0e0"></path><path d="M134.87,262.85a6.26,6.26,0,0,1-.36-1.21c-.19-.78-.49-1.91-.9-3.3a60.92,60.92,0,0,0-10.18-20c-.87-1.14-1.61-2.05-2.13-2.67a6.64,6.64,0,0,1-.77-1,5.71,5.71,0,0,1,.92.87c.57.57,1.35,1.45,2.27,2.57A53.67,53.67,0,0,1,134,258.24c.37,1.41.62,2.56.75,3.36A5.28,5.28,0,0,1,134.87,262.85Z" style="fill:#e0e0e0"></path><path d="M114.13,284.2s.06.15.11.45.14.8.23,1.33c.19,1.15.44,2.83.73,4.9.58,4.21,1.37,9.89,2.23,16.17s1.84,12,2.7,16.09c.42,2,.81,3.69,1.09,4.82.12.52.23,1,.32,1.31a2,2,0,0,1,.08.46s-.08-.14-.18-.43-.25-.78-.42-1.29c-.34-1.12-.78-2.75-1.25-4.79-1-4.08-2-9.78-2.85-16.1s-1.59-12.05-2.08-16.19c-.23-2-.42-3.68-.57-4.92,0-.53-.09-1-.13-1.34A1.29,1.29,0,0,1,114.13,284.2Z" style="fill:#ebebeb"></path><path d="M28.51,481.49c9.92-12,27.57-22.28,42.22-17.09a23.11,23.11,0,0,1,38.91-2.67c2.2,3,3.91,6.7,7.33,8.13,3.83,1.6,8.13-.35,12.27-.57a15.12,15.12,0,0,1,15.21,12.38Z" style="fill:#ebebeb"></path><path d="M215.07,44.72c.59-4.28-5.45-7.79-10-8.16-2.17-.17-4.41.16-6.46-.56-4.44-1.55-6.22-7.28-10.55-9.11-3.24-1.37-7-.15-10.11,1.43s-6.24,3.57-9.75,3.79c-3.05.2-6.36-.93-9,.56-2,1.11-3,3.4-4.87,4.75S150.19,39,148,39.15s-4.53.14-6.56,1.07-3.7,3.07-3.28,5.26Z" style="fill:#fafafa"></path><path d="M307.75,84.36c.45-3.25-4.15-5.94-7.6-6.21-1.65-.14-3.36.12-4.92-.43-3.39-1.18-4.74-5.55-8-6.94-2.47-1-5.31-.12-7.7,1.09s-4.76,2.72-7.43,2.89c-2.32.15-4.85-.71-6.88.42-1.52.85-2.31,2.59-3.71,3.63a8.9,8.9,0,0,1-4.85,1.31,13.52,13.52,0,0,0-5,.82c-1.55.7-2.82,2.34-2.5,4Z" style="fill:#ebebeb"></path><path d="M151.51,73.55c.75-5.44-6.93-9.91-12.7-10.38-2.75-.22-5.61.2-8.22-.71-5.65-2-7.9-9.27-13.42-11.59-4.12-1.74-8.86-.19-12.86,1.82s-7.94,4.54-12.4,4.83c-3.88.24-8.1-1.2-11.49.7-2.54,1.41-3.86,4.33-6.19,6s-5.26,2-8.09,2.19-5.77.19-8.35,1.37-4.71,3.9-4.17,6.69Z" style="fill:#f5f5f5"></path></g><g id="freepik--Plants--inject-51"><path d="M53.12,380.89l7.62,54.28,2,.06C61.46,416.8,60.11,398,53.12,380.89Z" style="fill:#455a64"></path><path d="M74.29,378.35C69,384.18,66.82,392.2,65.47,400c-1.91,11-2.08,24.07-1.51,35.25l2.78.06A153.2,153.2,0,0,1,74.29,378.35Z" style="fill:#455a64"></path><path d="M54.52,413a22.59,22.59,0,0,0-2.85-7.72c-2.07-3.09-5.45-5-8.85-6.57s-7-2.74-10-4.85C36.2,399.48,44,401,47.94,406.23c2,2.61,2.79,5.89,3.56,9.08,1.69,6.93,2.72,12.94,4.41,19.88h2.25A177.25,177.25,0,0,0,54.52,413Z" style="fill:#455a64"></path><path d="M68.77,435.23s1.91-21.56,3.33-25.51,14.79-14.9,14.67-14.38-10,12.48-11.46,14.92-3.85,25-3.85,25Z" style="fill:#455a64"></path><path d="M429.45,390.75a8.43,8.43,0,0,1,4.36,4.94,15,15,0,0,1,.58,6.69c-.49,4.35-3,8.73-5.62,12.21-3.66-3.2-4.5-8.77-4.75-11.62-.39-4.51,1.63-12.89,5.43-12.22" style="fill:#FF725E"></path><path d="M433,421.76a7.21,7.21,0,0,1,2.32-6.83,9.56,9.56,0,0,1,7-2.2,4,4,0,0,1,3.08,1.39,3,3,0,0,1,.05,3.11,6.19,6.19,0,0,1-2.3,2.27c-3.17,2-6.6,3.33-10.19,2.26" style="fill:#FF725E"></path><path d="M428.33,435.08a5.55,5.55,0,0,1,.13-.9c.12-.62.26-1.43.44-2.41a25.68,25.68,0,0,1,2.49-7.71,15.48,15.48,0,0,1,5.53-5.87,10.18,10.18,0,0,1,2.26-1c.27-.09.5-.13.65-.17a.67.67,0,0,1,.23,0,16.81,16.81,0,0,0-3,1.39,15.89,15.89,0,0,0-5.37,5.84,27,27,0,0,0-2.55,7.6c-.22,1-.4,1.83-.54,2.39A5.4,5.4,0,0,1,428.33,435.08Z" style="fill:#263238"></path><path d="M428.47,397.27a2.55,2.55,0,0,1,0,.39c0,.29,0,.66.07,1.12.05,1,.11,2.38.16,4.12.12,3.48.21,8.29.18,13.61s-.15,10.12-.29,13.6c-.07,1.74-.14,3.15-.2,4.12,0,.46-.06.83-.08,1.12a1.69,1.69,0,0,1-.05.39,2.29,2.29,0,0,1,0-.39c0-.29,0-.66,0-1.12,0-1,.06-2.41.1-4.12.09-3.48.18-8.29.21-13.6s0-10.12-.09-13.6c0-1.71,0-3.11-.06-4.13,0-.46,0-.83,0-1.12A1.73,1.73,0,0,1,428.47,397.27Z" style="fill:#263238"></path><path d="M426.69,424.4a16.79,16.79,0,0,0-9.17-12.31c-1.22-.58-2.82-1-3.83-.06s-.78,2.55-.28,3.81a14.35,14.35,0,0,0,13.2,8.92" style="fill:#FF725E"></path><path d="M418.11,416.21a4,4,0,0,1,.78.34,7.87,7.87,0,0,1,.87.47,10.94,10.94,0,0,1,1.12.7,13.75,13.75,0,0,1,1.28,1,15.14,15.14,0,0,1,1.36,1.24,17.27,17.27,0,0,1,4.28,7.16,15.37,15.37,0,0,1,.43,1.79,12.33,12.33,0,0,1,.22,1.59,10.33,10.33,0,0,1,.06,1.31,6.23,6.23,0,0,1,0,1,4.88,4.88,0,0,1-.09.84c-.07,0,.05-1.21-.16-3.13a14.33,14.33,0,0,0-.25-1.56,16.88,16.88,0,0,0-.46-1.75,18.51,18.51,0,0,0-1.69-3.77,19.81,19.81,0,0,0-2.52-3.28c-.45-.45-.88-.88-1.32-1.24s-.85-.69-1.24-1C419.18,416.78,418.08,416.27,418.11,416.21Z" style="fill:#263238"></path></g><g id="freepik--Floor--inject-51"><path d="M466.43,435.15c0,.15-96.91.26-216.42.26s-216.44-.11-216.44-.26,96.89-.26,216.44-.26S466.43,435,466.43,435.15Z" style="fill:#263238"></path><path d="M360.46,482l2.13.13c1.41.06,3.5.18,6.25.18a110.34,110.34,0,0,0,23.87-2.51,31.87,31.87,0,0,0,7.82-2.51,6.59,6.59,0,0,0,1.73-1.28,2.86,2.86,0,0,0,.87-1.93c0-1.5-1.16-2.77-2.4-3.66-2.61-1.79-5.87-2.68-9.19-3.53s-6.84-1.58-10.5-2.21a232.19,232.19,0,0,0-50.2-2.91c-18.67.76-39,3.57-60.52,7.85-10.78,2.11-21.84,4.68-33.31,7a256,256,0,0,1-35.75,5c-12.32.69-25.14.31-37.77-2.75a41.09,41.09,0,0,1-4.69-1.36,21.88,21.88,0,0,1-4.46-2.11,8.44,8.44,0,0,1-1.93-1.61,3.32,3.32,0,0,1,.08-4.75,9.11,9.11,0,0,1,2-1.57,35.39,35.39,0,0,1,9.41-3.32c3.24-.79,6.53-1.47,9.84-2.06a241.52,241.52,0,0,1,40.86-3.26c13.89-.05,28,.74,42.18,1.81s28.26,2.3,42.12,3c6.93.37,13.81.62,20.64.68,3.42,0,6.82,0,10.21-.07a52.18,52.18,0,0,0,10-1,14.19,14.19,0,0,0,4.59-1.72,4.24,4.24,0,0,0,1.57-1.72,2.33,2.33,0,0,0-.18-2.17,5.8,5.8,0,0,0-1.64-1.71,13.09,13.09,0,0,0-2.09-1.27,27.88,27.88,0,0,0-4.56-1.8,91.51,91.51,0,0,0-19.26-3.09c-12.9-.75-25.55.41-37.79,1.95s-24.16,3.46-35.84,4.37a167.94,167.94,0,0,1-17.3.52c-2.84,0-5.66-.23-8.45-.49a12.46,12.46,0,0,1-4.14-.83,1.7,1.7,0,0,1-.86-.78.94.94,0,0,1-.05-.66,1.34,1.34,0,0,1,.34-.51,5.13,5.13,0,0,1,1.92-1,193.56,193.56,0,0,1,31.49-4.47,220.14,220.14,0,0,1,29.33.12,36.91,36.91,0,0,1,6.89.88,6.13,6.13,0,0,1,1.6.7,1.76,1.76,0,0,1,.93,1.53,2.23,2.23,0,0,1-1,1.45,8.36,8.36,0,0,1-1.49.82,38.25,38.25,0,0,1-6.37,1.76c-2.11.45-4.21.87-6.29,1.23a167.26,167.26,0,0,1-23.65,2.37,169.46,169.46,0,0,1-20.68-.61,36.81,36.81,0,0,1-9-1.54,8,8,0,0,1-1.93-1,2.62,2.62,0,0,1-1.17-1.77,2.56,2.56,0,0,1,.81-1.9,8.13,8.13,0,0,1,1.55-1.27,35.88,35.88,0,0,1,6.72-3.11,53.31,53.31,0,0,1,6.23-1.84,69.39,69.39,0,0,1,10-1.61c2.75-.24,4.85-.26,6.26-.27s2.13.05,2.13.05h-2.13c-1.41,0-3.51.07-6.25.32A71.39,71.39,0,0,0,230,446a57.23,57.23,0,0,0-6.2,1.85,36.26,36.26,0,0,0-6.67,3.12,7.73,7.73,0,0,0-1.51,1.24,2,2,0,0,0,.34,3.35,7.22,7.22,0,0,0,1.88.95,37,37,0,0,0,8.93,1.52,171.49,171.49,0,0,0,20.65.56A168.52,168.52,0,0,0,271,456.22c2.07-.36,4.16-.78,6.27-1.23a37.78,37.78,0,0,0,6.3-1.75,7.57,7.57,0,0,0,1.42-.79,2,2,0,0,0,.89-1.19,1.44,1.44,0,0,0-.77-1.2,5.35,5.35,0,0,0-1.51-.65,36.25,36.25,0,0,0-6.82-.86,219.52,219.52,0,0,0-29.28-.09c-5.08.33-10.26.84-15.5,1.56s-10.59,1.62-15.88,2.92a4.75,4.75,0,0,0-1.74.87.57.57,0,0,0-.21.68,1.34,1.34,0,0,0,.66.57,12,12,0,0,0,4,.78c2.78.26,5.59.44,8.42.49a167.05,167.05,0,0,0,17.25-.54c11.66-.91,23.57-2.79,35.82-4.39s24.93-2.71,37.88-2a91.58,91.58,0,0,1,19.37,3.11,28.93,28.93,0,0,1,4.65,1.82,14.52,14.52,0,0,1,2.16,1.32,6.36,6.36,0,0,1,1.78,1.87,2.82,2.82,0,0,1,.2,2.62,4.73,4.73,0,0,1-1.74,1.94,14.86,14.86,0,0,1-4.77,1.8,53.56,53.56,0,0,1-10.11,1q-5.08.1-10.22.06c-6.84-.05-13.74-.3-20.67-.68-13.87-.74-27.91-2-42.12-3s-28.28-1.86-42.15-1.81a240.38,240.38,0,0,0-40.77,3.25q-5,.87-9.81,2.05a34.61,34.61,0,0,0-9.27,3.26,8,8,0,0,0-1.88,1.47,2.82,2.82,0,0,0-.07,4.08,7.58,7.58,0,0,0,1.81,1.52,22.3,22.3,0,0,0,4.36,2.06,41.71,41.71,0,0,0,4.64,1.35c12.55,3,25.34,3.43,37.62,2.75a256,256,0,0,0,35.69-5c11.46-2.31,22.53-4.89,33.32-7,21.55-4.27,41.89-7.06,60.58-7.8a231.84,231.84,0,0,1,50.27,3c3.66.64,7.16,1.43,10.52,2.24s6.6,1.75,9.26,3.58a7.75,7.75,0,0,1,1.72,1.66,3.74,3.74,0,0,1,.78,2.21,3.17,3.17,0,0,1-.94,2.09,7.14,7.14,0,0,1-1.79,1.32,32.14,32.14,0,0,1-7.89,2.5,108.32,108.32,0,0,1-23.91,2.42C363.34,482.38,360.46,482,360.46,482Z" style="fill:#263238"></path></g><g id="freepik--Snow--inject-51"><path d="M138.23,91.34a3.48,3.48,0,1,1-3.47-3.82A3.66,3.66,0,0,1,138.23,91.34Z" style="fill:#e0e0e0"></path><path d="M50.2,211.86A3.48,3.48,0,1,1,46.73,208,3.66,3.66,0,0,1,50.2,211.86Z" style="fill:#e0e0e0"></path><path d="M214.93,62.83A3.48,3.48,0,1,1,211.46,59,3.66,3.66,0,0,1,214.93,62.83Z" style="fill:#e0e0e0"></path><path d="M372.16,84.36a3.48,3.48,0,1,1-3.46-3.82A3.65,3.65,0,0,1,372.16,84.36Z" style="fill:#e0e0e0"></path><path d="M476.76,88.18a3.48,3.48,0,1,1-3.47-3.82A3.66,3.66,0,0,1,476.76,88.18Z" style="fill:#e0e0e0"></path><path d="M438.68,362.46a3.48,3.48,0,1,1-3.47-3.82A3.66,3.66,0,0,1,438.68,362.46Z" style="fill:#e0e0e0"></path><path d="M167,112.17a1.74,1.74,0,1,1-1.73-1.91A1.82,1.82,0,0,1,167,112.17Z" style="fill:#e0e0e0"></path><path d="M257,144.08a1.74,1.74,0,1,1-1.73-1.91A1.83,1.83,0,0,1,257,144.08Z" style="fill:#e0e0e0"></path><path d="M56.08,80.54a1.74,1.74,0,1,1-1.73-1.91A1.83,1.83,0,0,1,56.08,80.54Z" style="fill:#e0e0e0"></path><ellipse cx="440.06" cy="223.78" rx="1.73" ry="1.91" style="fill:#e0e0e0"></ellipse><path d="M321.65,385.15a1.74,1.74,0,1,1-1.73-1.91A1.83,1.83,0,0,1,321.65,385.15Z" style="fill:#e0e0e0"></path><path d="M287.16,260.33a1.74,1.74,0,1,1-1.73-1.91A1.83,1.83,0,0,1,287.16,260.33Z" style="fill:#e0e0e0"></path><ellipse cx="352.95" cy="266.29" rx="1.73" ry="1.91" style="fill:#e0e0e0"></ellipse><ellipse cx="140.83" cy="179.87" rx="1.73" ry="1.91" style="fill:#e0e0e0"></ellipse><ellipse cx="72.2" cy="260.63" rx="1.73" ry="1.91" style="fill:#e0e0e0"></ellipse><path d="M112,405.05a1.74,1.74,0,1,1-1.73-1.91A1.83,1.83,0,0,1,112,405.05Z" style="fill:#e0e0e0"></path><ellipse cx="203.18" cy="270.11" rx="1.73" ry="1.91" style="fill:#e0e0e0"></ellipse><path d="M48.46,342.82a1.74,1.74,0,1,1-1.73-1.91A1.83,1.83,0,0,1,48.46,342.82Z" style="fill:#e0e0e0"></path><ellipse cx="382.72" cy="362.46" rx="1.73" ry="1.91" style="fill:#e0e0e0"></ellipse><ellipse cx="155.89" cy="385.15" rx="1.73" ry="1.91" style="fill:#e0e0e0"></ellipse><path d="M260.38,204.85a1.74,1.74,0,1,1-1.74-1.91A1.83,1.83,0,0,1,260.38,204.85Z" style="fill:#e0e0e0"></path><path d="M294.82,114.08a1.74,1.74,0,1,1-1.73-1.91A1.83,1.83,0,0,1,294.82,114.08Z" style="fill:#e0e0e0"></path><ellipse cx="458.83" cy="159.12" rx="1.73" ry="1.91" style="fill:#e0e0e0"></ellipse><path d="M307.35,178a1.74,1.74,0,1,1-1.73-1.92A1.83,1.83,0,0,1,307.35,178Z" style="fill:#e0e0e0"></path><path d="M462.3,307.18a1.74,1.74,0,1,1-1.73-1.91A1.83,1.83,0,0,1,462.3,307.18Z" style="fill:#e0e0e0"></path><path d="M302.31,33.08a1.74,1.74,0,1,1-1.73-1.91A1.83,1.83,0,0,1,302.31,33.08Z" style="fill:#e0e0e0"></path><path d="M428.42,31.17a1.74,1.74,0,1,1-1.73-1.91A1.83,1.83,0,0,1,428.42,31.17Z" style="fill:#e0e0e0"></path><ellipse cx="395.87" cy="130.79" rx="1.73" ry="1.91" style="fill:#e0e0e0"></ellipse><ellipse cx="140.83" cy="301.28" rx="1.73" ry="1.91" style="fill:#e0e0e0"></ellipse><path d="M41.17,284.73a.67.67,0,1,1-.67-.74A.71.71,0,0,1,41.17,284.73Z" style="fill:#e0e0e0"></path><path d="M204.16,325a.68.68,0,1,1-.67-.74A.71.71,0,0,1,204.16,325Z" style="fill:#e0e0e0"></path><path d="M71.14,403.56a.72.72,0,0,1-.67.75.72.72,0,0,1-.68-.75.71.71,0,0,1,.68-.74A.71.71,0,0,1,71.14,403.56Z" style="fill:#e0e0e0"></path><path d="M26.26,150a.67.67,0,1,1-.67-.74A.71.71,0,0,1,26.26,150Z" style="fill:#e0e0e0"></path><path d="M122.2,143.76a.67.67,0,1,1-1.34,0,.67.67,0,1,1,1.34,0Z" style="fill:#e0e0e0"></path><path d="M218.63,100a.71.71,0,0,1-.68.74.74.74,0,0,1,0-1.48A.71.71,0,0,1,218.63,100Z" style="fill:#e0e0e0"></path><path d="M410.3,57.6a.67.67,0,1,1-.67-.74A.71.71,0,0,1,410.3,57.6Z" style="fill:#e0e0e0"></path><path d="M138.23,46.77a.68.68,0,1,1-1.35,0,.68.68,0,1,1,1.35,0Z" style="fill:#e0e0e0"></path><path d="M223.63,222.54a.72.72,0,0,1-.68.75.72.72,0,0,1-.67-.75.71.71,0,0,1,.67-.74A.71.71,0,0,1,223.63,222.54Z" style="fill:#e0e0e0"></path><ellipse cx="187.63" cy="139.54" rx="0.67" ry="0.74" style="fill:#e0e0e0"></ellipse><path d="M315,181.78a.71.71,0,0,1-.67.74.71.71,0,0,1-.68-.74.72.72,0,0,1,.68-.75A.72.72,0,0,1,315,181.78Z" style="fill:#e0e0e0"></path><path d="M419.11,165.36a.67.67,0,1,1-.67-.74A.72.72,0,0,1,419.11,165.36Z" style="fill:#e0e0e0"></path><ellipse cx="447.39" cy="304.95" rx="0.67" ry="0.74" style="fill:#e0e0e0"></ellipse><path d="M283.69,342.08a.68.68,0,1,1-1.35,0,.68.68,0,1,1,1.35,0Z" style="fill:#e0e0e0"></path><path d="M253.58,342.08a.67.67,0,1,1-1.34,0,.67.67,0,1,1,1.34,0Z" style="fill:#e0e0e0"></path><path d="M259.19,271.28a.71.71,0,0,1-.68.74.74.74,0,0,1,0-1.48A.71.71,0,0,1,259.19,271.28Z" style="fill:#e0e0e0"></path><path d="M366.56,330.61a.71.71,0,0,1-.67.74.71.71,0,0,1-.68-.74.72.72,0,0,1,.68-.75A.72.72,0,0,1,366.56,330.61Z" style="fill:#e0e0e0"></path><path d="M319.29,85.1a.68.68,0,1,1-.68-.74A.71.71,0,0,1,319.29,85.1Z" style="fill:#e0e0e0"></path><path d="M251.45,50a.68.68,0,1,1-1.35,0,.68.68,0,1,1,1.35,0Z" style="fill:#e0e0e0"></path><path d="M159,270.11a.72.72,0,0,1-.68.75.72.72,0,0,1-.67-.75.71.71,0,0,1,.67-.74A.71.71,0,0,1,159,270.11Z" style="fill:#e0e0e0"></path><ellipse cx="94.84" cy="34.99" rx="1.73" ry="1.91" style="fill:#e0e0e0"></ellipse></g><g id="freepik--Character--inject-51"><path d="M208.23,207.73c-6.64,1.08-9.75-1.16-12-6.45l-2.9-6.73s-6.85,2.43-12.55-6.9a107.68,107.68,0,0,1-9.16-19.2c-2.09-6.15-.25-19.28,6-21.11l19.68,1.17a3.81,3.81,0,0,1,4.61,2.27h0L216.63,190" style="fill:#ffbe9d"></path><path d="M177.26,175.1a1.38,1.38,0,0,0,1.76.78,1.33,1.33,0,0,0,.85-1.7,1.4,1.4,0,0,0-1.77-.78A1.32,1.32,0,0,0,177.26,175.1Z" style="fill:#263238"></path><path d="M175.25,172.28c.2.16,1.09-.88,2.56-1.14s2.68.36,2.8.13-.17-.43-.7-.73a3.56,3.56,0,0,0-2.29-.35,3.44,3.44,0,0,0-2,1.15C175.24,171.81,175.15,172.2,175.25,172.28Z" style="fill:#263238"></path><path d="M190.39,169.92a1.4,1.4,0,0,0,1.77.78A1.33,1.33,0,0,0,193,169a1.4,1.4,0,0,0-1.77-.78A1.33,1.33,0,0,0,190.39,169.92Z" style="fill:#263238"></path><path d="M189.47,168c.28,0,.62-1.36,1.88-2.37s2.72-1.1,2.73-1.37-.37-.3-1-.28a4,4,0,0,0-2.34.9,3.84,3.84,0,0,0-1.33,2.08C189.25,167.63,189.35,168,189.47,168Z" style="fill:#263238"></path><path d="M188,178.9a10.3,10.3,0,0,0-2.4.52c-.37.11-.73.18-.89,0a1.94,1.94,0,0,1-.19-1.14c0-1,0-2-.07-3.1-.13-4.41-.37-8-.55-8s-.22,3.58-.09,8c0,1.09.08,2.12.11,3.11a2.22,2.22,0,0,0,.39,1.45.94.94,0,0,0,.79.28,2.74,2.74,0,0,0,.63-.16A9.86,9.86,0,0,0,188,178.9Z" style="fill:#263238"></path><path d="M193.34,194.65a27.54,27.54,0,0,0,11.9-9.08s-.4,8.51-10.77,11.69Z" style="fill:#eb996e"></path><path d="M189.57,182.16a4,4,0,0,1,1.92-2.85,1.72,1.72,0,0,1,1.91.22,2.72,2.72,0,0,1,.73,2.38,2.29,2.29,0,0,1-1.67,1.88,3.86,3.86,0,0,1-2.19-.41,1.43,1.43,0,0,1-.55-.35.89.89,0,0,1-.19-.77" style="fill:#eb996e"></path><path d="M192.41,178.18c-.23.08.38,1.58-.46,3.17s-2.5,2.08-2.43,2.29.48.15,1.16-.11a4,4,0,0,0,2.06-1.83,3.54,3.54,0,0,0,.29-2.62C192.83,178.44,192.51,178.13,192.41,178.18Z" style="fill:#263238"></path><path d="M185.64,162.18c.32.29,1.54-.58,3.18-1.22s3.11-.89,3.14-1.32c0-.2-.38-.42-1.07-.49a5.54,5.54,0,0,0-2.63.41,5.62,5.62,0,0,0-2.19,1.52C185.62,161.61,185.49,162.05,185.64,162.18Z" style="fill:#263238"></path><path d="M173.58,169.43c.43.19,1.47-.62,2.88-1.23s2.7-.88,2.84-1.32c0-.21-.27-.45-.91-.52a5.14,5.14,0,0,0-2.57.47,4.93,4.93,0,0,0-2,1.59C173.41,169,173.38,169.34,173.58,169.43Z" style="fill:#263238"></path><path d="M240.83,184.55c-3.63-2.61-14.15-8.13-19-12.9-3.5-3.4-10.86-17.38-17.75-23.29s-12.59-7.09-17.45-6.45a10.86,10.86,0,0,0-8.72,6.18c-1.24,2.58.22,8,.22,8s11.51-2,17.56,2.51c6.94,5.21,9.37,8.27,9.37,8.27l2.89,3.23s1.8,7.83,2.85,11.63,3.16,6.86,6.74,7.09l7.74,1.75S236.5,226.87,237,227c1.18.31,8-4.31,14.17-8.67,1.19-.85-3.22-13.48-3.22-13.48l6.77,10.73,4.62-3.28S248.26,189.89,240.83,184.55Z" style="fill:#263238"></path><path d="M178.3,156.05a9.27,9.27,0,0,0-6.18,9.81c.27,3.49,3.62,12.51,3.62,12.51s-4.24-6.5-5.59-10.66-1.45-10.1.47-14.21,3.86-6.33,9.37-8.23a10.25,10.25,0,0,0-2.27,4.46C177.46,151,177.6,151.85,178.3,156.05Z" style="fill:#263238"></path><path d="M205.17,167.43a3.27,3.27,0,0,1,3.36-4.41c1.3.17,2.61,1.06,3.49,3.44,2.33,6.35-4.53,7.39-4.61,7.21S206.11,170.07,205.17,167.43Z" style="fill:#ffbe9d"></path><path d="M208.47,170.55s.14,0,.36,0a1.18,1.18,0,0,0,.83-.28,2.93,2.93,0,0,0,.37-2.93,3.88,3.88,0,0,0-.9-1.47,1.34,1.34,0,0,0-1.14-.54.58.58,0,0,0-.54.54c0,.21.06.32,0,.34s-.17,0-.22-.33a.72.72,0,0,1,.11-.49.85.85,0,0,1,.55-.39,1.65,1.65,0,0,1,1.52.56,4,4,0,0,1,1,1.63c.43,1.3.22,2.74-.6,3.34a1.27,1.27,0,0,1-1.08.2C208.54,170.7,208.45,170.57,208.47,170.55Z" style="fill:#eb996e"></path><path d="M200,145.84a48.61,48.61,0,0,1,15.21,15c2.44,3.81,4.53,8.15,8.41,10.46,2,1.22,4.47,1.8,6.26,3.37s2.87,4.39,4.94,5.92c2.27,1.68,5.37,1.62,7.92,2.83,4.79,2.27,6.39,8.18,9.69,12.33a17.07,17.07,0,0,0,8.22,5.64c1.1.34,2.47.82,2.59,2a2.64,2.64,0,0,1-.83,1.86c-1.5,1.75-1.71,6.16-3.63,7.42-5.09-11-16.14-22.28-26-29.39-5.64-4.05-11.63-8-15.56-13.69-2.59-3.76-4.16-8.13-6.36-12.14s-5.31-7.85-9.64-9.31" style="fill:#263238"></path><path d="M183.43,142.75a4.38,4.38,0,0,0-2,1,11.79,11.79,0,0,0-3.42,4.14,8.88,8.88,0,0,0-.79,5.3,7.51,7.51,0,0,0,.44,1.58c.14.36.25.54.28.53s-.27-.81-.42-2.15a9.41,9.41,0,0,1,.88-5.07,13.16,13.16,0,0,1,3.22-4.09C182.66,143.11,183.46,142.82,183.43,142.75Z" style="fill:#455a64"></path><path d="M213.4,170.25s.41.17,1.08.58a6.74,6.74,0,0,1,2.32,2.32,6.59,6.59,0,0,1,.75,4.7,5.54,5.54,0,0,1-3.73,4.21,4.5,4.5,0,0,1-3-.15,5.29,5.29,0,0,1-2.14-1.82,7.65,7.65,0,0,1-1.44-4.59,4.49,4.49,0,0,1,1.26-2.95,8,8,0,0,1,1-.73.74.74,0,0,0-.31.1,2.88,2.88,0,0,0-.78.51,4.48,4.48,0,0,0-1.46,3,7.81,7.81,0,0,0,1.43,4.84,5.56,5.56,0,0,0,2.29,2,4.91,4.91,0,0,0,3.26.18,5.31,5.31,0,0,0,2.7-1.81,6.32,6.32,0,0,0,1.3-2.73,6.73,6.73,0,0,0-.88-4.95,6.65,6.65,0,0,0-2.49-2.31,5.79,5.79,0,0,0-.86-.36A1.05,1.05,0,0,0,213.4,170.25Z" style="fill:#e0e0e0"></path><path d="M169.27,163.36c.06-3.29,1.24-7.34,3.79-9.41a18.52,18.52,0,0,1,9-3.68,37.57,37.57,0,0,1,20.56,3.29c2.2,1.05,10.06,5.2,13.12,8.12,1.77,1.69-4.26-4.7-3.28-7,1,1.17,3,1.16,4.48.55a2.85,2.85,0,0,0,1.81-3.7,7.46,7.46,0,0,0-2.25-3.4c-6.11-6.28-15.39-8.49-24.15-8.38-5.68.07-11.68,1.15-15.95,4.89-3.63,3.18-9.56,8.21-7.17,18.67" style="fill:#FF725E"></path><g style="opacity:0.30000000000000004"><path d="M197.13,144.26a25,25,0,0,1,8.76.54,12.05,12.05,0,0,1,6.56,4.66,5.25,5.25,0,0,1,0,5.42,7.7,7.7,0,0,0-1.6-3.07,16.31,16.31,0,0,0-6.11-5,44.51,44.51,0,0,0-7.58-2.57"></path></g><path d="M196.22,144.26a2.42,2.42,0,0,1,.84,0,19.41,19.41,0,0,1,2.28.28,20.53,20.53,0,0,1,7,2.75,14.12,14.12,0,0,1,5.35,5.32,7,7,0,0,1,.69,2.2,2.07,2.07,0,0,1,0,.85,11.53,11.53,0,0,0-1-2.88,15,15,0,0,0-5.3-5.05,23.24,23.24,0,0,0-6.84-2.83C197.4,144.42,196.21,144.35,196.22,144.26Z" style="fill:#263238"></path><path d="M212.73,156.42s-.47-.52-1.33-1.44a25.36,25.36,0,0,0-4-3.45,33.67,33.67,0,0,0-16.46-5.41,46.05,46.05,0,0,0-9.63.26,17.9,17.9,0,0,0-7.35,2.55,11.89,11.89,0,0,0-3.68,3.72c-.65,1.07-.83,1.76-.88,1.74a1.54,1.54,0,0,1,.12-.5,7.63,7.63,0,0,1,.59-1.34,11.38,11.38,0,0,1,3.65-3.93,18,18,0,0,1,7.48-2.72,45,45,0,0,1,9.74-.3,36.48,36.48,0,0,1,9.55,2,29,29,0,0,1,7.08,3.65,22.5,22.5,0,0,1,4,3.61c.41.49.72.87.91,1.15A2.13,2.13,0,0,1,212.73,156.42Z" style="fill:#263238"></path><path d="M178,151.13a2.63,2.63,0,0,1-.75-2.06c0-1.26.53-2.16.65-2.09s-.16,1-.12,2.08S178.14,151.06,178,151.13Z" style="fill:#263238"></path><path d="M187.44,149.64c-.15,0-.19-.84-.34-1.82s-.35-1.79-.21-1.84.57.7.73,1.76S187.58,149.65,187.44,149.64Z" style="fill:#263238"></path><path d="M196.22,151.62a11.73,11.73,0,0,0,0-2.73,12.26,12.26,0,0,0-1-2.53s.34.12.68.54a4.27,4.27,0,0,1,.87,1.89,4.22,4.22,0,0,1-.1,2.08C196.49,151.38,196.28,151.65,196.22,151.62Z" style="fill:#263238"></path><path d="M203.54,154.61c-.15-.05.28-1.32.15-2.93s-.69-2.81-.55-2.88a5.3,5.3,0,0,1,.4,5.81Z" style="fill:#263238"></path><path d="M210.67,158.43c-.12-.09.3-.83.45-1.84s0-1.85.14-1.9.56.83.38,2S210.77,158.53,210.67,158.43Z" style="fill:#263238"></path><path d="M170.86,156.6c-.07.12-.8-.24-1.29-1.08s-.44-1.65-.3-1.65.32.67.75,1.39S171,156.48,170.86,156.6Z" style="fill:#263238"></path><path d="M215,161.58a16.57,16.57,0,0,0,11.22,3.86c2.06-.08,4.32-.51,6,.65,1.53,1,2.17,3.08,3.78,4,1.79,1,4,.19,5.82-.84s3.6-2.3,5.66-2.2c2.53.13,4.42,2.26,6.57,3.6a11.52,11.52,0,0,0,12.78-.64,5,5,0,0,1-1.66,2.78,4.91,4.91,0,0,0,1.91-.07c-1.56,2.72-3.17,5.49-5.58,7.48s-5.85,3-8.74,1.86c-1.38-.57-2.6-1.63-4.09-1.79-2.05-.24-3.87,1.28-5.88,1.76-3.24.77-6.44-1.2-9.22-3s-6.05-3.74-9.26-2.84" style="fill:#263238"></path><path d="M233.12,179.12a14.38,14.38,0,0,0,11.27,4.27c1.87-.15,3.82-.65,5.56,0s2.93,2.61,4.59,3.67a7.83,7.83,0,0,0,6.41.58,21.29,21.29,0,0,0,5.81-3.15,6.83,6.83,0,0,1-.92,4.26,11.75,11.75,0,0,0,5.39-2.77c.08,4.43-1.32,9.42-5.24,11.5-2.55,1.36-5.65,1.19-8.46.53a27.57,27.57,0,0,1-12.12-6.32c-3.73-3.36-6.62-7.79-11-10.15" style="fill:#263238"></path><path d="M262.85,162.78a1.8,1.8,0,0,1,0,.55,3,3,0,0,1-.55,1.49,4.74,4.74,0,0,1-2,1.59,5.73,5.73,0,0,1-3.32.37,15.31,15.31,0,0,1-3.83-1.26A21.7,21.7,0,0,0,249,164a6.78,6.78,0,0,0-2.38-.1,7.6,7.6,0,0,0-2.34.85c-.77.4-1.53.88-2.39,1.25a4.84,4.84,0,0,1-2.83.42,6.45,6.45,0,0,1-2.56-1.25,26.2,26.2,0,0,0-2.16-1.54,9.1,9.1,0,0,0-4.75-1c-3.19.06-6,.92-8.5,1a10.52,10.52,0,0,1-5.68-1.07,5.9,5.9,0,0,1-1.27-1,1.93,1.93,0,0,1-.36-.42,10,10,0,0,0,1.73,1.19,10.63,10.63,0,0,0,5.57.88c2.41-.1,5.22-1,8.5-1.09a9.58,9.58,0,0,1,5,1.09c1.56.88,2.81,2.38,4.55,2.72a4.4,4.4,0,0,0,2.54-.39c.81-.35,1.57-.81,2.36-1.22a7.71,7.71,0,0,1,2.5-.89,7,7,0,0,1,2.55.12,21.09,21.09,0,0,1,4.32,1.63,15.66,15.66,0,0,0,3.71,1.29,5,5,0,0,0,5-1.72A3.64,3.64,0,0,0,262.85,162.78Z" style="fill:#263238"></path><path d="M114,257.12l2.21,4.05s2.18-1.7,1.3-3.61-1.09-1.32-1.09-1.32l.6.21,1.88,2.25s1.9-1.2,1.3-3l-3.62-1.21Z" style="fill:#ffbe9d"></path><path d="M107.63,246.21a17.73,17.73,0,0,1,3.09-1.15l5.08,2-4,3.4a1.56,1.56,0,0,0-.4,1.87l.81,1.74s-2.69.62-1.34,2.63c0,0,.32,1.33,4.73.14,4.8-1.29,17.21-2.34,20.35-4.55l-4.76-9.6c-3.06,1.8-7.75,1-9.86.55a3.94,3.94,0,0,0-1.93,0,5.24,5.24,0,0,1-2.63.07c-1.92-.46-5.57-1.64-5.57-1.64l-7.08,3.87S104.48,247.46,107.63,246.21Zm11,3.82,1.92,1.45-2.14.75-1-1.52Z" style="fill:#ffbe9d"></path><path d="M120.77,251.45a4,4,0,0,1-.89.36l-2.45.82-3.66,1.16a13.76,13.76,0,0,0-2.1.73c-.64.32-1.23,1-.9,1.67a1.82,1.82,0,0,0,1.79,1,4.63,4.63,0,0,0,1.1-.12l1.09-.2,3.76-.74c1.08-.2,2-.32,2.57-.38a3.57,3.57,0,0,1,1,0,4.88,4.88,0,0,1-.93.2c-.6.11-1.47.28-2.53.51l-3.75.85-1.09.21a5,5,0,0,1-1.19.14,3.34,3.34,0,0,1-1.26-.26,1.75,1.75,0,0,1-1-1,1.86,1.86,0,0,1-.11-.71,1.58,1.58,0,0,1,.24-.68,2.64,2.64,0,0,1,1-.84,14.88,14.88,0,0,1,2.19-.74l3.68-1.06c1-.3,1.91-.53,2.5-.68A3.89,3.89,0,0,1,120.77,251.45Z" style="fill:#eb996e"></path><path d="M118.66,250.11a17.21,17.21,0,0,1-2.22,1.36l-.84.55c-.26.18-.43.31-.46.48,0,.37.12.69,0,.71s-.09,0-.17-.15a1,1,0,0,1-.19-.59,1.15,1.15,0,0,1,.53-.79,10.18,10.18,0,0,1,.84-.6A5,5,0,0,1,118.66,250.11Z" style="fill:#eb996e"></path><path d="M114.41,246.46a3,3,0,0,1,1.2.33,11.22,11.22,0,0,1,2.66,1.41,8.36,8.36,0,0,1,2,2.25c.42.64.62,1.07.57,1.1s-.36-.32-.83-.91a11.12,11.12,0,0,0-2-2.07,16.46,16.46,0,0,0-2.52-1.48A3.82,3.82,0,0,1,114.41,246.46Z" style="fill:#eb996e"></path><path d="M329.5,235.6c.46.66,1,1.45,1.53,2.42a8.41,8.41,0,0,1,1,2.68,13.24,13.24,0,0,1,.32,3.58c-.16,1.09,1.07,1.8,1.76,1.08s1.75-3.91.78-7.31a1.44,1.44,0,0,1,1.46-1.63c2.44-.23,10.88-.57,12.3-.83,1.26-.23,2.6-.89,1.47-1.4s-7.81-1.3-7.81-1.3,8.74,1.22,8.86-.06c.08-.89-2.09-1.9-7.95-2.13,0,0,7.21,1,8.13.41,2.09-1.21-6.58-2.44-6.58-2.44,6.08.81,5.94,1.1,6.22.31.2-.59-1.06-1.19-4.28-2.09-2.6-.73-5.54-1.46-9.45-2.79h0l-8.58-2.24-2.82,12.65Z" style="fill:#ffbe9d"></path><path d="M341.34,228.26a31.74,31.74,0,0,1,8.29,1.31,15.73,15.73,0,0,1-4.19-.38A16.37,16.37,0,0,1,341.34,228.26Z" style="fill:#eb996e"></path><path d="M340.79,230.56a18.48,18.48,0,0,1,4.48.16,17.86,17.86,0,0,1,4.43.71,18.48,18.48,0,0,1-4.48-.16A17.33,17.33,0,0,1,340.79,230.56Z" style="fill:#eb996e"></path><path d="M340.22,233a16.15,16.15,0,0,1,4.25.07,16.88,16.88,0,0,1,4.2.63,16.13,16.13,0,0,1-4.25-.07A16.88,16.88,0,0,1,340.22,233Z" style="fill:#eb996e"></path><path d="M237,431s-.32,3.91,1.53,4.8,2.91.77,5.37.12S279,428.7,279,428.7a2.8,2.8,0,0,0-1.89-2.4c-1.78-.56-5.93.42-5.93.42l-.83-4.11-3.38.67.93,4.62-16.74,3.28-.71-3.61-2.75,1.74.6,3.06-8,1.56a2.51,2.51,0,0,1-1.71-2.75Z" style="fill:#e0e0e0"></path><path d="M237,431l.4,0,1.24.1h.06v.07a2.3,2.3,0,0,0,.22,1.43,2.75,2.75,0,0,0,1.46,1.21h0l7.95-1.61-.13.2c-.19-1-.4-2-.61-3.06l0-.12.11-.07,2.74-1.76.25-.16.06.29c.22,1.13.46,2.35.71,3.61l-.25-.17,16.74-3.32-.2.3c-.29-1.46-.61-3-.93-4.62l-.06-.26L267,423l3.38-.66.25-.05.05.25c.27,1.31.55,2.7.83,4.11l-.31-.2c.49-.11,1-.21,1.55-.3a13.83,13.83,0,0,1,4-.23,2.9,2.9,0,0,1,1.82.91,3.18,3.18,0,0,1,.81,1.84l0,.22-.23,0-32.56,6.59c-1,.21-2,.38-2.92.6a10.47,10.47,0,0,1-2.64.41,5.46,5.46,0,0,1-2.26-.57,2.46,2.46,0,0,1-1.32-1.44,7.41,7.41,0,0,1-.42-2.64,6,6,0,0,1,0-.69,1.22,1.22,0,0,1,0-.23.68.68,0,0,1,0,.24c0,.18,0,.4,0,.68a8,8,0,0,0,.51,2.57,2.23,2.23,0,0,0,1.23,1.3,5.17,5.17,0,0,0,2.17.51,10.27,10.27,0,0,0,2.56-.44c.91-.23,1.89-.41,2.91-.63L279,428.45l-.2.27a2.77,2.77,0,0,0-.68-1.52,2.46,2.46,0,0,0-1.52-.75,14,14,0,0,0-3.79.23c-.53.09-1.05.19-1.52.3L271,427l-.06-.26c-.28-1.41-.56-2.81-.83-4.12l.31.21-3.38.66.2-.31c.32,1.6.63,3.17.92,4.63l.05.25-.24,0-16.75,3.24-.21,0,0-.21c-.25-1.26-.48-2.48-.7-3.61l.31.13-2.76,1.73.08-.19c.21,1.07.4,2.1.58,3.06l0,.17-.17,0-8,1.5h-.06a2.87,2.87,0,0,1-1.54-1.34,2.38,2.38,0,0,1-.19-1.53l0,.07-1.19-.17Z" style="fill:#263238"></path><path d="M265.93,395.32l6.18,28.41-35.29,7.87c-.55-3.42,16.2-14.26,16.2-14.26l-4.71-18Z" style="fill:#FF725E"></path><path d="M252.41,417.29c0,.17.92,0,1.89.42s1.59,1,1.73.88-.33-1-1.52-1.46S252.34,417.14,252.41,417.29Z" style="fill:#263238"></path><path d="M249.05,419.64c0,.18.81.31,1.56.9s1.08,1.34,1.25,1.29.07-1-.88-1.77S249,419.48,249.05,419.64Z" style="fill:#263238"></path><path d="M247.93,424.54c.17,0,.22-.91-.44-1.75s-1.54-1.05-1.58-.89.57.56,1.1,1.26S247.76,424.56,247.93,424.54Z" style="fill:#263238"></path><path d="M251.79,413.06c.11.14.85-.28,1.84-.43s1.81,0,1.87-.18-.81-.62-2-.42S251.68,412.94,251.79,413.06Z" style="fill:#263238"></path><path d="M251.7,408.68a3.36,3.36,0,0,0,1.76-.4,8,8,0,0,0,2.62-1.75,2.21,2.21,0,0,0,.44-.53.78.78,0,0,0-.12-.94,1,1,0,0,0-.85-.22,2.38,2.38,0,0,0-.64.24,5.92,5.92,0,0,0-1,.62,6.67,6.67,0,0,0-1.4,1.43c-.65.94-.78,1.65-.71,1.67s.36-.59,1.06-1.4a7.15,7.15,0,0,1,1.38-1.24,6.08,6.08,0,0,1,.94-.54c.35-.18.67-.25.8-.11s.06.08,0,.21a1.8,1.8,0,0,1-.33.39,9.2,9.2,0,0,1-.81.74,11.09,11.09,0,0,1-1.56,1A11.61,11.61,0,0,0,251.7,408.68Z" style="fill:#263238"></path><path d="M252,408.88a2.94,2.94,0,0,0,.08-1.81,5.78,5.78,0,0,0-.67-1.88,6.74,6.74,0,0,0-.69-1,1.5,1.5,0,0,0-1.33-.64.85.85,0,0,0-.62.66,2.09,2.09,0,0,0,0,.69,4.06,4.06,0,0,0,.26,1.19,4.26,4.26,0,0,0,1.16,1.66c.9.76,1.66.8,1.67.74s-.64-.3-1.37-1.06a4.13,4.13,0,0,1-.92-1.53,3.84,3.84,0,0,1-.2-1c0-.39,0-.72.19-.72s.54.18.75.44a5.79,5.79,0,0,1,.65.87,6.17,6.17,0,0,1,.74,1.68C251.92,408.19,251.88,408.87,252,408.88Z" style="fill:#263238"></path><path d="M270.37,416c0,.09-.67.29-1.65.84a9.53,9.53,0,0,0-4.86,6.91c-.19,1.11-.15,1.83-.23,1.83a4,4,0,0,1-.14-1.88,8.82,8.82,0,0,1,5.06-7.19A4,4,0,0,1,270.37,416Z" style="fill:#fff"></path><path d="M266.63,409.55a13.88,13.88,0,0,1,1.17,3.56,13.51,13.51,0,0,1,.67,3.69,13.7,13.7,0,0,1-1.17-3.56A13.23,13.23,0,0,1,266.63,409.55Z" style="fill:#fff"></path><path d="M246.62,429.73a6.53,6.53,0,0,0-4.43-4.86c0-.06.42-.09,1.06.1a4.89,4.89,0,0,1,3.37,3.69C246.75,429.32,246.68,429.73,246.62,429.73Z" style="fill:#fff"></path><path d="M392,310.42s3.74-1.17,3.88-3.21-.38-3-1.9-5-19.81-29.87-19.81-29.87a2.8,2.8,0,0,0-1.52,2.65c.15,1.86,2.61,5.35,2.61,5.35l-3.5,2.3,1.88,2.89,3.94-2.59,9.3,14.3-3.09,2,2.65,1.9,2.61-1.7,4.43,6.81a2.52,2.52,0,0,1-1.92,2.61Z" style="fill:#e0e0e0"></path><path d="M392,310.42a1.86,1.86,0,0,1-.13-.38c-.1-.29-.22-.69-.37-1.18l0-.06.07,0a2.27,2.27,0,0,0,1.24-.74,2.7,2.7,0,0,0,.58-1.81l0,.06-4.48-6.78.24.05-2.61,1.71-.1.07-.11-.07-2.65-1.89-.24-.17.25-.16,3.07-2-.06.3-9.33-14.28.35.07-3.94,2.6-.22.14-.14-.22-1.88-2.89-.14-.21.22-.14,3.5-2.31-.07.37c-.29-.42-.58-.87-.86-1.33a13.88,13.88,0,0,1-1.69-3.59,2.91,2.91,0,0,1,.16-2,3.18,3.18,0,0,1,1.4-1.43l.2-.11.13.2,18.29,27.74c.58.87,1.1,1.71,1.65,2.48a10.52,10.52,0,0,1,1.36,2.3A5.14,5.14,0,0,1,396,307a2.37,2.37,0,0,1-.84,1.75,7.23,7.23,0,0,1-2.28,1.38c-.29.11-.5.19-.65.23a1.7,1.7,0,0,1-.23.06s.06,0,.21-.1l.63-.27a8.1,8.1,0,0,0,2.19-1.43,2.25,2.25,0,0,0,.75-1.63,5.09,5.09,0,0,0-.34-2.2,10.62,10.62,0,0,0-1.36-2.22c-.56-.75-1.09-1.6-1.68-2.46l-18.44-27.66.32.09a2.7,2.7,0,0,0-1.15,1.19,2.45,2.45,0,0,0-.13,1.69,13.66,13.66,0,0,0,1.63,3.44c.28.45.57.9.84,1.3l.16.22-.22.14-3.51,2.31.08-.36c.64,1,1.28,2,1.87,2.89l-.35-.07,3.94-2.59.21-.14.14.21L387,297.1l.11.18-.18.11-3.09,2v-.33c.92.67,1.81,1.32,2.64,1.91h-.21l2.62-1.69.15-.09.09.14,4.37,6.85,0,0v0a2.9,2.9,0,0,1-.66,1.93,2.4,2.4,0,0,1-1.36.75l0-.07c.12.48.22.87.29,1.16S392,310.41,392,310.42Z" style="fill:#263238"></path><path d="M348.08,296.94l24-16.35,20.5,29.79c-3,1.79-19.28-9.7-19.28-9.7l-15,11.11Z" style="fill:#FF725E"></path><path d="M373.51,301.27c.14-.1-.3-.88-.32-1.91s.32-1.84.17-1.94-.84.7-.79,2S373.39,301.39,373.51,301.27Z" style="fill:#263238"></path><path d="M377,303.51c.16-.07,0-.87.25-1.78s.83-1.51.72-1.65-1,.33-1.31,1.48S376.81,303.6,377,303.51Z" style="fill:#263238"></path><path d="M381.91,302.71c-.06-.15-.93.14-1.47,1.06s-.39,1.82-.22,1.8.3-.73.75-1.48S382,302.86,381.91,302.71Z" style="fill:#263238"></path><path d="M369.81,303.42c.09-.15-.57-.68-1.08-1.54s-.69-1.68-.86-1.67-.28,1,.34,2S369.75,303.57,369.81,303.42Z" style="fill:#263238"></path><path d="M365.79,305.15c.06,0-.24-.68-1-1.49a8.4,8.4,0,0,0-1.56-1.23,9.25,9.25,0,0,0-1-.55,2.7,2.7,0,0,0-.66-.21.78.78,0,0,0-.82.47,1,1,0,0,0,.1.87,2.28,2.28,0,0,0,.47.5,6.18,6.18,0,0,0,.95.71,6.59,6.59,0,0,0,1.85.76,3,3,0,0,0,1.82,0c0-.1-.69-.12-1.7-.46a7.06,7.06,0,0,1-1.66-.82,6.46,6.46,0,0,1-.86-.67c-.3-.26-.48-.53-.4-.7s.05-.09.19-.09a1.68,1.68,0,0,1,.48.16,8.43,8.43,0,0,1,1,.48,10.25,10.25,0,0,1,1.54,1.06C365.29,304.67,365.71,305.2,365.79,305.15Z" style="fill:#263238"></path><path d="M365.87,304.81a3,3,0,0,0-1.71.6,6,6,0,0,0-1.5,1.33,6.59,6.59,0,0,0-.64,1,1.49,1.49,0,0,0-.1,1.47.85.85,0,0,0,.84.34,2.69,2.69,0,0,0,.66-.22,4.21,4.21,0,0,0,2.11-2.39,2.39,2.39,0,0,0,.07-1.82,16,16,0,0,1-.48,1.66,4,4,0,0,1-1.08,1.43,3.6,3.6,0,0,1-.88.57c-.35.17-.68.23-.73.09a1,1,0,0,1,.13-.86,6,6,0,0,1,.55-.93,6.69,6.69,0,0,1,1.29-1.31C365.25,305.13,365.9,304.91,365.87,304.81Z" style="fill:#263238"></path><path d="M365.6,285.1c.06-.05.51.51,1.39,1.21a9.63,9.63,0,0,0,3.88,1.92,9.85,9.85,0,0,0,4.34,0c1.1-.24,1.75-.55,1.79-.47a4,4,0,0,1-1.7.83,8.8,8.8,0,0,1-8.56-2A3.88,3.88,0,0,1,365.6,285.1Z" style="fill:#fff"></path><path d="M361,291a13.15,13.15,0,0,1,2.86-2.42,13.94,13.94,0,0,1,3.17-2,27.14,27.14,0,0,1-6,4.43Z" style="fill:#fff"></path><path d="M387.21,302a9.46,9.46,0,0,0-2.22,2.58,9.29,9.29,0,0,0-.63,3.35c-.06,0-.24-.36-.31-1a4.9,4.9,0,0,1,2.17-4.5C386.78,302,387.19,301.93,387.21,302Z" style="fill:#fff"></path><path d="M232.25,294.72c.34,1,2.76,61.4,2.76,61.4l15.08,56.13,20.28-4S259,354.16,259,352.8s6.24-48.91,6.24-48.91Z" style="fill:#263238"></path><path d="M273.35,301.86c1.36,1.69,33.55,33.81,44.41,34.15s50.94-29.27,50.94-29.27l-11.11-16.43-37.87,19-23.88-28.72Z" style="fill:#263238"></path><path d="M319.48,309.05c.16.07-.63,1.81-1.2,4A9.44,9.44,0,0,0,318,316c.06.74.18,1.2.1,1.23s-.31-.4-.46-1.18a7,7,0,0,1,.13-3.05A10.23,10.23,0,0,1,319.48,309.05Z" style="fill:#455a64"></path><path d="M202.68,211.07c0,4,18.8-14.71,30.07-19.29a11.71,11.71,0,0,0,4.18-2.33c2.28-2.4,1.4-6.17-.3-8.94-3-4.82-11.1-8.47-16.87-10,0,0-3.79,5.21-8.58,13.2C205.91,192.49,202.68,204.36,202.68,211.07Z" style="fill:#FF725E"></path><path d="M199.66,246.3c4,6.28,11.42,16.22,11.42,16.22l17,34.43,4.77,26.24s7.16.34,24.54-4.77,48.06-26.93,48.06-26.93S290.15,267,281.63,257.07s-25.9-21.47-25.9-21.47-13-44.66-26.59-45.68-35.28,19.65-35.28,19.65l2.95,28.59A18.45,18.45,0,0,0,199.66,246.3Z" style="fill:#FF725E"></path><path d="M224,200.78c.37-.77,7.06-3.18,11.17-3.09s38.2,9.27,38.2,9.27l54.5,13.55s-3.57,14.74-5.23,15.69-46-10.94-49.27-10.94-36.76-.77-44.09-5.52S217.8,213.62,224,200.78Z" style="fill:#FF725E"></path><g style="opacity:0.30000000000000004"><path d="M318.23,235.35a2.56,2.56,0,0,1-.83-4,2.09,2.09,0,0,0,.41-.48c.2-.41,0-.88-.16-1.32a3.28,3.28,0,0,1,.9-3.29.84.84,0,0,0,.35-.44,1,1,0,0,0-.17-.63,3,3,0,0,1,.17-3c.3-.45.73-.87.73-1.41,0-.29-.13-.56-.11-.85a1.15,1.15,0,0,1,.92-1,3.41,3.41,0,0,1,1.42,0c1.47.27,3.17.7,3.77,2.08a4.56,4.56,0,0,1,.08,2.59c-.81,4.8-1.95,9.85-5.36,13.31-.24-.49-.48-1-.71-1.46"></path></g><path d="M193.86,209.57s-18.65,20-21.73,20.47-37,8.47-37,8.47l5.64,18s36.72-6.74,41.34-9.31S202.68,232,202.68,232Z" style="fill:#FF725E"></path><path d="M198.94,209.92a1.12,1.12,0,0,1,.09.31c.05.23.12.53.21.92.2.84.49,2,.85,3.52.75,3.06,1.91,7.47,3.32,12.93.36,1.37.69,2.8,1.19,4.25a32.55,32.55,0,0,0,1.85,4.38c1.58,2.89,3.43,5.93,5.29,9.15l12.19,20.95a80.53,80.53,0,0,0,5.85,8.77c2.09,2.71,4.59,4.95,6.59,7.5a19.77,19.77,0,0,1,2.52,4,24.94,24.94,0,0,1,1.49,4.3,64.23,64.23,0,0,1,1.29,8.23v0a21.4,21.4,0,0,0,4.62,8.68c1.9,2.28,3.42,4.34,4.68,6s2.22,3,2.86,3.92l.73,1a3.36,3.36,0,0,1,.23.37,1.79,1.79,0,0,1-.28-.33l-.78-1L250.78,314c-1.29-1.66-2.84-3.69-4.75-5.94a21.64,21.64,0,0,1-4.77-8.8h0v0a64.42,64.42,0,0,0-1.33-8.17,24.22,24.22,0,0,0-1.47-4.21,19.5,19.5,0,0,0-2.47-3.94c-2-2.5-4.49-4.75-6.61-7.49a81.06,81.06,0,0,1-5.9-8.82l-12.16-21c-1.85-3.24-3.67-6.26-5.25-9.19a31,31,0,0,1-1.85-4.46c-.5-1.47-.82-2.92-1.16-4.28-1.37-5.46-2.47-9.89-3.17-13-.34-1.54-.6-2.74-.75-3.55-.07-.39-.12-.7-.16-.93A1.11,1.11,0,0,1,198.94,209.92Z" style="fill:#263238"></path><path d="M288.21,295.37a1.45,1.45,0,0,1-.16-.17l-.46-.52-1.69-2-6.16-7.52c-5.16-6.38-12.24-15.23-19.71-25.29-3.73-5-7.18-9.89-10.25-14.37s-5.73-8.58-7.87-12.08c-1.1-1.74-2-3.34-2.88-4.74s-1.54-2.61-2.09-3.62l-1.29-2.31-.32-.6c-.07-.14-.1-.21-.09-.22a1.12,1.12,0,0,1,.14.19l.37.58c.33.56.79,1.31,1.36,2.26s1.31,2.19,2.17,3.57,1.82,3,2.94,4.69c2.18,3.47,4.89,7.53,7.95,12s6.55,9.31,10.28,14.33c7.46,10,14.49,18.93,19.58,25.37l6,7.62,1.63,2.09.41.55C288.18,295.29,288.22,295.36,288.21,295.37Z" style="fill:#263238"></path><path d="M301.65,286.08a6,6,0,0,1-.6.47l-1.78,1.27c-1.56,1.09-3.83,2.65-6.67,4.52-5.68,3.74-13.66,8.72-22.73,13.76-4.54,2.51-8.88,4.89-13,6.72a49.83,49.83,0,0,1-11.38,3.7,28.66,28.66,0,0,1-8.05.41,16.46,16.46,0,0,1-2.17-.32,3.32,3.32,0,0,1-.74-.17,4.34,4.34,0,0,1,.76.07c.5.06,1.22.18,2.17.22a30.58,30.58,0,0,0,8-.57,51.2,51.2,0,0,0,11.24-3.78c4.09-1.84,8.41-4.23,12.95-6.74,9.06-5,17.05-9.95,22.78-13.61l6.75-4.38,1.84-1.19A3.15,3.15,0,0,1,301.65,286.08Z" style="fill:#263238"></path><path d="M236.54,285.7a21.68,21.68,0,0,1-5.53-2.05,22,22,0,0,1-5-3c.08-.13,2.36,1.17,5.28,2.57S236.59,285.56,236.54,285.7Z" style="fill:#263238"></path><path d="M226.83,263.19a2.32,2.32,0,0,1,.41-.27l1.25-.76,4.77-2.8,16.63-9.61.2-.11.13.19c.86,1.28,1.73,2.61,2.6,4,.43.7.86,1.41,1.25,2.16a4.3,4.3,0,0,1,.52,1.26c0,.17,0,.29-.1.43s-.13.19-.19.3-.26.35-.4.52C252,260.86,250,263,248.09,265c-1,1-1.9,2-2.84,2.95l-.71.7a2,2,0,0,1-.94.5,12.29,12.29,0,0,1-1.9.38,112.56,112.56,0,0,1-12.58.62H229l0-.11c-.68-2.15-1.22-3.87-1.62-5.11-.16-.55-.3-1-.4-1.34a3.32,3.32,0,0,1-.12-.44,2.3,2.3,0,0,1,.2.47c.12.35.28.79.48,1.34l1.76,5-.15-.11a124.36,124.36,0,0,0,12.51-.77,11.08,11.08,0,0,0,1.82-.37,1.64,1.64,0,0,0,.76-.4l.7-.69c.92-.95,1.86-1.94,2.81-3,1.89-2.05,3.89-4.19,5.77-6.5.13-.17.27-.33.38-.5s.23-.3.2-.4a5,5,0,0,0-.46-1.05c-.38-.73-.81-1.44-1.23-2.13-.86-1.39-1.73-2.73-2.57-4l.33.08-16.61,9.34-4.88,2.7-1.33.72Z" style="fill:#263238"></path><path d="M242.09,263.93s.16-.09.47-.06a1.84,1.84,0,0,1,1.12.66,1.76,1.76,0,0,1,.28,1.93,2.07,2.07,0,0,1-2.07,1.18,2.1,2.1,0,0,1-1.71-1.67,1.84,1.84,0,0,1,.68-1.82,1.92,1.92,0,0,1,1.22-.45c.31,0,.47.09.46.12a2.62,2.62,0,0,0-1.43.6,1.51,1.51,0,0,0-.46,1.45,1.52,1.52,0,0,0,2.88.38,1.43,1.43,0,0,0-.14-1.5A2.32,2.32,0,0,0,242.09,263.93Z" style="fill:#263238"></path><path d="M241,198.75a36.74,36.74,0,0,0-4.2-.83,28.1,28.1,0,0,0-4.63-.15,14.29,14.29,0,0,0-5.43,1.24,7.28,7.28,0,0,0-2.2,1.81,17.84,17.84,0,0,0-1.67,2.15,24.16,24.16,0,0,0-2.12,4.11c-1,2.45-1.34,4.07-1.43,4a3.83,3.83,0,0,1,.19-1.14,24,24,0,0,1,.9-3,22.53,22.53,0,0,1,2.06-4.23,17.7,17.7,0,0,1,1.69-2.23,7.81,7.81,0,0,1,2.34-1.93,14.24,14.24,0,0,1,5.65-1.26,25,25,0,0,1,4.7.27,18.19,18.19,0,0,1,3.08.72A4,4,0,0,1,241,198.75Z" style="fill:#263238"></path><path d="M173.7,236.56a5.33,5.33,0,0,1-1.19-3.61,5.4,5.4,0,0,1,1-3.66,22,22,0,0,0-.49,3.65A19.64,19.64,0,0,0,173.7,236.56Z" style="fill:#263238"></path><path d="M171.57,239.48A6.09,6.09,0,0,1,171,233c.15,0-.3,1.48-.14,3.27S171.71,239.41,171.57,239.48Z" style="fill:#263238"></path><path d="M169.41,241.56a10.3,10.3,0,0,1-5-1.33,10.42,10.42,0,0,1-4.05-3.2,49.8,49.8,0,0,0,4.28,2.73A50.75,50.75,0,0,0,169.41,241.56Z" style="fill:#263238"></path><path d="M320.9,231.08s-.12,0-.18,0a2.74,2.74,0,0,0-1.75,4.09,1.35,1.35,0,0,0-1.21,1.37,3.91,3.91,0,0,0,.66,1.89,5.2,5.2,0,0,0,1.52,1.94,1.82,1.82,0,0,0,2.28-.09c.22-.25.35-.58.63-.77.61-.39,1.46.18,2.12-.12s.69-1,1.11-1.4a5.32,5.32,0,0,1,1.35-.79,2.86,2.86,0,0,0,1.26-1.48,5.72,5.72,0,0,0,.13-2.67c-.12-1.16-.25-2.32-.38-3.47a1.66,1.66,0,0,0,1.27-1.35c.17-.64.15-1.32.38-1.94.17-.45.46-.85.6-1.32a1.12,1.12,0,0,0-.34-1.3,2.28,2.28,0,0,0,.63-3.62c.69-.48.26-1.56-.23-2.24-.8-1.14-2-2.42-3.31-2.1-.35.08-.67.27-1,.36a6.92,6.92,0,0,1-2.21-.18c-.74-.08-1.65.22-1.78,1-.06.38.11.77,0,1.15a2.76,2.76,0,0,1-.53.88,2.48,2.48,0,0,0,.27,3,3.32,3.32,0,0,0-.5,4.35S318.13,228.59,320.9,231.08Z" style="fill:#fafafa"></path><path d="M320.9,231.08a1.56,1.56,0,0,1-.3-.26,1.29,1.29,0,0,1-.32-.36,1.78,1.78,0,0,1-.34-.58,2.27,2.27,0,0,1,0-1.84,5,5,0,0,1,1.64-1.91l0,.21a3.24,3.24,0,0,1-.66-2.2,3.72,3.72,0,0,1,1.17-2.39l0,.29a2.67,2.67,0,0,1-.72-1.78,2.78,2.78,0,0,1,.18-1,3.63,3.63,0,0,1,.54-.88,1,1,0,0,0,.18-.82,1.63,1.63,0,0,1,.15-1.16,2.2,2.2,0,0,1,2.21-.66,3.46,3.46,0,0,0,2.11,0,2.75,2.75,0,0,1,1.22-.3,2.44,2.44,0,0,1,1.24.41,6.49,6.49,0,0,1,1.77,1.81,3.84,3.84,0,0,1,.59,1.2,1.67,1.67,0,0,1,0,.74,1,1,0,0,1-.44.68l0-.4a2.52,2.52,0,0,1-.7,4.05l0-.46a1.49,1.49,0,0,1,.34,1.9c-.18.43-.42.78-.53,1.15a8.8,8.8,0,0,0-.23,1.22,3.15,3.15,0,0,1-.42,1.3,1.59,1.59,0,0,1-1.18.81l.23-.28q.19,1.86.39,3.66a7.54,7.54,0,0,1,0,1.84,3.18,3.18,0,0,1-.75,1.69,3.9,3.9,0,0,1-1.48,1,1.89,1.89,0,0,0-1.05,1,2.17,2.17,0,0,1-.54.7,1.32,1.32,0,0,1-.9.25c-.56,0-1.07-.22-1.4,0s-.49.79-1,1.05a2,2,0,0,1-1.55.1,3.83,3.83,0,0,1-2-1.92,5.32,5.32,0,0,1-.87-2.29,1.5,1.5,0,0,1,1.38-1.59l-.12.23a2.61,2.61,0,0,1-.28-2.33,3.09,3.09,0,0,1,1-1.42,1.9,1.9,0,0,1,1.32-.45,3.06,3.06,0,0,0-1.23.57,2.88,2.88,0,0,0-.88,1.37,2.38,2.38,0,0,0,.29,2.09l.18.24-.29,0a1.2,1.2,0,0,0-1,1.31,4.92,4.92,0,0,0,.86,2.11,3.41,3.41,0,0,0,1.76,1.71,1.61,1.61,0,0,0,1.22-.08,1.18,1.18,0,0,0,.45-.44,1.82,1.82,0,0,1,.57-.62c.6-.31,1.17,0,1.63,0s.77-.24,1-.73a3.73,3.73,0,0,1,.49-.73,2.73,2.73,0,0,1,.75-.5,3.3,3.3,0,0,0,1.32-.88,3.86,3.86,0,0,0,.59-3.16c-.13-1.19-.27-2.41-.4-3.65l0-.27.26,0a1.12,1.12,0,0,0,.79-.57,2.79,2.79,0,0,0,.35-1.11,8.37,8.37,0,0,1,.24-1.3,12.39,12.39,0,0,1,.56-1.2,1,1,0,0,0-.14-1.25l-.45-.27.49-.19a2,2,0,0,0,.55-3.19l-.26-.22.28-.18a.74.74,0,0,0,.2-.87,3.22,3.22,0,0,0-.5-1,6.19,6.19,0,0,0-1.62-1.68,2,2,0,0,0-1-.34,2.23,2.23,0,0,0-1,.25,2.49,2.49,0,0,1-1.23.19c-.41,0-.78-.13-1.13-.19a1.77,1.77,0,0,0-1.77.45,1.15,1.15,0,0,0-.08.86,1.46,1.46,0,0,1-.27,1.11,2.34,2.34,0,0,0-.08,3.18l.11.12-.15.16a3.64,3.64,0,0,0-1,2.11,3,3,0,0,0,.56,2l.09.12-.13.09a4.76,4.76,0,0,0-1.6,1.75,2.18,2.18,0,0,0-.1,1.7A5.44,5.44,0,0,0,320.9,231.08Z" style="fill:#263238"></path><path d="M233.8,191.6a20.8,20.8,0,0,0-5.13-.35A21.21,21.21,0,0,0,217.41,196a45.59,45.59,0,0,0-8.25,9.32L207,208.45a7,7,0,0,1-.84,1.12,7.07,7.07,0,0,1,.67-1.23c.47-.77,1.15-1.88,2-3.22a41.65,41.65,0,0,1,8.22-9.51,20.78,20.78,0,0,1,11.57-4.73,14.3,14.3,0,0,1,3.82.3,9,9,0,0,1,1,.29A1.11,1.11,0,0,1,233.8,191.6Z" style="fill:#263238"></path><path d="M273.83,225.3a1.66,1.66,0,0,1-.53,0l-1.49,0-5.5-.28c-4.63-.25-11-.6-18.11-1.27-3.53-.34-6.89-.74-9.93-1.19-1.52-.22-3-.45-4.31-.71a15,15,0,0,1-3.62-1.29,15.21,15.21,0,0,1-4.41-3.31,9.75,9.75,0,0,1-1-1.17c-.2-.28-.3-.43-.28-.44s.46.55,1.37,1.47a16.27,16.27,0,0,0,4.43,3.12,15.74,15.74,0,0,0,3.55,1.2c1.32.24,2.78.45,4.29.66,3,.42,6.39.8,9.91,1.14,7.05.67,13.46,1.08,18.09,1.43l5.48.44,1.49.15A3.2,3.2,0,0,1,273.83,225.3Z" style="fill:#263238"></path><g style="opacity:0.30000000000000004"><path d="M252.07,223.66c1,3.05,1.91,6.15,2.71,9.27a97,97,0,0,1-15.24-4.5c-5.1-2-10.47-4.86-12.42-10,0,0,4.62,3.37,9.25,3.6S252.07,223.66,252.07,223.66Z"></path></g><g style="opacity:0.30000000000000004"><path d="M230.15,269.92a44.81,44.81,0,0,0,12.13,2.36,7.11,7.11,0,0,0,3.21-.36,7.56,7.56,0,0,0,2.74-2.48c2.71-3.45,5.41-7.26,5.71-11.64-2.62,2.91-4.86,6.24-8.26,9.14-.81.7-1.25,1.82-2.24,2.23a5.22,5.22,0,0,1-1.62.3q-5.9.45-11.81.45"></path></g><path d="M194,218.14a2,2,0,0,1,.13.49c.07.38.15.84.25,1.4.21,1.29.5,3,.84,5.16l1.18,7.66c.22,1.45.44,3,.67,4.54a37.12,37.12,0,0,0,.8,4.81,10.67,10.67,0,0,0,.87,2.27c.38.7.85,1.36,1.28,2l2.57,3.78c1.65,2.39,3.14,4.55,4.4,6.39l3,4.28.82,1.16a2.62,2.62,0,0,1,.28.41s-.14-.11-.36-.35-.52-.61-.9-1.1c-.77-1-1.84-2.4-3.14-4.19s-2.82-3.93-4.5-6.32c-.82-1.21-1.69-2.47-2.59-3.78-.44-.66-.91-1.33-1.31-2.07a11,11,0,0,1-.92-2.37,36.84,36.84,0,0,1-.8-4.89c-.22-1.57-.44-3.08-.64-4.53-.4-2.87-.76-5.47-1.07-7.68l-.68-5.18c-.06-.57-.11-1-.16-1.42A2.38,2.38,0,0,1,194,218.14Z" style="fill:#263238"></path><g style="opacity:0.30000000000000004"><path d="M194.39,219.74l-1.08,8.12a41.43,41.43,0,0,0-.43,4.44,19.25,19.25,0,0,0,.91,6.62l2.91-2.22Z"></path></g><g style="opacity:0.30000000000000004"><path d="M232,188.69a3.55,3.55,0,0,0-2.47-.35A26.39,26.39,0,0,0,215,195.28c-4,3.68-6.54,8.52-8.44,13.61a56.64,56.64,0,0,1,10.24-12.28c3.87-3.45,8.9-5.87,14.08-5.61a2,2,0,0,0,1.22-.16C232.86,190.4,232.66,189.18,232,188.69Z"></path></g><path d="M280.56,217.82a19.51,19.51,0,0,0-3.55,2.23,20.11,20.11,0,0,0-2.63,3.25,7.65,7.65,0,0,1,6.18-5.48Z" style="fill:#263238"></path><g style="opacity:0.30000000000000004"><path d="M144.79,252.37a3.37,3.37,0,0,1-.3-1,2.72,2.72,0,0,1,.2-.83,3.64,3.64,0,0,0-1.88-4.18,1.34,1.34,0,0,1-.53-.34,1.53,1.53,0,0,1-.23-.73,5.64,5.64,0,0,0-1.54-2.61l-1.66-1.91a6,6,0,0,0-1.77-1.57,2.06,2.06,0,0,0-2.24.16c-.85.78-.55,2.15-.19,3.24a73,73,0,0,0,5,12.52l3,.53A2.6,2.6,0,0,0,144.79,252.37Z"></path></g><path d="M133.68,237.34a2.43,2.43,0,0,0-3.07-2.18c-1.24.17-2.68.67-2.71,1.92a2.59,2.59,0,0,0-.59,4.91,1.88,1.88,0,0,0-.3,2.27,3.76,3.76,0,0,0,1.85,1.57,1.86,1.86,0,0,0,.69,3.22,2.34,2.34,0,0,0,1.15,3.75,2,2,0,0,0-.07,2,3.57,3.57,0,0,0,.84.85c.75.61.46,1.8,1.21,2.41s2.47.55,3.35.61a1.94,1.94,0,0,0,3.85.37c.07-.38,0-.84.33-1.1a1.73,1.73,0,0,1,.8-.3,2.41,2.41,0,0,0,1.37-3.5c.77.15,1.21-1,.92-1.69s-1-1.25-1.27-2c-.59-1.32-.12-3.35-1.46-3.9-.36-.14-.79-.13-1.08-.39s-.32-.9-.38-1.39a2.47,2.47,0,0,0-2.1-2.06,1.81,1.81,0,0,0-.9-2.77,1.62,1.62,0,0,0-.64-2.14,2.69,2.69,0,0,0-1.79-.51" style="fill:#fafafa"></path><path d="M133.68,237.34a.94.94,0,0,1,.29,0,2.75,2.75,0,0,1,.85.11,2.69,2.69,0,0,1,1.17.77,1.61,1.61,0,0,1,.22,1.86l-.08-.19a1.79,1.79,0,0,1,1.22,1.12,1.85,1.85,0,0,1-.21,1.87l-.11-.26a2.64,2.64,0,0,1,2.25,2.11c.09.57,0,1.19.43,1.42a4.43,4.43,0,0,0,.81.24,1.58,1.58,0,0,1,.83.61c.74,1.21.35,2.66,1.05,3.73a8.74,8.74,0,0,1,1.16,1.8,1.74,1.74,0,0,1-.11,1.21,1,1,0,0,1-1.12.67l.25-.37a2.65,2.65,0,0,1-.18,3,2.46,2.46,0,0,1-1.32.92,2,2,0,0,0-.64.19.64.64,0,0,0-.24.47,4.31,4.31,0,0,1-.14.78,2.07,2.07,0,0,1-.43.75,2.18,2.18,0,0,1-3.86-1.42l.24.27c-.47,0-1-.05-1.53-.1a6.38,6.38,0,0,1-1-.17,2.14,2.14,0,0,1-1-.51c-.59-.62-.54-1.41-.81-1.91-.11-.27-.32-.4-.6-.64a2.61,2.61,0,0,1-.68-.85,2.21,2.21,0,0,1,.17-2.1l.17.38a2.58,2.58,0,0,1-1.28-4.17l.14.42a2,2,0,0,1-1.53-1.63,1.91,1.91,0,0,1,.75-2l0,.4a3.94,3.94,0,0,1-2-1.74,2.1,2.1,0,0,1,.4-2.47l0,.35a2.78,2.78,0,0,1,.63-5.26l-.13.15a1.83,1.83,0,0,1,1-1.51,5.2,5.2,0,0,1,1.53-.48,3.2,3.2,0,0,1,2.46.41,2.39,2.39,0,0,1,.83,1.32,1.92,1.92,0,0,1,.08.53s-.05-.18-.16-.5a2.4,2.4,0,0,0-.86-1.21,3,3,0,0,0-2.31-.3,4.5,4.5,0,0,0-1.43.49,1.47,1.47,0,0,0-.86,1.26v.13l-.13,0a2.51,2.51,0,0,0-1.9,1.9,2.46,2.46,0,0,0,1.37,2.66l.3.14-.25.21a1.69,1.69,0,0,0-.28,2,3.59,3.59,0,0,0,1.79,1.51l.4.18L129,246a1.61,1.61,0,0,0,.6,2.77l.49.08-.36.34a2.1,2.1,0,0,0,1,3.33l.37.07-.2.31a1.71,1.71,0,0,0-.13,1.61,2,2,0,0,0,.55.68,2.38,2.38,0,0,1,.73.8c.31.68.3,1.4.7,1.78a3.27,3.27,0,0,0,1.76.52c.51.05,1,.07,1.52.1h.25v.25a1.73,1.73,0,0,0,1.79,1.68,1.8,1.8,0,0,0,1.17-.6,2,2,0,0,0,.45-1.29,1.13,1.13,0,0,1,.47-.81,2.48,2.48,0,0,1,.78-.25,1.89,1.89,0,0,0,1.05-.73,2.18,2.18,0,0,0,.18-2.4l-.34-.51.58.14c.51.12.86-.74.69-1.27A9.15,9.15,0,0,0,142,251c-.77-1.3-.38-2.79-1-3.73a1.28,1.28,0,0,0-.61-.47,3.61,3.61,0,0,1-.89-.28,1.16,1.16,0,0,1-.51-.86c-.05-.3-.05-.59-.09-.83a2.32,2.32,0,0,0-1.92-1.87l-.29,0,.19-.23a1.67,1.67,0,0,0-.81-2.54l-.18,0,.1-.15a1.39,1.39,0,0,0-.16-1.6,2.67,2.67,0,0,0-1.06-.77C134.1,237.34,133.67,237.39,133.68,237.34Z" style="fill:#263238"></path><path d="M137.24,251.46a2,2,0,0,1-1.16-.15,1.5,1.5,0,0,1-1-1,2.4,2.4,0,0,1,.38-1.73l.2.36a3.27,3.27,0,0,1-2.41-1.15,1.62,1.62,0,0,1-.15-1.42,2.83,2.83,0,0,1,.61-1.12l.2.4a2,2,0,0,1-1.67-.76,1.82,1.82,0,0,1-.34-1.38c.15-.8.62-1.06.63-1a3.44,3.44,0,0,0-.34,1,1.54,1.54,0,0,0,1.68,1.62l.58-.05-.38.45a2.54,2.54,0,0,0-.48.94,1.09,1.09,0,0,0,.09,1,2.92,2.92,0,0,0,2,1l.39,0-.19.33a2.16,2.16,0,0,0-.41,1.4,1.24,1.24,0,0,0,.73.81A10.66,10.66,0,0,1,137.24,251.46Z" style="fill:#263238"></path><path d="M256.32,235.68a11.93,11.93,0,0,1-2.68.21c-1.66,0-4,0-6.49-.16s-4.81-.44-6.45-.7a12.07,12.07,0,0,1-2.63-.56,16.73,16.73,0,0,1,2.68.19c1.64.17,3.92.39,6.44.55s4.79.25,6.45.31A16.05,16.05,0,0,1,256.32,235.68Z" style="fill:#263238"></path><path d="M219.28,279.1a14.93,14.93,0,0,1,1.49-3v.24l-1.46-2.46c-.7-1.21-1.33-2.33-1.82-3.23l.33,0a9.7,9.7,0,0,1-1.9,1.59,10,10,0,0,1,1.6-1.88l.18-.19.15.23c.54.86,1.21,2,1.91,3.18l1.41,2.48.07.13-.07.11A15.62,15.62,0,0,1,219.28,279.1Z" style="fill:#263238"></path><path d="M194.76,197.57A3.91,3.91,0,0,0,193,203a3,3,0,0,0,.93,5.6c.08.75.87,1.21,1.61,1.4a6,6,0,0,0,3.42-.12c.41-.15.88-.44.85-.87a1.2,1.2,0,0,0-.19-.47,110.18,110.18,0,0,1-4.84-11" style="fill:#e0e0e0"></path><path d="M194.76,197.57a6.8,6.8,0,0,1,.57,1.19l1.44,3.3c.61,1.38,1.36,3,2.25,4.82.23.44.46.9.69,1.37l.19.34a1.05,1.05,0,0,1,.14.5,1,1,0,0,1-.56.85,5.67,5.67,0,0,1-3.47.47,4.2,4.2,0,0,1-1.44-.47,1.75,1.75,0,0,1-.91-1.28l.21.23a3.21,3.21,0,0,1-1-6l-.08.29a4.1,4.1,0,0,1-.44-2.72,4,4,0,0,1,.93-1.87,3.78,3.78,0,0,1,1-.82,1.44,1.44,0,0,1,.43-.16,7,7,0,0,0-1.28,1.13,3.78,3.78,0,0,0-.32,4.24l.11.18-.19.1a2.88,2.88,0,0,0-1.48,2.68,2.83,2.83,0,0,0,2.35,2.48l.2,0,0,.2a1.19,1.19,0,0,0,.67.88,3.61,3.61,0,0,0,1.25.41,5.4,5.4,0,0,0,3.12-.39.58.58,0,0,0,.33-.42c0-.12-.16-.38-.27-.62l-.68-1.38c-.87-1.82-1.59-3.48-2.16-4.89s-1-2.56-1.28-3.36A6,6,0,0,1,194.76,197.57Z" style="fill:#263238"></path><path d="M198.56,210.2c-.9-.21-1.32-1.6-1.35-2.5a10.16,10.16,0,0,1,.5-2.65c.42-1.81.36-3.71.87-5.5s1.85-3.56,3.74-3.77a7.65,7.65,0,0,1,2.77-8.14,6.92,6.92,0,0,1,3.59-8.34,4.75,4.75,0,0,1,.23-4.22,5,5,0,0,1,3.58-2.38,5,5,0,0,1,1.48-4.38,5.24,5.24,0,0,1,4.54-1.26,3.84,3.84,0,0,1,4.33-1.38,3.67,3.67,0,0,1,2.39,3.77c-.08.71-.37,1.39-.41,2.1a20.65,20.65,0,0,0,.53,2.89,5.41,5.41,0,0,1-2.06,4.44,16.67,16.67,0,0,1-4.49,2.49,5,5,0,0,1-3.44,6.31,2,2,0,0,1,.14,2.51,27.09,27.09,0,0,1-1.76,2.12A29.07,29.07,0,0,0,212,196c-.64,1.22-1.85,2.37-3.25,2.23a6.36,6.36,0,0,1-4.45,5.8,5,5,0,0,1-1.21,4.51,5.38,5.38,0,0,1-4.48,1.62" style="fill:#fafafa"></path><path d="M198.56,210.2a6.06,6.06,0,0,0,2.49-.39,5.06,5.06,0,0,0,2.33-1.84,5,5,0,0,0,.74-3.86l0-.13.12,0a6.21,6.21,0,0,0,2.9-2,6,6,0,0,0,1.4-3.7v-.2l.19,0a3,3,0,0,0,2.51-1.3,11.6,11.6,0,0,0,1.46-2.95,8.69,8.69,0,0,1,.84-1.59c.36-.5.8-.93,1.19-1.38a3.34,3.34,0,0,0,.87-1.49,1.51,1.51,0,0,0-.37-1.52l-.35-.3.45-.1a4.74,4.74,0,0,0,3.27-6l-.09-.22.22-.09a18.33,18.33,0,0,0,4.11-2.21,5.55,5.55,0,0,0,2.29-4,9.15,9.15,0,0,0-.45-2.42,4.11,4.11,0,0,1-.06-1.36,12,12,0,0,1,.29-1.28,3.4,3.4,0,0,0-2-4,3.59,3.59,0,0,0-4.12,1.24l-.09.14-.17,0a5,5,0,0,0-4.33,1.22,4.65,4.65,0,0,0-1.39,4.12l0,.26-.26,0a4.72,4.72,0,0,0-3.43,2.29,4.53,4.53,0,0,0-.2,4l.09.22-.21.09a6.73,6.73,0,0,0-3.49,8.06l.05.15-.13.09a7.5,7.5,0,0,0-2.72,7.92l.07.21-.22,0a4,4,0,0,0-2.85,2,7.49,7.49,0,0,0-1.07,3.06c-.16,1-.23,2-.37,2.87a17.73,17.73,0,0,1-.55,2.37,4.2,4.2,0,0,0,.24,3.21,1.51,1.51,0,0,0,.82.76s-.49,0-.91-.71a4.21,4.21,0,0,1-.34-3.3,19.25,19.25,0,0,0,.5-2.37c.12-.87.18-1.84.33-2.88a7.93,7.93,0,0,1,1.07-3.19,4.37,4.37,0,0,1,3.09-2.15l-.16.24a7.88,7.88,0,0,1,2.82-8.37l-.08.24a7.16,7.16,0,0,1,3.7-8.63l-.12.31a5,5,0,0,1,.21-4.39,5.22,5.22,0,0,1,3.79-2.55l-.22.29a5.19,5.19,0,0,1,1.53-4.58,5.46,5.46,0,0,1,4.79-1.36l-.27.11a4.11,4.11,0,0,1,4.74-1.44,3.93,3.93,0,0,1,2.36,4.57,4.63,4.63,0,0,0-.22,2.42,9.78,9.78,0,0,1,.45,2.54,6.09,6.09,0,0,1-2.49,4.34,18.23,18.23,0,0,1-4.23,2.26l.13-.32a4.9,4.9,0,0,1-.43,4.17,5.07,5.07,0,0,1-3.19,2.46l.1-.4a2,2,0,0,1,.51,2,3.82,3.82,0,0,1-1,1.68c-.41.47-.84.88-1.17,1.34a8.1,8.1,0,0,0-.81,1.51,12,12,0,0,1-1.53,3,3.37,3.37,0,0,1-2.85,1.42l.2-.18a6.27,6.27,0,0,1-1.52,3.9,6.48,6.48,0,0,1-3.06,2l.09-.17A5.12,5.12,0,0,1,201.1,210a5.36,5.36,0,0,1-1.89.33A3.33,3.33,0,0,1,198.56,210.2Z" style="fill:#263238"></path></g></svg>